<svg xmlns="http://www.w3.org/2000/svg" viewBox="0 0 200 200" width="200" height="200"><defs><linearGradient id="gradient-15" x1="99.98" x2="99.98" y1="171.27" y2="136.351"><stop offset="0" stop-color="#e4b3ab" stop-opacity="0.8"/><stop offset="0.7" stop-color="#c5796d" stop-opacity="1"/></linearGradient><radialGradient id="gradient-18" cx="100" cy="113" r="40"><stop offset="0" stop-color="#fff4f3" stop-opacity="0.5"/><stop offset="0.9" stop-color="#f3d4cf" stop-opacity="0"/></radialGradient><radialGradient id="gradient-19" cx="100" cy="57" r="36"><stop offset="0" stop-color="#fff4f3" stop-opacity="0.5"/><stop offset="0.9" stop-color="#f3d4cf" stop-opacity="0"/></radialGradient><radialGradient id="gradient-34" cx="126.391" cy="85.989" r="13.763" gradientTransform="matrix(-1.0172 0 0 1.0172 202.565 -1.469)"><stop offset="0" stop-color="#FFFFFF" stop-opacity="1"/><stop offset="0.544" stop-color="#FDFEFE" stop-opacity="1"/><stop offset="0.74" stop-color="#F6F8F9" stop-opacity="1"/><stop offset="0.879" stop-color="#EAEFF2" stop-opacity="1"/><stop offset="0.992" stop-color="#D9E3E8" stop-opacity="1"/><stop offset="1" stop-color="#D8E2E7" stop-opacity="1"/></radialGradient><radialGradient id="gradient-35" cx="126.391" cy="85.989" r="13.763" gradientTransform="matrix(1.0172 0 0 1.0172 -2.565 -1.469)"><stop offset="0" stop-color="#FFFFFF" stop-opacity="1"/><stop offset="0.544" stop-color="#FDFEFE" stop-opacity="1"/><stop offset="0.74" stop-color="#F6F8F9" stop-opacity="1"/><stop offset="0.879" stop-color="#EAEFF2" stop-opacity="1"/><stop offset="0.992" stop-color="#D9E3E8" stop-opacity="1"/><stop offset="1" stop-color="#D8E2E7" stop-opacity="1"/></radialGradient><radialGradient id="gradient-106" cx="123.021" cy="84.391" fx="133.604" fy="80.492" r="17.898" gradientTransform="matrix(0.9998 0.0208 0.0166 -0.7998 -47.4114 149.3288)"><stop offset="0" stop-color="#e4b3ab" stop-opacity="1"/><stop offset="0.7" stop-color="#e4b3ab" stop-opacity="0.3"/><stop offset="1" stop-color="#f3d4cf" stop-opacity="0"/></radialGradient><radialGradient id="gradient-107" cx="79.54" cy="83.579" r="23.208" gradientTransform="matrix(1.0971 -0.0567 0.0576 1.0844 -20.1314 20.8883)"><stop offset="0.94" stop-color="#000000" stop-opacity="0"/><stop offset="1" stop-color="#000000" stop-opacity="0.3"/></radialGradient><radialGradient id="gradient-108" cx="123.021" cy="84.391" fx="133.604" fy="80.492" r="17.898" gradientTransform="matrix(-0.9998 0.0208 -0.0166 -0.7998 247.4192 149.3287)"><stop offset="0" stop-color="#e4b3ab" stop-opacity="1"/><stop offset="0.7" stop-color="#e4b3ab" stop-opacity="0.3"/><stop offset="1" stop-color="#f3d4cf" stop-opacity="0"/></radialGradient><radialGradient id="gradient-109" cx="79.54" cy="83.579" r="23.208" gradientTransform="matrix(-1.0971 -0.0567 -0.0576 1.0844 220.1314 20.8883)"><stop offset="0.94" stop-color="#000000" stop-opacity="0"/><stop offset="1" stop-color="#000000" stop-opacity="0.3"/></radialGradient><linearGradient id="gradient-122" x1="130" x2="126" y1="81" y2="85" gradientTransform="matrix(1 0 0 1 -50 0)"><stop offset="0" stop-color="#FFFFFF" stop-opacity="1"/><stop offset="1" stop-color="#FFFFFF" stop-opacity="0"/></linearGradient><linearGradient id="gradient-123" x1="130" x2="126" y1="81" y2="85"><stop offset="0" stop-color="#FFFFFF" stop-opacity="1"/><stop offset="1" stop-color="#FFFFFF" stop-opacity="0"/></linearGradient><linearGradient id="gradient-141" x1="100" x2="100" y1="142" y2="139"><stop offset="0.1" stop-color="#ebc3bd" stop-opacity="1"/><stop offset="1" stop-color="#e4b3ab" stop-opacity="1"/></linearGradient></defs><path fill="#ecf0f1" opacity="1" d="M225,225H-25V-25h250V225z"/><path fill="#c6dce2" opacity="1" d="M137.635-25h14.142L225,48.224v14.142L137.635-25z M225,90.649V76.507L123.492-25h-14.142L225,90.649z M225,118.934v-14.142L95.208-25H81.065L225,118.934z M225,147.219v-14.143L66.925-25H52.782L225,147.219z M225,225v-7.071L-17.929-25H-25v7.071L217.929,225H225z M225,5.796V-8.345L208.345-25h-14.142L225,5.796z M225,34.081V19.939L180.061-25h-14.142L225,34.081z M225,175.503V161.36L38.64-25H24.497L225,175.503z M222.487-25L225-22.487V-25H222.487z M48.224,225h14.143L-25,137.635v14.142L48.224,225z M19.938,225h14.143L-25,165.919v14.143L19.938,225z M-8.345,225H5.798L-25,194.203v14.143L-8.345,225z M76.507,225h14.143L-25,109.351v14.142L76.507,225z M-22.487,225L-25,222.487V225H-22.487z M161.36,225h14.143L-25,24.497V38.64L161.36,225z M104.792,225h14.142L-25,81.066v14.142L104.792,225z M189.645,225h14.142L-25-3.787v14.142L189.645,225z M225,203.787v-14.143L10.354-25H-3.786L225,203.787z M133.076,225h14.142L-25,52.782v14.142L133.076,225z"/><path fill="#2a232b" opacity="1" d="M19.273 278.474c-2.987 0-5.493-0.846-7.277-2.449 0.26 0.058 0.551 0.086 0.869 0.086 3.453 0 9.151-3.228 11.324-7.389 0.217-2.067-0.396-4.376-1.812-6.896 -3.315-5.838-8.82-7.466-14.648-9.189 -4.849-1.434-9.862-2.916-13.504-7.058 -9.954-10.596-9.202-23.263 2.233-37.651 -0.092-0.686-0.144-1.071-0.196-1.463 -3.866-7.445-4.552-14.183-2.053-20.081 3.215-7.589 11.649-13.6 24.39-17.383l0.078-0.022 -0.006-0.081c-0.188-2.399 0.79-5.015 2.684-7.174 2.575-2.938 6.422-4.685 10.832-4.919l0.178-0.009 -0.101-0.147c-2.886-4.215-3.457-8.688-1.566-12.274 1.472-2.79 4.241-4.593 7.055-4.593 1.668 0 3.204 0.638 4.439 1.846 0.103 0.064 0.497 0.535 0.59 0.659 1.017 1.34 1.395 2.912 1.182 4.919 -0.374-3.863-2.871-5.271-5.219-5.271 -2.852 0-5.581 1.867-6.489 4.44 -0.638 1.809-0.888 5.502 4.603 9.93l0.146-0.134c-1.75-2.598-2.347-5.018-1.775-7.19 0.577-2.192 2.337-4.074 5.237-5.6 -2.102 3.184-0.972 7.345 1.311 9.902 2.368 2.658 7.015 4.122 13.083 4.121 9.51 0 19.561-3.474 22.882-7.908 2.887-3.866 2.608-10.002 2.232-12.271 3.171 3.053 4.943 8.707 4.871 15.585 -0.113 10.844-5.03 26.601-18.489 38.301 -5.133 4.465-10.948 8.174-16.572 11.762 -1.728 1.103-3.456 2.205-5.167 3.329 -21.479 14.074-16.134 26.021-10.476 38.668 0.681 1.521 1.385 3.096 2.029 4.654 5.482 7.098 4.38 13.164 2.493 17.009C34.99 274.007 25.921 278.474 19.273 278.474L19.273 278.474z"/><path fill="#1b141c" opacity="1" d="M12.475 191.111c0.852-1.361 2.349-3.862 4.827-6.614 12.467-14.117 39.351-14.11 51.802-22.074 4.492-2.792 13.153-11.878 5.33-3.896 -7.607 7.618-16.997 10.345-36.132 15.341C18.656 178.969 14.58 188.9 12.45 191.035 12.463 190.377 12.466 190.111 12.475 191.111zM42.065 186.044c18.531-10.538 27.64-4.63 40.413-28.171 1.319-2.504 2.089-4.04 1.927-3.741 -14.254 28.508-25.318 17.027-51.257 37.2 -1.104 0.854-4.972 3.886-4.727 5.26C28.421 196.592 27.396 194.433 42.065 186.044zM60.336 161.681c8.71-1.954 14.749-6.304 13.749-5.729 -20.646 10.732-50.717-0.626-52.951 17.25C24.177 159.171 41.118 166.536 60.336 161.681zM14.671 242.974c1.967 2.627 5.455 6.543 7.947 11.192 1.007 2.038 1.655 3.269 1.536 3.021 -0.15-0.233-0.734-1.797-1.758-3.979 -5.519-10.923-26.096-32.407-9.883-48.119C0.955 215.395 5.45 230.647 14.671 242.974zM37.148 153.208c1.112 1.929 3.154 3.298 4.97 3.814 3.627 1.172-5.838-1.214-4.942-7.852 0.154-1.678 0.952-3.258 1.145-3.711C36.638 148.252 35.984 150.327 37.148 153.208z"/><path fill="#3a353a" opacity="1" d="M24.172 184.311c-14.06 5.821-44.699 43.764-21.156 59.208l1.699 1.207c16.558 9.814 13.79 8.106 20.289 15.289 -4.825-5.396-11.641-8.378-18.119-11.143 -2.706-1.175-5.711-2.516-8.177-4.419 -5.273-3.865-7.719-8.127-8.96-13.253C-14.371 216.803 9.198 189.661 24.172 184.311zM18.99 212.724c-2.208 7.286-2.518 14.654 0.167 22.124 1.798 3.846-0.713-7.868-0.577-9.888 0.646-9.091 4.533-16.651 10.343-23.616 8.475-11.28 20.252-14.138 34.692-21.842C45.168 187.34 26.252 189.657 18.99 212.724zM71.565 158.462c-2.912 1.841-5.708 3.029-5.574 2.941 -20.028 7.146-49.126 4.403-56.009 31.838 0 0 0.205-0.613 0.567-1.694 0.548-1.896 2.616-6.506 5.634-9.749 8.07-8.863 21.092-10.477 29.116-12.297 4.584-1.002 10.72-2.457 15.161-3.974 11.71-4.021 17.587-10.996 19.145-15.144 0.121-0.286 0.216-0.501 0.292-0.666C79.197 151.03 76.515 155.457 71.565 158.462zM79.896 149.718C80.146 149.248 80.141 149.182 79.896 149.718L79.896 149.718zM47.45 160.992c9.354 0.252 18.606-0.313 27.512-6.406 5.241-3.517 7.248-8.298 6.702-13.057 -0.076-0.789-0.115-1.153-0.104-0.972 -0.027 0.342 0.266 2.631-0.726 5.634 -0.648 1.879-1.709 3.466-3.079 4.816 0.37-0.723 0.602-1.56 0.62-2.501 -0.194 0.341-0.401 0.674-0.636 0.988 -3.322 4.435-13.373 7.908-22.882 7.908 -6.068 0.001-10.714-1.463-13.083-4.121 -2.282-2.558-3.413-6.719-1.311-9.902 -0.345 0.182-0.672 0.369-0.985 0.561 -0.983 3.555-1.464 6.757 0.521 9.06 2.653 3.077 6.233 4.825 10.177 5.602 -5.993 0.279-11.489 0.254-15.006 0.646 -14.071 1.387-14.16 8.158-14.964 10.815C23.55 160.304 29.329 160.377 47.45 160.992zM31 146c1.601-4.003 5.766-5.438 9.929-5.34 -0.963-0.574-2.038-0.879-3.179-0.879 -2.814 0-5.583 1.803-7.055 4.593 -1.89 3.586-1.319 8.06 1.566 12.274l0.101 0.147 -0.178 0.009c-4.41 0.234-8.257 1.981-10.832 4.919 -1.894 2.159-2.872 4.774-2.684 7.174l0.006 0.081 -0.078 0.022c-12.741 3.783-21.175 9.794-24.39 17.383 -2.143 5.058-1.937 10.734 0.602 16.943 -2.575-15.776 6.479-28.02 24.293-32.77 -0.505-1.557 1.681-5.714 3.897-8.558 1.298-1.666 7-6 12-4C32 155 30 151 31 146z"/><path fill="#000000" opacity="1" d="M79.819 136.945c0.458 2.279 0.748 8.596-2.16 12.49 -5.553 7.413-29.061 11.355-35.81 3.78 -2.465-2.763-3.387-7.021-1.07-10.11 -6.617 3.309-7.218 8.135-3.86 13.12 -14.194-11.442 6.99-20.876 6.99-7.99 0.402-2.144 0.317-4.209-1.02-5.97 0-0.011-0.01-0.03-0.03-0.04 -0.071-0.095-0.506-0.624-0.6-0.67 -6.176-6.035-18.103 3.432-10.08 15.149 -8.822 0.469-14.027 6.88-13.61 12.2 -20.399 6.058-32.254 18.669-22.41 37.55 0.053 0.4 0.104 0.791 0.22 1.41 -10.107 12.719-13.392 25.898-2.23 37.78 7.915 8.998 22.008 5.433 28.14 16.229 1.13 2.011 2.05 4.44 1.81 6.801 -2.576 4.933-9.791 8.206-12.48 7.13 9.597 9.559 39.416-7.206 24.64-26.32 -5.823-14.095-15.662-27.427 8.41-43.2 7.38-4.85 15.06-9.28 21.75-15.1C86.719 173.539 88.938 145.213 79.819 136.945zM18.599 169.165c0.025 0.389 0.171 1.045 0.26 1.38 -16.569 7.271-24.051 21.227-22.81 34.94C-12.354 187.513-0.388 175.129 18.599 169.165zM-3.331 207.405c0.02 0.021 0.03 0.04 0.04 0.061 0 0-0.02 0.01-0.02 0.02C-3.321 207.466-3.331 207.436-3.331 207.405zM71.899 183.785c-15.535 17.703-45.832 24.573-43.55 45.75 1.207 11.019 10.133 22.296 11.35 27.311 3.174 13.123-17.963 26.659-27.43 19.31 4.433 0.477 9.54-2.942 11.94-6.96 0.302-1.101 0.302-4.294-1.93-8.06 -5.682-9.708-17.007-7.609-25.5-14.44 -3.81-3.06-6.81-7.27-8.18-12 -3.542-12.195 5.291-22.773 8.35-27.4 0 0-0.357-0.704-0.4-0.79 -1.744-13.806 8.071-30.664 22.64-35.979 -0.044-0.089-0.22-1.106-0.22-1.74 -0.058-6.386 7.545-11.939 13.5-11.939 -7.29-12.228 3.765-20.163 9.51-15.08 0.046 0.022 0.415 0.359 0.58 0.58 0.02 0.01 0.04 0.029 0.04 0.05 0.97 1.14 1.33 2.56 1.35 4.03 -0.25-1.46-0.85-2.78-2.03-3.721 -3.075-4.464-20.004 4.023-3.53 14.99 -4.196-5.593-4.388-10.792 1.97-14.22 -1.868 2.829-1.264 6.942 1.13 9.819 5.876 7.062 22.977 4.923 30.75 1.011 5.573-2.813 9.361-6.896 7.93-16.73C89.706 148.64 81.552 172.8 71.899 183.785z"/><path fill="#f3d4cf" opacity="1" d="M190.858 199.866c-6.008-10.158-13.474-11.973-19.628-13.936 -6.323-2.016-19.346-3.178-26.449-4.6 -6.86-1.373-23.153-5.789-23.339-13.488 -0.192-8.066 4.291-40.09 4.291-40.09H74.005c0 0 4.487 32.023 4.294 40.09 -0.184 7.699-16.48 12.115-23.341 13.488 -7.104 1.422-20.125 2.584-26.448 4.6 -6.156 1.963-13.624 3.777-19.632 13.936 -3.644 6.16-6.008 16.133-6.008 27.133h194C196.869 215.999 194.509 206.026 190.858 199.866z"/><path fill="#fff4f3" opacity="1" d="M121.442 167.843c2.495 10.929 18.165 13.698 26.293 15.325 21.909 4.379 33.772 5.134 42.297 19.539 2.903 4.916 5.459 15.864 5.962 24.153 1.835 0.291 0.531-17.432-5.136-26.994 -9.742-16.472-29.089-15.135-46.077-18.535C137.921 179.958 121.628 175.542 121.442 167.843L121.442 167.843zM78.558 167.843c-0.186 7.699-16.479 12.115-23.339 13.488 -16.988 3.4-36.335 2.063-46.077 18.535 -5.667 9.563-6.971 27.285-5.136 26.994 0.503-8.289 3.059-19.237 5.962-24.153 8.524-14.405 20.388-15.16 42.297-19.539C60.393 181.541 76.063 178.771 78.558 167.843L78.558 167.843z"/><path fill="#e4b3ab" opacity="1" d="M51.206 189.513c0 0 28.641 0.299 33.473 1.885 2.314 0.758 8.372 5.633 8.372 5.633s-6.556-3.17-8.658-3.758C79.51 191.909 51.206 189.513 51.206 189.513zM99.795 199.999c2.053-0.041 7.887-3.799 7.887-3.799s-5.574 2.059-7.342 2.16c-1.491 0.086-6.366-1.238-6.366-1.238S98.112 200.032 99.795 199.999zM117.008 192.757c6.75-1.818 29.786-3.23 29.786-3.23s-23.791-0.516-30.51 1.725c-2.252 0.752-7.562 5.16-7.562 5.16S114.786 193.354 117.008 192.757z"/><path fill="none" opacity="1" d="M190.858 199.866c-9.741-16.471-29.122-15.142-46.077-18.535 -6.86-1.373-23.153-5.789-23.339-13.488 -0.192-8.066 4.291-40.09 4.291-40.09H74.005c0 0 4.487 32.023 4.294 40.09 -0.184 7.699-16.48 12.115-23.341 13.488 -7.104 1.422-20.125 2.584-26.448 4.6 -6.156 1.963-13.624 3.777-19.632 13.936 -3.644 6.16-6.008 16.133-6.008 27.133h194C196.869 215.999 194.509 206.026 190.858 199.866z" stroke="#c5796d" stroke-width="1.5"/><path fill="url(#gradient-15)" opacity="1" d="M74.767 128.517c0.729 5.276 4.358 31.969 4.182 39.342 -0.001 0.048-0.011 0.094-0.013 0.141 5.877 2.477 12.865 4.005 21.167 4 8.141 0.005 14.977-1.448 20.719-3.824 -0.008-0.105-0.026-0.209-0.029-0.315 -0.175-7.381 3.45-34.068 4.179-39.343l0.017-0.113H74.751L74.767 128.517z"/><path fill="#09aac5" opacity="1" d="M93.589 228.292c-8.632 0-18.516-0.143-30.217-0.437 -5.24-0.133-10.38-0.197-15.713-0.197 -8.082 0-15.041 0.146-21.771 0.288 -5.62 0.118-10.929 0.229-16.081 0.229 -4.201 0-7.974-0.075-11.533-0.23l-0.612-0.026 -0.023-0.281c-0.55-6.277-0.329-11.201 0.657-14.635 2.739-9.57 11.779-22.221 13.349-22.804 17.165-5.583 22.101-5.852 26.671-6.81 1.788-0.086 3.637-0.176 6.081-0.586 1.753-0.305 3.492-1.017 5.174-1.705 2.067-0.846 4.019-1.645 5.835-1.645 0.592 0 1.129 0.084 1.643 0.256 0.212 0.077 0.427 0.165 0.632 0.282l-0.024 0.12 0.026 0.198c0.479 4.203 0.973 7.772 1.408 10.921l0.011 0.079 0.081 0.015c11.784 1.007 26.305 2.259 40.89 2.259 14.972 0 29.065-1.255 40.758-2.309l0.079-0.007 0.011-0.079c0.422-3.005 0.913-6.566 1.4-10.813l0.061-0.52c0.146-0.037 0.349-0.126 0.57-0.196 0.488-0.163 0.997-0.242 1.557-0.242 1.702 0 3.576 0.752 5.561 1.547 1.637 0.656 3.33 1.336 5.133 1.697 1.221 0.247 2.486 0.299 3.71 0.349 0.322 0.014 0.645 0.026 0.965 0.043 11.05 1.62 12.476 1.811 27.626 6.813 0.092 0.038 0.205 0.077 0.328 0.119 0.38 0.13 0.9 0.308 1.043 0.567 1.617 2.864 3.238 5.418 4.806 7.889 5.13 8.081 9.56 15.062 10.143 27.528 0.008 0.11 0.015 0.203 0.019 0.295h-0.778c-40.024 0.014-59.705 0.721-75.52 1.289C116.521 227.95 107.005 228.292 93.589 228.292z"/><path fill="#1fbad4" opacity="1" d="M203.838 226.266c-0.296 0-0.61 0-0.906 0.001 -3.369-15.058-15.396-31.068-18.229-32.479 -9.956-4.956-30.352-7.399-40.493-11.396 -0.742 12.815-3.105 19.729-4.671 34.673 -1.357-7.705 2.116-31.016 2.697-35.99 0.027-0.233 0.143-1.218 0.143-1.218 1.688-0.431 2.109-1.127 7.688 1.108 4.488 1.8 5.622 1.925 8.843 2.046 13.716 0.514 15.933 3.408 28.591 6.855 2.022 0.551 0.082-1.032 6.177 8.575C198.883 206.643 203.301 213.636 203.838 226.266zM-3.838 226.266c0.296 0 0.61 0 0.906 0.001 3.369-15.058 15.396-31.068 18.229-32.479 9.956-4.956 30.256-7.399 40.397-11.396 0.742 12.815 3.201 19.729 4.767 34.673 1.357-7.705-2.116-31.016-2.697-35.99 -0.027-0.233-0.143-1.218-0.143-1.218 -1.688-0.431-2.109-1.127-7.688 1.108 -4.488 1.8-5.622 1.915-8.843 2.046 -11.774 1.875-13.637 2.176-28.591 6.855 -1.936 0.804-0.082-1.032-6.177 8.575C1.117 206.643-3.301 213.636-3.838 226.266z"/><path fill="#009cb6" opacity="1" d="M100.071 195.291c-14.397 0-28.77-0.943-40.47-1.926 -0.103-1.298 0.002 0.355-0.45-1.647l0.131 0.019c12.446 1.671 26.582 2.555 40.878 2.555 0.001 0 0.003 0 0.004 0 14.571 0 28.595-0.894 40.561-2.584l0.132-0.02 -0.02 0.133c-0.122 0.829-0.229 1.131-0.329 1.91C128.269 194.738 101.071 195.291 100.071 195.291zM140.105 197.306c0.098-0.799 0.199-1.606 0.313-2.437l0.019-0.131 -0.131 0.019c-11.884 1.659-25.772 2.536-40.166 2.536 -14.12 0-28.104-0.866-40.438-2.507l-0.13-0.017 0.018 0.13c0.104 0.76 0.199 1.503 0.289 2.238C86.621 199.086 108.168 200.16 140.105 197.306z"/><path fill="#008197" opacity="1" d="M203.919 225.966c-0.76-16.261-7.99-23.11-14.96-35.461 -0.21-0.38-1.019-0.603-1.42-0.729 -12.39-3.909-15.91-6.21-27.66-6.82 -1.55-0.08-3.13-0.08-4.66-0.39 -4.729-0.95-8.85-4.15-12.3-3 -0.22 0.07-0.43 0.16-0.64 0.28 -0.021 0.18-0.04 0.35-0.061 0.52 -0.479 4.18-0.96 7.68-1.399 10.811 -24.459 2.949-57.911 2.638-81.63 0.05 -0.44-3.181-0.93-6.721-1.41-10.931 -0.02-0.13-0.03-0.26-0.05-0.39 -0.21-0.12-0.43-0.21-0.65-0.29 -3.7-1.24-8.16 1.901-12.7 2.691 -8.426 1.466-8.81-0.086-32.77 7.799 -1.67 0.62-10.74 13.54-13.41 22.87 -1.16 4.04-1.11 9.54-0.66 14.67 0.01 0.13 0.02 0.25 0.03 0.37 0.24 0.01 0.47 0.02 0.7 0.029 18.55 0.811 35.87-0.829 65.1-0.09 62.13 1.561 54.81-1.56 139.69-1.59 0.29 0 0.59 0 0.88 0C203.939 226.226 203.929 226.096 203.919 225.966zM140.739 191.806c-0.12 0.83-0.23 1.63-0.33 2.41 -26.396 2.747-55.546 2.747-80.8 0.05 -0.11-0.79-0.22-1.601-0.34-2.431C86.149 195.445 117.819 195.045 140.739 191.806zM139.839 198.695c-23.66 2.05-55.979 1.99-79.67 0.04 -0.14-1.25-0.3-2.53-0.48-3.85 26.63 3.54 57.86 3.149 80.63-0.03C140.139 196.176 139.979 197.455 139.839 198.695zM172.77 225.335c-6.54 0.07-13.091 0.131-19.631 0.21 -14.439 0.171-40.329 1.511-49.81 1.521 -43.15 0.09-33.54-0.41-52.82-0.49 -19.22-0.04-34.91 1.53-52.25 1.09 -0.1-7.37 0.5-12.37 2.95-17.479 3.34-6.91 6.22-12.351 11.11-18.22 0.14-0.16 0.4-0.2 0.59-0.271 5.14-1.9 11.21-4.22 17.85-5.69 8.16-1.81 12.65-1.109 17.87-3.46 3.45-1.55 6.08-3.189 8.45-2.51 0.06 4.23 0.32 7.69 0.68 11.07 0.02 0.18 0.04 0.35 0.06 0.53 0.09 0.83 0.19 1.659 0.3 2.5 0.02 0.189 0.04 0.369 0.06 0.55 0.16 1.28 0.33 2.569 0.5 3.93 0.03 0.19 0.06 0.38 0.08 0.58 0.6 4.72 1.24 10.19 1.7 17.87 0.57-7.17 0.36-12.3-0.21-17.67 26.29 3.42 56.96 3.05 79.521-0.03 -0.601 5.4-0.801 10.49-0.23 17.7 0.46-7.55 1.12-13.061 1.73-17.91 0.02-0.2 0.05-0.4 0.069-0.59 0.17-1.35 0.34-2.64 0.5-3.92 0.021-0.19 0.04-0.38 0.061-0.57 0.1-0.83 0.2-1.66 0.279-2.49 0.03-0.18 0.051-0.359 0.061-0.54 0.36-3.369 0.62-6.84 0.67-10.96 3.87-1.17 8.32 3.391 14.25 4.021 5.85 0.63 11.84 1.457 17.47 3.308 4.15 1.359 11.21 3.362 12.891 4.372 0.34 0.21 0.77 1.49 0.96 1.891 4.87 9.71 12.439 15.149 14.52 32.26C178.06 225.315 177.529 225.285 172.77 225.335z"/><path fill="#f3d4cf" opacity="1" d="M47.218 82.634c-0.967-2.31-8.082-5.576-11.21-5.06 -3.538 0.583-4.838 4.047-4.369 6.612 1.103 6.025 3.996 8.563 5.296 13.268 1.096 3.97 3.433 6.253 4.588 7.938 1.42 2.07 2.73 6.818 3.023 7.512 0.463 1.096 2.103 3.757 5.002 3.619 3.333-0.16 7.545-6.211 7.614-7.557C57.544 101.679 49.733 88.647 47.218 82.634z" stroke="#c5796d" stroke-width="1.5"/><path fill="#c5796d" opacity="1" d="M47.953 107.204c0 0 0.429-0.995-0.094-1.879 -0.672-1.134-2.423-3.219-2.821-4.467 -0.325-1.021-0.16-3.2-0.213-4.266 -0.094-1.886-1.492-3.177-1.927-4.26 -2.914-7.238-6.792-11.723-9-12.656 -1.633 3.705-0.339 6.416 1.94 12.116 -1.375-7.748-0.054-10.17-0.054-10.17S39.803 84.842 41.786 92c0.359 1.292-1.111 3.988-0.83 5.299 0.352 1.646 4.184 4.83 5.257 6.163C47.049 104.5 47.953 107.204 47.953 107.204z"/><path fill="#f3d4cf" opacity="1" d="M152.52 82.634c0.967-2.31 8.082-5.576 11.211-5.06 3.539 0.583 4.838 4.047 4.369 6.612 -1.104 6.025-3.996 8.563-5.297 13.268 -1.096 3.97-3.434 6.253-4.588 7.938 -1.42 2.07-2.73 6.818-3.023 7.512 -0.463 1.096-2.104 3.757-5.002 3.619 -3.332-0.16-7.545-6.211-7.613-7.557C142.193 101.679 150.006 88.647 152.52 82.634z" stroke="#c5796d" stroke-width="1.5"/><path fill="#c5796d" opacity="1" d="M151.785 107.204c0 0-0.43-0.995 0.094-1.879 0.672-1.134 2.424-3.219 2.82-4.467 0.324-1.021 0.16-3.2 0.215-4.266 0.094-1.886 1.49-3.177 1.926-4.26 2.914-7.238 6.793-11.723 9-12.656 1.633 3.705 0.338 6.416-1.939 12.116 1.375-7.748 0.053-10.17 0.053-10.17s-4.018 3.219-6.002 10.376c-0.357 1.292 1.111 3.988 0.83 5.299 -0.352 1.646-4.184 4.83-5.256 6.163C152.689 104.5 151.785 107.204 151.785 107.204z"/><path fill="#f3d4cf" opacity="1" d="M100.002 0.867C66.384 0.919 39.082 28.09 39.134 61.564c0.009 5.316 0.704 10.471 2.002 15.382h0.001c0.012 0.053 8.341 20.15 10.463 32.669 2.38 14.046 10.462 29.745 16.302 35.209 6.052 5.663 20.281 14.445 32.099 14.445 11.267 0 26.046-8.782 32.099-14.445 5.84-5.464 13.922-21.163 16.302-35.209 2.122-12.519 10.452-32.616 10.463-32.669h0.002c1.298-4.911 1.994-10.066 2.002-15.382C160.923 28.09 133.62 0.919 100.002 0.867z"/><path fill="#ebc3bd" opacity="1" d="M136.901 13.326c12.866 11.136 21.063 27.958 21.036 46.772 -0.009 5.316-0.671 10.471-1.906 15.382h-0.001c-0.011 0.053-7.939 20.15-9.959 32.669 -2.267 14.047-9.959 29.745-15.517 35.209 -5.761 5.664-19.828 14.445-30.552 14.445 -11.249 0-24.792-8.781-30.552-14.445 -5.558-5.464-13.25-21.162-15.516-35.209 -2.02-12.519-9.948-32.616-9.959-32.669h-0.001c-1.236-4.911-1.898-10.066-1.906-15.382 -0.028-18.813 8.168-35.634 21.033-46.77C48.519 24.422 39.104 41.901 39.134 61.564c0.009 5.316 0.704 10.471 2.002 15.382h0.001c0.012 0.053 8.341 20.15 10.463 32.669 2.38 14.046 10.462 29.745 16.302 35.209 6.052 5.663 20.281 14.445 32.099 14.445 11.267 0 26.046-8.782 32.099-14.445 5.84-5.464 13.922-21.163 16.302-35.209 2.122-12.519 10.452-32.616 10.463-32.669h0.002c1.298-4.911 1.994-10.066 2.002-15.382C160.901 41.9 151.485 24.42 136.901 13.326z"/><path fill="none" opacity="1" d="M100.002 0.867C66.384 0.919 39.082 28.09 39.134 61.564c0.009 5.316 0.704 10.471 2.002 15.382h0.001c0.012 0.053 8.341 20.15 10.463 32.669 2.38 14.046 10.462 29.745 16.302 35.209 6.052 5.663 20.281 14.445 32.099 14.445 11.267 0 26.046-8.782 32.099-14.445 5.84-5.464 13.922-21.163 16.302-35.209 2.122-12.519 10.452-32.616 10.463-32.669h0.002c1.298-4.911 1.994-10.066 2.002-15.382C160.923 28.09 133.62 0.919 100.002 0.867z" stroke="#c5796d" stroke-width="1.5"/><path fill="url(#gradient-141)" opacity="1" d="M99.825 142.068c-3.24 0-4.753-2.802-4.753-2.802s4.797 0.781 9.279-0.064C104.352 139.202 102.675 142.068 99.825 142.068z"/><path fill="#c5796d" opacity="1" d="M95.211 139.349c-0.132-0.039-0.23-0.149-0.208-0.285 0.021-0.137 0.151-0.224 0.286-0.209 3.612 0.857 5.963 0.661 8.766-0.043 0.145-0.035 0.27 0.062 0.297 0.195s-0.063 0.256-0.193 0.296C101.098 140.207 98.142 140.241 95.211 139.349zM85.447 132.958c0.313-0.144 0.582-0.086 1.073-0.115 1.419-0.249 3.128-0.323 4.54-0.611 1.348-0.274 2.774-0.662 4.158-0.597 1.488 0.071 2.879 0.669 4.353 0.829 1.401 0.151 2.708-0.229 4.053-0.557 1.542-0.376 3.01-0.287 4.56 0.006 1.938 0.363 3.774 0.857 5.689 1.038 0.582 0.055 0.365 0.413 0.032 0.454 -1.713 0.205-3.431-0.068-5.194-0.249 -1.425-0.146-2.868-0.329-4.274 0.021 -1.518 0.379-3.437 0.822-4.605 0.808 -1.3-0.017-2.521-0.538-3.784-0.807 -1.551-0.327-3.091-0.02-4.647 0.143 -1.938 0.201-3.672 0.34-5.579 0.047C85.312 133.29 85.306 133.023 85.447 132.958z"/><path fill="url(#gradient-34)" opacity="1" d="M80.854 79.416c2.436 1.371 4.469 3.053 6.65 5.942 0.047 0.184 0.088 0.364 0.1 0.534 0.218 3.267-1.324 6.223-3.851 8.345 -2.66 1.242-9.155 4.42-18.706-0.284 -1.653-1.546-2.925-3.497-3.748-5.672 0.075 0.106 0.168 0.208 0.236 0.317 -0.439-0.952-0.988-2.855-0.988-4.983C69.383 80.367 73.652 78.675 80.854 79.416z"/><path fill="url(#gradient-35)" opacity="1" d="M119.146 79.416c-2.436 1.371-4.469 3.053-6.65 5.942 -0.047 0.184-0.088 0.364-0.1 0.534 -0.218 3.267 1.324 6.223 3.851 8.345 2.66 1.242 9.155 4.42 18.706-0.284 1.653-1.546 2.925-3.497 3.748-5.672 -0.075 0.106-0.168 0.208-0.236 0.317 0.439-0.952 0.988-2.855 0.988-4.983C130.617 80.367 126.348 78.675 119.146 79.416z"/><path fill="#4e60a3" opacity="1" d="M83.206 89.25c-1.231 4.522-5.896 7.187-10.429 5.944 -4.528-1.241-7.203-5.918-5.97-10.442 1.23-4.526 5.905-7.19 10.434-5.947C81.768 80.045 84.439 84.723 83.206 89.25z" stroke="#152975" stroke-width="0.5"/><path fill="#6777b2" opacity="1" d="M73.962 81.918l-0.221-0.395c-0.776 0.308-1.524 0.631-2.232 0.973l0.524 1.267 -0.066 0.732 -2.021-1.189c-0.66 0.367-1.273 0.75-1.867 1.14l0.005 0.013 -0.692 0.78 1.107 1.132 -1.491 0.813 0.563 0.931 2.633 0.262 -2.468 1.673 2.641-0.146L68.984 92.3l3.255-1.969 -0.875 3.349 1.883-3.093 0.363 3.319 0.544-2.936 0.5-0.061 0.709 3.329 0.216-0.998c0.284-0.074 1.018 0.997 1.297 0.922l-0.829-3.621 1.817 3.621 -0.737-3.756 2.236 2.905c0.08-0.025 0.278-1.204 0.357-1.228l-1.392-2.081 2.53 0.763 -1.518-1.643 -1.219-1.009 5.083 1.137 -2.83-1.723 2-0.818 -4.329-0.437 4.281-2.27 -3.875 0.988 -1.043-0.565 -0.256-0.501 0.074-1.199 0.086-1.967 -1.768 3.113 -0.156-2.279 -0.222-0.597c-0.354 0.124-0.702 0.245-1.043 0.375L73.962 81.918z"/><path fill="#384b94" opacity="0.9" d="M83.303 85.237c-7.429 0.338-11.206 1.927-16.591 3.727 -1.038-4.574 1.839-9.12 6.42-10.149C77.712 77.786 82.267 80.661 83.303 85.237z"/><path fill="#000000" opacity="0.8" d="M76.234,84.165c-1.869-0.536-3.777,0.532-4.258,2.395c-0.484,1.853,0.64,3.793,2.51,4.329c1.871,0.537,3.781-0.532,4.264-2.386C79.237,86.639,78.107,84.7,76.234,84.165z"/><path fill="none" opacity="1" d="M76.234,84.165c-1.869-0.536-3.777,0.532-4.258,2.395c-0.484,1.853,0.64,3.793,2.51,4.329c1.871,0.537,3.781-0.532,4.264-2.386C79.237,86.639,78.107,84.7,76.234,84.165z" stroke="#152975" stroke-width="0.75"/><path fill="#ffffff" opacity="0.5" d="M68.812 92.044c0.868 1.378 2.021 2.416 3.653 2.762 1.879 0.398 2.094-2.101 0.748-2.387 -1.02-0.215-1.667-0.715-2.199-1.561C70.039 89.31 68.029 90.803 68.812 92.044L68.812 92.044z"/><path fill="url(#gradient-122)" opacity="1" d="M76.468 83.449c1.316 0.265 2.082 1.087 2.747 2.323 1.222 2.272 4.676 0.252 3.453-2.019 -1.073-1.995-2.86-3.703-5.138-4.162C74.615 79.004 74.206 82.993 76.468 83.449L76.468 83.449z"/><path fill="#4e60a3" opacity="1" d="M133.199 89.25c-1.231 4.522-5.896 7.187-10.429 5.944 -4.528-1.241-7.203-5.918-5.97-10.442 1.23-4.526 5.905-7.19 10.434-5.947C131.761 80.045 134.433 84.723 133.199 89.25z" stroke="#152975" stroke-width="0.5"/><path fill="#6777b2" opacity="1" d="M123.955 81.918l-0.221-0.395c-0.776 0.308-1.524 0.631-2.232 0.973l0.524 1.267 -0.066 0.732 -2.021-1.189c-0.66 0.367-1.273 0.75-1.867 1.14l0.005 0.013 -0.692 0.78 1.107 1.132L117 87.182l0.563 0.931 2.633 0.262 -2.468 1.673 2.641-0.146 -1.392 2.398 3.255-1.969 -0.875 3.349 1.883-3.093 0.363 3.319 0.544-2.936 0.5-0.061 0.709 3.329 0.216-0.998c0.284-0.074 1.018 0.997 1.297 0.922l-0.829-3.621 1.817 3.621 -0.737-3.756 2.236 2.905c0.08-0.025 0.278-1.204 0.357-1.228l-1.392-2.081 2.53 0.763 -1.518-1.643 -1.219-1.009 5.083 1.137 -2.83-1.723 2-0.818 -4.329-0.437 4.281-2.27 -3.875 0.988 -1.043-0.565 -0.256-0.501 0.074-1.199 0.086-1.967 -1.768 3.113 -0.156-2.279 -0.222-0.597c-0.354 0.124-0.702 0.245-1.043 0.375L123.955 81.918z"/><path fill="#384b94" opacity="0.9" d="M133.296 85.237c-7.429 0.338-11.206 1.927-16.591 3.727 -1.038-4.574 1.839-9.12 6.42-10.149C127.705 77.786 132.26 80.661 133.296 85.237z"/><path fill="#000000" opacity="0.8" d="M126.229,84.165c-1.869-0.536-3.777,0.532-4.259,2.395c-0.484,1.853,0.641,3.793,2.509,4.329c1.873,0.537,3.78-0.532,4.266-2.386C129.229,86.639,128.101,84.7,126.229,84.165z"/><path fill="none" opacity="1" d="M126.229,84.165c-1.869-0.536-3.777,0.532-4.259,2.395c-0.484,1.853,0.641,3.793,2.509,4.329c1.873,0.537,3.78-0.532,4.266-2.386C129.229,86.639,128.101,84.7,126.229,84.165z" stroke="#152975" stroke-width="0.75"/><path fill="#ffffff" opacity="0.5" d="M118.805 92.044c0.868 1.378 2.021 2.416 3.653 2.762 1.879 0.398 2.094-2.101 0.748-2.387 -1.02-0.215-1.667-0.715-2.199-1.561C120.032 89.31 118.022 90.803 118.805 92.044L118.805 92.044z"/><path fill="url(#gradient-123)" opacity="1" d="M126.461 83.449c1.316 0.265 2.082 1.087 2.747 2.323 1.222 2.272 4.676 0.252 3.453-2.019 -1.073-1.995-2.86-3.703-5.138-4.162C124.608 79.004 124.199 82.993 126.461 83.449L126.461 83.449z"/><path fill="#f3d4cf" opacity="1" d="M55.5 87c0 13.808 8.283 24.999 18.5 24.999S92.5 100.808 92.5 87c0-13.809-8.283-25.001-18.5-25.001S55.5 73.191 55.5 87zM61 88.083l-0.1-4.715c1.328-4.488 19.541-4.944 25.9 2.027 1.396 3.674-0.409 6.224-3.529 7.317 -3.293-0.892-4.969 1.202-9.809 1.324 -8.057 0.203-9.938-0.703-11.199-2.996C61.74 90.088 61.24 88.849 61 88.083z"/><path fill="url(#gradient-106)" opacity="1" d="M59.898 85.083c0.023 8.56 7.646 15.459 17.038 15.416 9.389-0.049 16.985-7.022 16.961-15.583 -0.023-8.562-7.647-15.463-17.04-15.417C67.465 69.549 59.874 76.522 59.898 85.083zM61 88.083l-0.1-4.715c1.328-4.488 19.541-4.944 25.9 2.027 1.396 3.674-0.409 6.224-3.529 7.317 -3.293-0.892-4.969 1.202-9.809 1.324 -8.057 0.203-9.938-0.703-11.199-2.996C61.74 90.088 61.24 88.849 61 88.083z"/><path fill="url(#gradient-107)" opacity="1" d="M62.264 91.041C61.74 90.088 61.24 88.849 61 88.083l-0.1-4.715c1.328-4.488 19.541-4.944 25.9 2.027 1.396 3.674-0.409 6.224-3.529 7.317 -3.293-0.892-4.969 1.202-9.809 1.324C65.406 94.239 63.524 93.333 62.264 91.041z"/><path fill="#c5796d" opacity="1" d="M89.665 83.698c-9.617-6.546-16.701-6.963-28.117-6.129C71.077 75.863 82.052 77.099 89.665 83.698z"/><path fill="#000000" opacity="1" d="M87.697 85.861c0.371 0.625 0.543 0.968 0.733 2.484C85.19 78.896 62.487 78.841 61 83.593v4.427c-1.021-1.75-1.494-3.878-1.931-5.889 -0.093-0.428-2.348-2.602-2.348-2.602s2.435 1.326 2.798 1.349c-0.182-0.216-1.127-1.248-1.127-1.248s2.251 0.931 2.576 0.843c-0.436-0.186-1.071-0.823-1.071-0.823 0.483 0.141 1.646 0.604 2.723 0.369 10.863-2.365 22.558 0.247 26.703 8C88.648 87.037 88.225 86.47 87.697 85.861zM84.943 93.048c-4.625-2.25-5.94 0.428-11.563 0.563 -8.004 0.191-9.567-0.871-11.125-2.813 0.813 2.375 1.375 3.504 10.875 3.438C78.506 94.198 81.443 91.673 84.943 93.048z"/><path fill="#f3d4cf" opacity="1" d="M126 61.999c-10.217 0-18.5 11.192-18.5 25.001 0 13.808 8.283 24.999 18.5 24.999S144.5 100.808 144.5 87C144.5 73.191 136.217 61.999 126 61.999zM137.736 91.041c-1.261 2.293-3.143 3.199-11.199 2.996 -4.84-0.122-6.516-2.216-9.809-1.324 -3.12-1.093-4.925-3.643-3.529-7.317 6.359-6.971 24.572-6.516 25.9-2.027l-0.1 4.715C138.76 88.849 138.26 90.088 137.736 91.041z"/><path fill="url(#gradient-108)" opacity="1" d="M123.146 69.499c-9.393-0.045-17.017 6.856-17.04 15.417 -0.024 8.56 7.572 15.533 16.961 15.583 9.392 0.043 17.015-6.856 17.038-15.416C140.129 76.522 132.537 69.549 123.146 69.499zM137.736 91.041c-1.261 2.293-3.143 3.199-11.199 2.996 -4.84-0.122-6.516-2.216-9.809-1.324 -3.12-1.093-4.925-3.643-3.529-7.317 6.359-6.971 24.572-6.516 25.9-2.027l-0.1 4.715C138.76 88.849 138.26 90.088 137.736 91.041z"/><path fill="url(#gradient-109)" opacity="1" d="M137.736 91.041c0.523-0.952 1.023-2.191 1.264-2.958l0.1-4.715c-1.328-4.488-19.541-4.944-25.9 2.027 -1.396 3.674 0.409 6.224 3.529 7.317 3.293-0.892 4.969 1.202 9.809 1.324C134.594 94.239 136.476 93.333 137.736 91.041z"/><path fill="#c5796d" opacity="1" d="M110.335 83.698c9.617-6.546 16.701-6.963 28.117-6.129C128.923 75.863 117.948 77.099 110.335 83.698z"/><path fill="#000000" opacity="1" d="M110.677 88.021c4.146-7.754 15.84-10.365 26.703-8 1.077 0.234 2.239-0.229 2.723-0.369 0 0-0.636 0.637-1.071 0.823 0.325 0.088 2.576-0.843 2.576-0.843s-0.945 1.032-1.127 1.248c0.363-0.022 2.798-1.349 2.798-1.349s-2.255 2.174-2.348 2.602c-0.437 2.011-0.91 4.139-1.931 5.889v-4.427c-1.487-4.752-24.19-4.698-27.431 4.751 0.19-1.516 0.362-1.859 0.733-2.484C111.775 86.47 111.352 87.037 110.677 88.021zM126.869 94.235c9.5 0.066 10.063-1.063 10.875-3.438 -1.558 1.941-3.121 3.004-11.125 2.813 -5.622-0.134-6.938-2.813-11.563-0.563C118.557 91.673 121.494 94.198 126.869 94.235z"/><path fill="url(#gradient-18)" opacity="1" d="M140.204 113.007c0.035 22.275-17.995 40.365-40.273 40.396 -22.274 0.036-40.361-17.993-40.396-40.272C59.501 90.857 77.53 72.77 99.808 72.735 122.083 72.701 140.171 90.73 140.204 113.007z"/><path fill="url(#gradient-19)" opacity="1" d="M135,55.999c0,19.329-15.671,35-35,35c-19.329,0-35-15.671-35-35s15.671-35,35-35C119.329,20.999,135,36.67,135,55.999z"/><path fill="#2a232b" opacity="1" d="M52.488 73.87c7.475-9.383 20.338-7.822 30.878-6.314 2.681 0.384 5.441 0.672 8.07 1.336 1.884 0.475 3.365 2.622 1.851 4.356 -0.708 0.825-2.253 0.672-3.207 0.652C77.459 73.645 63.193 66.387 52.488 73.87z"/><path fill="#2a232b" opacity="1" d="M147.577 73.49c-2.164-1.448-4.454-2.47-7.043-2.889 -9.497-1.54-27.586 4.79-32.341 3.45 -2.912-0.822-2.323-3.739-1.035-4.458 0.775-0.433 0.99-0.422 7.909-1.612C126.824 65.961 139.988 64.355 147.577 73.49z"/><path fill="#e4b3ab" opacity="1" d="M96.831 85.761c0 0-1.399 11.117-2.026 13.281 -1.379 4.752-6.168 11.418-5.239 14.43 1.859 6.022 7.537 4.493 10.524 4.471 2.763-0.022 8.072 1.552 9.162-2.37 0.352-1.266-0.441-4.466-0.441-4.466s-2.644 3.112-8.875 2.767c-1.778-0.099-4.671-2.096-4.704-4.912 -0.043-3.817 1.802-7.036 2.205-10.825C97.741 95.259 96.831 85.761 96.831 85.761z"/><path fill="#c5796d" opacity="1" d="M105.194 116.207c1.075 0 1.366 0.326 1.366 0.729 0 0.404-0.335 1.026-1.366 0.73 -1.134-0.323-3.113-0.175-3.113-0.175S104.117 116.207 105.194 116.207zM94.922 116.207c-1.077 0.001-1.366 0.328-1.366 0.733 -0.001 0.403 0.323 0.983 1.366 0.729 1.15-0.282 3.112-0.175 3.112-0.175S95.999 116.211 94.922 116.207zM108.81 111.107c0 0 1.489 1.933 1.18 3.975 -0.301 1.983-3.31 2.861-3.31 2.861s2.089-1.516 2.342-3.356C109.14 113.725 108.81 111.107 108.81 111.107zM90.427 109.121c0 0-1.086 2.704-0.772 4.352 0.571 2.976 3.704 4.164 3.704 4.164s-1.955-2.039-2.65-3.842C89.948 111.825 90.427 109.121 90.427 109.121z"/><path fill="#fff4f3" opacity="1" d="M105.141 112.549c1.043-0.889 1.148-1.396 0.932-1.729 -0.215-0.334-0.841-0.545-1.714 0.528 -0.963 1.18-3.056 2.054-3.056 2.054S104.098 113.437 105.141 112.549z"/><path fill="#2a232b" opacity="0.1" d="M163.476 45.849C157.957 11.071 51.814-21.979 45.016 30.572c-0.885 18.136-10.912 73.919-11.9 84.041 6.018-18.799 20.431-5.47 38.764-49.857 4.9-11.864 11.813-39.917 31.311-41.801 9.464-0.893 16.743 3.867 19.483 12.72 8.666-4.414 8.823 13.935 10.045 23.533 1.612 12.513 0.039 18.399 7.431 27.51 0.063 0.161 1.351 1.595 1.363 1.609 11.489 12.621 22.998 12.145 25.989 24.744C168.675 118.003 161.736 45.363 163.476 45.849z"/><path fill="#2a232b" opacity="1" d="M10.679 67.989c-0.08 0.52-0.14 1.05-0.18 1.58 -3.683 6.71-0.19 17.072 7.2 19.07 3.015 2.597 6.918 4.146 10.19 4.51C12.352 96.056 3.486 80.156 10.679 67.989zM140.989 150.802c1.873 11.332-8.278 12.377-17.511 19.258l-0.136-0.146c3.56-4.151 8.838-4.812 12.242-8.592 5.51-6.138-0.258-14.435 1.428-20.549 2.926-10.847 21.597-10.767 21.597-24.554 -0.088-11.4-10.183-10.74-13.68-25.996 3.991 4.223 8.235 7.215 14.113 9.352 2.064 2.779 5.38 10.297 2.086 14.754l-0.133-0.071c1.018-3.279 0.099-7.181-1.637-9.489 -1.885-2.487-3.539-2.963-5.204-3.87 6.479 8.318 6.148 15.227 6.144 15.296 0 18.127-24.507 11.586-19.896 31.825 0.395 1.726 0.462 2.093 0.595 2.789L140.989 150.802zM28.074 93.072c-0.721 0.188-1.471 0.338-2.282 0.473 -19.331 17.736 8.183 44.458 20.79 26.081l-0.148-0.132c-1.512 1.33-3.145 2.004-4.854 2.004h-0.001c-4.978-0.002-9.098-5.829-7.713-10.782 2.755-9.938 16.66-13.418 22.715-21.969 3.322-4.667 7.244-13.057 9.402-18.934l-0.181-0.083C56.737 86.019 42.105 94.836 28.074 93.072zM54.746 91.833c-2.594 6.695-17.633 13.882-13.478 23.168l0.189-0.06c-0.4-2.134 0.236-4.373 1.944-6.846 5.659-8.237 14.417-8.034 16.256-22.935l-0.188-0.059C58.019 87.842 57.463 88.981 54.746 91.833zM169.426 107.563c1.005 1.093 2.341 3.133 3.048 5.467l0.195-0.025c0.314-7.889-6.813-11.093-13.422-13.359 0.99 1.468 13.351 10.311 5.77 21.729 -6.407 9.553-20.878 9.986-24.507 22.293 0.191 2.607 1.072 5.197 1.342 8.249 1.865 3.505 1.438 5.546 0.955 6.777l0.176 0.092c2.649-3.987 0.84-6.468-0.039-8.81 -4.883-13.385 11.86-17.55 21.416-26.186C171.809 116.342 171.383 110.944 169.426 107.563zM173.211 87.674c4.254-0.131 8.963-2.941 9.957-8.197l-0.181-0.076c-3.981 5.667-9.384 4.417-10.994 3.249 4.146-3.207 6.866-7.883 7.496-13.841 0.855-8.086-2.466-16.957-6.196-21.562 0.679-4.414-0.745-5.51-3.217-7.753l-0.149 0.131c2.775 4.03-1.925 10.404-7.444 2.045 1.132 1.552 2.68 3.229 4.529 3.746 -5.866-36.958-29.602-49.74-43.027-44.981C79.132-29.613 36.629 3.565 29.402 59.413c-8.654-6.647-17.233-1.502-18.283 9.256 -2.856 27.867 36.579 37.724 57.34-6.717 5.763-12.363 13.758-38.861 34.479-40.863 0.731-0.07 1.461-0.106 2.166-0.106 8.938 0 15.002 5.705 17.664 14.319 9.215-4.692 12.382 13.048 13.681 23.25 1.714 13.297 0.041 19.554 7.897 29.234 0.067 0.171 1.436 1.697 1.448 1.711 12.213 13.413 23 8.257 26.729 19.893 1.64 5.134-1.395 9.365-4.83 13.418 1.683-0.594 5.142-0.965 8.508-2.992C187.004 113.299 188.721 98.575 173.211 87.674z"/><path fill="#0c080c" opacity="1" d="M80.007 36.444c3.484-8.505 13.429-16.407 28.114-15.8 7.039 0.291 15.361 8.612 14.549 15.101C113.548 27.292 93.276 27.292 80.007 36.444z"/><path fill="#1b141c" opacity="1" d="M170.429 39.816c2.258 2.056 3.086 2.956 2.981 5.889 -1.468 6.625-9.488 4.38-13.608 0.529C167.771 50.245 173.41 45.705 170.429 39.816zM183.168 79.478l-0.05-0.021c-0.736 1.761-1.699 3.408-3.118 4.827 -7 5-16 2-22-3 4.172 4.768 9.765 6.677 15.508 6.609 -0.101-0.072-0.195-0.147-0.297-0.219C177.465 87.543 182.174 84.733 183.168 79.478zM21 106.283c0.924-5.081 3.351-9.303 6.474-13.071 0 0-0.799 0.187-1.682 0.333 -13.494 12.38-4.18 29.248 7.159 31.901C25.569 121.724 20.294 114.754 21 106.283zM65.802 69.73c-1.389 5.293-6.815 15.637-9.221 19.017 -6.055 8.55-19.96 12.031-22.715 21.969 -1.832 6.554 5.961 14.591 12.568 8.778l0.148 0.132c-0.396 0.577-0.815 1.104-1.248 1.604 -11.551 8.911-20.499-8.806-11.334-17.946C43.878 93.434 57.354 93.212 65.802 69.73zM27.801 93.135c-13.83 3.412-24.862-12.053-17.122-25.146 -0.08 0.52-0.14 1.05-0.18 1.58 -3.683 6.71-0.19 17.072 7.2 19.07C20.688 91.213 24.547 92.754 27.801 93.135zM169.188 122.389c-1.076 0.251-1.021 0.252-1.494 0.419 3.436-4.053 6.47-8.284 4.83-13.418 -3.797-11.849-14.94-6.297-27.454-20.715 -0.021-0.132-0.021-0.132 0 0 -8.636-9.933-6.913-16.879-8.62-30.123 -1.299-10.201-4.466-27.941-13.681-23.25 -3.2-10.356-10.696-15.091-19.83-14.213 -20.72 2.001-28.716 28.5-34.479 40.863C50.633 100.11 19.085 98.196 12.309 79.394c2.157 2.185 8.936 7.523 11.927 8.292C40.55 91.879 52 82.284 59 67.284c10-22 21-60 51-52 6 2 13 8 14 16 1-4 5.137-1.504 6-1 7.536 4.402 8 31 12 47 2 8 8 13 14 16 9 4 25 10 19 22 6.769-4.062 8.493-11.33 7.043-18.394C187.865 106.951 183.654 119.025 169.188 122.389zM161.129 114.329l-0.133-0.071c1.017-3.275 0.104-7.174-1.637-9.489 -1.885-2.487-3.539-2.963-5.204-3.87 4.465 5.581 6.358 12.247 6.144 15.296 0 8.941-6.206 12.02-11.986 15.351 4.062-3.166 8.695-5.614 10.688-10.262 1.146-3.44 1.423-9.372-2.048-13.682 -11.664-14.484-11.253-14.337-11.94-17.292 3.938 3.995 7.768 6.989 14.031 9.265C161.107 102.354 164.423 109.872 161.129 114.329zM172.669 113.004l-0.195 0.025c-0.707-2.334-2.043-4.374-3.048-5.467 1.957 3.382 2.383 8.779-5.066 16.228 -9.556 8.636-26.299 12.801-21.416 26.186 0.879 2.342 2.688 4.822 0.039 8.81l-0.176-0.092c0.483-1.231 0.91-3.272-0.955-6.777 -0.27-3.052-1.15-5.642-1.342-8.249 3.629-12.307 18.1-12.74 24.507-22.293 7.571-11.404-4.733-20.192-5.77-21.729C165.855 101.911 172.983 105.115 172.669 113.004zM138.919 11.468c1.651-0.094 6.902 0.992 11.702 5.47 0.264 0.246 1.177 0.876 1.267 1.242 -0.053-0.213-0.432-0.529-0.565-0.695 -8.649-10.731-20.844-10.137-26.215 1.18C128.837 12.739 132.46 11.238 138.919 11.468zM125.292 12.5c3.131-6.863 6.52-8.033 11.678-9.144 -2.425 0.7-4.488 1.909-6.559 3.308C128.204 8.155 126.642 10.248 125.292 12.5zM98.428-3.456c6.193 0.112 9.726 0.061 15.894 2.858 3.988 1.808 8.072 6.634 9.125 10.58 0.092 0.343 0.146 0.956 0.357 1.247 -0.157-0.216-0.236-0.559-0.338-0.802 -0.903-2.179-2.23-4.043-3.886-5.615 -3.045-2.892-9.305-6.081-13.272-7.017C103.713-2.817 101.07-3.128 98.428-3.456zM85.466 8.464c8.818-2.963 18.533-4.691 27.102-0.052 7.246 3.922 12.452 15.885 12.019 21.152 0.035-0.425-0.144-0.972-0.211-1.389 -0.442-2.74-1.213-5.677-3.733-9.784C112.622 5.322 100.155 4.512 85.466 8.464zM125.088 25.336c4.646-5.594 9.915-8.012 15.557-3.422 3.039 2.473 5.411 7.471 7.541 12.139 0.311 0.68 1.049 1.718 1.128 2.47 -0.023-0.226-3.622-5.88-3.745-6.071C137.46 18.09 132.274 18.675 125.088 25.336zM128.878 28.23c2.147-0.928 5.885-2.564 10.627 3.72 8.927 11.829 8.434 30.24 9.228 31.829 0 0-2.488-11.189-5.874-20.503C140.502 36.333 136.774 24.89 128.878 28.23zM129.505 0.941c-5.084 7.857-4.512 12.572-4.862 14.069C124.643 10.098 124.247 7.338 129.505 0.941zM51.946 19.75C56.418 12.484 62.261 5.563 69.609 1.06c8.727-4.957 20.542-5.78 22.963-5.192 -0.413-0.1-1.087 0.085-1.501 0.125C79.942-2.928 67.39 4.184 60.268 10.735 57.229 13.53 54.565 16.566 51.946 19.75zM84.603 10.169c-10.324 3.203-16.542 11.63-21.404 21.625C54.049 50.6 52.301 58.256 50.5 65.223 50.759 64.223 56.146 16.17 84.603 10.169zM22.081 63.668c-3.561 8.263 7.553 11.926 16.005 5.157 1.625-1.303 3.44-3.105 4.366-5.016C34.34 80.548 16.562 73.076 22.081 63.668zM19.685 76.354c3.221 6.726 11.029 8.173 17.526 5.532C47.338 77.77 48.468 69.088 49.138 67.6c-0.467 1.039-0.135 3.909-2.753 8.552C39.323 88.671 23.116 86.441 19.685 76.354zM151.572 46.991c5.011 7.583 12.652 33.006 27.642 15.851 -1.259 1.44-7.862 12.561-17.513 4.278 -2.713-2.719-4.492-6.374-6.011-9.85C154.922 55.511 151.572 46.991 151.572 46.991z"/><path fill="#3a353a" opacity="1" d="M11.021 72.976c-0.083-1.398-0.053-2.837 0.098-4.307 0.713-7.312 4.967-12.225 10.584-12.225 2.024 0 4.145 0.678 6.218 1.957C18.393 55.373 12.423 63.637 11.021 72.976zM26.458 88.002c0.412 0.124 0.996 0.163 1.375 0.362 -1.165-0.611-2.362-1.095-3.475-1.823 -8.705-5.689-9.406-16.603-5.602-22.126 2-2.904 4.856-4.222 8.06-5.354C10.56 60.979 8.307 82.551 26.458 88.002zM68.477 36.558c8.522-15.251 18.99-26.346 36.584-25.088 8.769 0.627 12.573 5.472 13.573 6.249 -0.695-0.54-1.208-1.363-1.875-1.952C106 6.247 83.032 6.989 67.955 31.316 53.86 54.056 59.573 79.009 36.972 88.124 58.752 80.897 55.694 59.44 68.477 36.558zM140.555 15.934c4.046 2.542 6.225 7.406 8.431 11.449 3.468 6.355 11.339 20.026 18.525 19.247 -0.817 0.088-2.025-0.526-2.74-0.868 -6.921-3.315-10.014-14.387-13.951-20.79 -7.076-11.503-13.41-15.536-23.121-6.073C131.361 16.098 136.013 13.079 140.555 15.934zM150.674 55.099c0.313 0 1.294 3.863 1.411 4.243 3.23 10.488 5.633 20.354 13.769 24.604 3.326 1.738 7.543 1.937 11.065 0.615 -1.68 0.63-6.101 0.697-9.473-1.113C159.407 79 154.645 62.505 150.674 55.099 150.673 55.099 151.021 55.748 150.674 55.099zM162.796 64.039c8.201 8.268 16.567-2.15 16.567-2.15 -0.07-0.044-1.289 0.962-1.435 1.061 -5.791 3.958-11.011 5.188-19.353-9.521 -1.483-2.614-2.706-5.6-4.612-7.941C156.498 50.831 158.454 59.661 162.796 64.039zM160.279 89.302c9.286 3.633 14.87 4.469 17.569 14.461 0.243 0.9 0.716 2.036 0.731 2.972 -0.015-0.868-0.262-1.837-0.415-2.689 -2.922-16.191-16.892-13.159-24.917-22.424 -7.583-8.756-6.702-24.363-14.525-44.845C147.298 66.178 140.782 81.67 160.279 89.302zM72.029-3.178c1.241-1.198 3.136-1.921 4.725-2.482 7.571-2.674 15.332-1.807 21.078-1.52 13.311 0.664 19.81 4.694 25.242 10.029C109.762-14.638 80.875-11.717 72.029-3.178zM44.67 22.597c-1.168 2.621-2.494 5.509-3.051 8.347 0.083-0.421 0.374-0.872 0.547-1.259 2.896-6.466 5.574-10.3 9.528-15.151 3.799-5.568 9.38-11.069 15.787-13.439C59.604 3.042 50.129 10.354 44.67 22.597zM39.039 55.777c-0.198 1.042-0.562 2.207-0.573 3.274 0.009-0.869 0.568-1.976 0.821-2.793 2.163-7.005 3.842-10.827 6.375-17.01 2.431-5.937 3.638-11.355 10.621-20.705C45.945 29.388 41.813 41.125 39.039 55.777zM55.375 27.942c-2.789 4.838-6.141 16.149-6.712 20.02 0.157-1.067 2.891-7.599 3.657-9.29 1.558-3.547 3.591-6.816 5.289-10.283 6.162-12.574 12.357-15.401 14.494-16.916C65.062 14.781 60.126 19.601 55.375 27.942zM32.739 77.635c3.527 0.049 6.748-1.36 9.404-3.594 4.966-4.177 5.505-15.654 5.311-16.667 0.115 0.6-0.32 1.634-0.458 2.207 -2.021 8.361-5.425 11.157-6.411 12.335 -5.188 6.198-12.555 4.282-16.445 4.018C26.818 76.805 29.872 77.932 32.739 77.635zM135.581 7.312c2.286-0.523 5.451-1.355 8.763 0.376 0.767 0.4 1.354 0.956 2.052 1.447 -0.68-0.478-1.141-1.345-1.83-1.865 -4.273-3.233-12.625-4.116-18.211 7.018C128.618 11.019 131.579 8.227 135.581 7.312zM141.364 31.847c5.162 8.297 6.934 15.202 6.99 16.202 -0.257-4.489-2.794-13.511-5.681-17.594 -4.828-6.831-10.648-9.3-16.343-2.971C132.43 21.999 136.994 24.823 141.364 31.847zM115.443 7.317c4.175 3.956 6.33 6.555 8.45 11.981 0.154 0.395 0.785 1.475 0.709 1.904 0.18-1-2.36-12.5-8.289-16.704 -5.316-3.771-11.695-5.085-18.12-4.544C104.688 0.582 110.647 2.773 115.443 7.317zM26.531 114.318c0.908 3.285 3.005 5.68 5.192 8.166 -2.104-2.392-3.806-5.666-4.187-8.842 -1.254-10.454 14.183-19.624 18.236-22.463C35.697 96.374 23.477 103.265 26.531 114.318zM159 121.284c0.902-2.707 1.123-5.713 0.253-8.457 -1.509-4.762-10.313-12.876-13.038-18.543 2.083 9.288 12.847 11.595 12.382 22.561 -0.573 13.472-20.439 13.494-21.831 25.208 -0.852 7.131 5.628 15.771-4.449 21.886 -2.313 1.404-4.846 2.436-6.994 4.104 -1.688 1.312-2.598 2.547-1.235 1.572 6.083-4.354 11.355-5.69 14.86-9.83 5.911-6.979-2.328-15.025 2.204-22.31C144.34 132.352 155.849 128.633 159 121.284 160.102 117.979 157.008 125.932 159 121.284z"/><path fill="#000000" opacity="1" d="M173.609 87.849c5.387-0.243 8.898-3.05 9.87-9.46 -3.175 4.882-8.078 5.779-11.181 4.17 11.266-8.857 8.878-24.411 1.141-35.03 0.742-3.228 0.077-6.223-4.45-8.89 2.911 2.471 1.497 7.196-1.66 6.74 -4.094-36.541-26.934-49.917-43.39-45.29 -13.518-9.722-28.565-14.841-45.87-10.29 -34.667 9.075-43.87 39.112-48.83 69.36 -2.077-1.411-4.948-3.106-7.42-3.13 -6.215-0.062-10.224 5.815-11.05 11.39 -8.445 12.359 0.59 28.023 14.71 26.25 -16.989 15.276 1.356 38.655 15.81 30.931 2.886-1.545 5.02-4.014 6-6.07 -4.84 6.229-13.562 0.649-13.23-5.819 0.458-8.869 13.948-13.878 20.28-20.321 -2.623 5.241-18.354 13.693-12.89 23.1 0.005 0 0.197 0.315 0.2 0.32 -2.039-12.234 16.625-11.175 18.2-31.201 11.19-20.805 16.276-50.683 34.67-60.46 10.764-5.729 23.353-3.221 28.26 11.44 12.934-7.735 13.381 35.532 13.93 38.91 0.96 6.084 4.058 11.426 8.271 15.91 2.857 13.654 9.712 13.542 12.34 21.32 0.77 2.29 0.88 4.98 0.319 7.32 -2.92 12.169-24.624 10.664-21.47 27.59 0.858 4.641 3.469 11.16-2.5 15.92 -3.733 2.997-8.958 4.384-11.45 8.729 9.444-7.482 20.484-8.248 19.74-19.079 1.473 3.192 1.471 5.439-0.27 8.369 0.026-0.029 0.779-0.87 0.779-0.909 6.333-7.552-4.379-11.542 2.33-20.29 5.887-7.674 30.81-16.702 25.37-30.301 0.769 1.268 1.858 3.806 2.29 5.04 -0.467 3.046-2.945 6.55-4.96 8.811 2.138-0.488 5.975-1.001 9.36-3.101C188.461 112.611 188.531 97.843 173.609 87.849zM17.099 88.099c-5.549-2.098-9.671-11.194-6.64-18.01C10.096 76.51 12.36 83.723 17.099 88.099zM10.679 67.989c-0.08 0.52-0.14 1.05-0.18 1.58 -3.683 6.71-0.19 17.072 7.2 19.07 3.015 2.597 6.918 4.146 10.19 4.51C12.352 96.056 3.486 80.156 10.679 67.989zM43.319 108.039c-1.445 2.091-2.427 4.432-1.96 6.921 -4.132-9.234 10.863-16.337 13.48-23.091 2.703-2.825 3.257-3.958 4.72-6.72C57.729 99.98 48.978 99.804 43.319 108.039zM56.499 88.689c-6.028 8.513-19.968 12.038-22.73 22 -1.855 6.634 6.043 14.762 12.73 8.88 -12.518 18.248-39.865-8.311-20.64-25.95 0.76-0.11 1.51-0.26 2.24-0.45 9.674 1.281 22.187-2.964 31.63-14.32 0.01 0 0.02-0.01 0.02-0.02 2.33-2.8 4.37-5.87 6.14-9.05C63.784 75.512 59.826 84.015 56.499 88.689zM123.419 169.979c3.541-4.132 8.822-4.794 12.24-8.59 5.546-6.178-0.225-14.516 1.45-20.59 2.91-10.792 21.6-10.715 21.6-24.58 -0.088-11.373-10.232-11.034-13.6-25.661 4.459 4.709 9.038 7.344 13.899 9.11 1.941 2.641 5.329 10.15 2.04 14.601 1.165-3.166 0.117-7.266-1.609-9.561 -2.066-2.728-3.826-3.043-5.681-4.15 6.864 8.566 6.44 15.63 6.44 15.63 0 17.419-23.907 12.546-20.25 30.23 0.196 1 0.624 2.692 0.89 4.09 -0.01-0.01-0.029-0.021-0.05-0.03 0.021 0.01 0.03 0.021 0.05 0.04C142.928 162.06 132.769 163.011 123.419 169.979zM161.739 124.229c-6.924 6.401-17.294 8.011-21.15 18.88 -0.306-10.538 13.433-10.289 18.5-19.979 1.69-3.222 1.953-7.32 1.601-8.061 0-2.538-1.591-7.867-6.271-13.88 7.516 4.415 7.361 11.318 6.431 13.481 2.209-1.546 3.365-7.719-0.98-14.281C168.039 107.914 169.85 116.119 161.739 124.229zM168.899 106.919c2.592 3.737 2.784 9.406-4.61 16.801 -9.573 8.647-26.357 12.809-21.439 26.29 0.885 2.365 2.672 4.772 0.05 8.72 0.597-1.519 0.777-3.598-0.96-6.86 -0.248-2.982-1.139-5.604-1.33-8.21 3.622-12.24 18.049-12.624 24.49-22.229 7.605-11.455-4.923-20.591-5.601-21.591 2.891 1.01 13.438 3.935 13.07 13.161C171.748 110.289 169.995 107.801 168.899 106.919zM176.149 119.729c-3.326 2.004-7.141 2.506-8.141 2.86 3.398-4.015 6.219-8.195 4.61-13.23 -3.758-11.723-14.523-6.502-26.75-19.93 -0.112-0.122-1.376-1.544-1.43-1.68 -7.846-9.677-6.185-15.976-7.891-29.21 -1.295-10.17-4.581-28.055-13.72-23.38 -2.851-9.242-9.671-15.153-19.9-14.17 -20.827 2.012-28.627 28.2-34.56 40.92 0 0.01 0 0.02-0.01 0.03 -20.624 44.127-59.998 34.618-57.14 6.74 1.021-10.465 9.459-15.968 18.26-9.08 7.36-57.481 50.768-88.344 94.45-59.08 14.854-4.919 37.499 9.926 42.96 44.76 -2.972-0.829-6.056-5.883-6.72-8.19 0.49 1.76 1.42 3.45 2.44 4.95 5.747 8.061 10.12 1.48 7.399-2.47 2.901 2.632 3.636 3.35 3.19 7.63 0.01 0.03 0.01 0.05-0.01 0.08 5.651 6.941 11.34 25.178-1.101 35.17h-0.01c-0.08 0.07-0.17 0.14-0.25 0.2 1.095 0.924 6.884 3.011 11.24-3.19 -0.965 5.104-5.571 8.12-10.17 8.12C188.649 98.474 186.91 113.239 176.149 119.729z"/><path fill="#ffffff" opacity="0.2" d="M91.69 89.23c-3.71 7.46-14.12 8.15-17.78 8.15H61.79c-5.75 0-10.86-7.99-10.86-14.29v-6.16c0-0.23 0.11-0.46 0.29-0.7L91.69 89.23zM110.37 76.65c-2.07 1.43-3.39 3.35-3.39 5.92v0.5c0 2.44 0.5 4.47 1.34 6.15 3.71 7.46 14.12 8.15 17.78 8.15h12.12c4.09 0 7.85-4.05 9.68-8.66L110.37 76.65z"/><path fill="#ffffff" opacity="0.4" d="M91.69 89.23L51.21 76.22c0.99-1.32 4.4-2.7 6.15-2.91 2.18-0.26 6.63-0.69 11.94-0.69 8.86 0 23.72 1.29 23.72 9.96v0.5C93.02 85.52 92.52 87.55 91.69 89.23zM149.07 83.08v-6.16c0-0.23-0.11-0.46-0.29-0.7 -0.99-1.32-4.4-2.7-6.15-2.91 -2.18-0.26-6.63-0.69-11.94-0.69 -6.23 0-15.41 0.64-20.33 4.03l37.53 12.06C148.64 86.85 149.07 84.9 149.07 83.08z"/><path fill="#26120b" opacity="1" d="M149.73 78.68v-1.76c0-2.1-4.9-3.99-7.01-4.25 -9.42-1.12-31.52-2.02-35.7 6.76 -2.78-0.92-5.88-1.28-7.02-1.29 -1.14 0.01-4.24 0.37-7.02 1.29 -4.17-8.77-26.27-7.88-35.7-6.76 -2.11 0.25-7.01 2.14-7.01 4.25v1.76H45.5v2.36h4.77v2.04c0 6.3 5.15 14.94 11.51 14.94h12.12c8.33 0 19.76-3.13 19.76-14.94v-0.5c0-0.76-0.1-1.46-0.29-2.12 3.46-1.07 5.55-1.29 6.62-1.31 1.07 0.01 3.16 0.24 6.62 1.31 -0.19 0.66-0.29 1.36-0.29 2.12v0.5c0 11.81 11.44 14.94 19.76 14.94h12.12c6.36 0 11.51-8.64 11.51-14.94v-2.04h4.77v-2.36H149.73zM92.86 83.08c0 13.11-14.5 14.13-18.95 14.13H61.79c-5.66 0-10.7-7.9-10.7-14.13v-6.16c0-1.31 4.09-3.18 6.29-3.44 2.17-0.26 6.62-0.69 11.92-0.69 8.8 0 23.55 1.27 23.55 9.79V83.08zM148.91 83.08c0 6.23-5.04 14.13-10.7 14.13h-12.12c-4.45 0-18.95-1.02-18.95-14.13v-0.5c0-8.52 14.76-9.79 23.55-9.79 5.31 0 9.75 0.43 11.92 0.69 2.2 0.26 6.3 2.13 6.3 3.44V83.08z"/></svg>