<svg xmlns="http://www.w3.org/2000/svg" viewBox="0 0 200 200" width="200" height="200"><defs><linearGradient id="gradient-11" x1="99.98" x2="99.98" y1="171.27" y2="136.351"><stop offset="0" stop-color="#e4b3ab" stop-opacity="0.8"/><stop offset="0.7" stop-color="#c5796d" stop-opacity="1"/></linearGradient><radialGradient id="gradient-18" cx="100" cy="113" r="40"><stop offset="0" stop-color="#fff4f3" stop-opacity="0.5"/><stop offset="0.9" stop-color="#f3d4cf" stop-opacity="0"/></radialGradient><radialGradient id="gradient-19" cx="100" cy="57" r="36"><stop offset="0" stop-color="#fff4f3" stop-opacity="0.5"/><stop offset="0.9" stop-color="#f3d4cf" stop-opacity="0"/></radialGradient><radialGradient id="gradient-40" cx="125.778" cy="87.885" r="13.271" gradientTransform="matrix(-1.0172 0 0 1.0172 202.565 -1.469)"><stop offset="0" stop-color="#FFFFFF" stop-opacity="1"/><stop offset="0.544" stop-color="#FDFEFE" stop-opacity="1"/><stop offset="0.74" stop-color="#F6F8F9" stop-opacity="1"/><stop offset="0.879" stop-color="#EAEFF2" stop-opacity="1"/><stop offset="0.992" stop-color="#D9E3E8" stop-opacity="1"/><stop offset="1" stop-color="#D8E2E7" stop-opacity="1"/></radialGradient><radialGradient id="gradient-41" cx="125.778" cy="87.885" r="13.271" gradientTransform="matrix(1.0172 0 0 1.0172 -2.565 -1.469)"><stop offset="0" stop-color="#FFFFFF" stop-opacity="1"/><stop offset="0.544" stop-color="#FDFEFE" stop-opacity="1"/><stop offset="0.74" stop-color="#F6F8F9" stop-opacity="1"/><stop offset="0.879" stop-color="#EAEFF2" stop-opacity="1"/><stop offset="0.992" stop-color="#D9E3E8" stop-opacity="1"/><stop offset="1" stop-color="#D8E2E7" stop-opacity="1"/></radialGradient><radialGradient id="gradient-86" cx="122.469" cy="85.751" fx="134.713" fy="85.785" r="17.414" gradientTransform="matrix(0.9998 0.0208 0.0166 -0.7998 -46.3384 151.7877)"><stop offset="0" stop-color="#e4b3ab" stop-opacity="1"/><stop offset="0.7" stop-color="#e4b3ab" stop-opacity="0.3"/><stop offset="1" stop-color="#f3d4cf" stop-opacity="0"/></radialGradient><radialGradient id="gradient-87" cx="71.413" cy="110.215" r="30.925" gradientTransform="matrix(0.875 -0.0456 0.0459 0.8698 2.9059 16.5931)"><stop offset="0.95" stop-color="#000000" stop-opacity="0"/><stop offset="1" stop-color="#000000" stop-opacity="0.3"/></radialGradient><radialGradient id="gradient-88" cx="122.469" cy="85.751" fx="134.713" fy="85.785" r="17.414" gradientTransform="matrix(-0.9998 0.0208 -0.0166 -0.7998 246.3384 151.7877)"><stop offset="0" stop-color="#e4b3ab" stop-opacity="1"/><stop offset="0.7" stop-color="#e4b3ab" stop-opacity="0.3"/><stop offset="1" stop-color="#f3d4cf" stop-opacity="0"/></radialGradient><radialGradient id="gradient-89" cx="71.413" cy="110.215" r="30.925" gradientTransform="matrix(-0.875 -0.0456 -0.0459 0.8698 197.0941 16.5931)"><stop offset="0.95" stop-color="#000000" stop-opacity="0"/><stop offset="1" stop-color="#000000" stop-opacity="0.3"/></radialGradient><linearGradient id="gradient-135" x1="100" x2="100" y1="141" y2="138"><stop offset="0.1" stop-color="#ebc3bd" stop-opacity="1"/><stop offset="1" stop-color="#e4b3ab" stop-opacity="1"/></linearGradient></defs><path fill="#ecf0f1" opacity="1" d="M225,225H-25V-25h250V225z"/><path fill="#c6dce2" opacity="1" d="M55.036,79.068h-29v-26h29V79.068z M84.203,33H43.536v33.068h40.667V33z M63.869,99.999H100V56.401H63.869V99.999z M76.869,95.734H40.536v31.333h36.333V95.734z M175.536,13.401H126v56.667h49.536V13.401z M119.536,39.068h-12v14h12V39.068z M155.818-4.266h-48.282v28.667h48.282V-4.266z M100,5.734H74v36h26V5.734z M40.536,8.401h-14.5v15.333h14.5V8.401z M21.171,33H-1.246v34.434h22.417V33z M47.536,99.999H8.203v43.735h39.333V99.999z M26.036,173.734h44.167v-26H26.036V173.734z M131.536,163.734H100.5v22.667h31.037V163.734z M206.792,141.067h-28.718v34h28.718V141.067z M159.536,156.491h-24.667v22.667h24.667V156.491z M183.178,111.733h-35.975v40.668h35.975V111.733z M192.202,181.734h-44.999v29.333h44.999V181.734z M43.536,163.734H-5.262v44h48.797V163.734z M202.869,53.068h-33.166v26h33.166V53.068z M183.178,90.401h-14.359v14.835h14.359V90.401z M-5.262,118h27.339V79.299H-5.262V118z M33.493-5.599l-49.291,1.333V33h49.291V-5.599z M211.536-4.266h-32v40.667h32V-4.266z M61-8.266H47.536v29.333H61V-8.266z M208.869,97.818h-32.871v26.667h32.871V97.818z" stroke="#f9f9f9" stroke-width="0.5"/><path fill="#2a232b" opacity="1" d="M100.5,100.5h-1v-1h1V100.5z"/><path fill="#f3d4cf" opacity="1" d="M190.858 199.866c-6.008-10.158-13.474-11.973-19.628-13.936 -6.323-2.016-19.346-3.178-26.449-4.6 -6.86-1.373-23.153-5.789-23.339-13.488 -0.192-8.066 4.291-40.09 4.291-40.09H74.005c0 0 4.487 32.023 4.294 40.09 -0.184 7.699-16.48 12.115-23.341 13.488 -7.104 1.422-20.125 2.584-26.448 4.6 -6.156 1.963-13.624 3.777-19.632 13.936 -3.644 6.16-6.008 16.133-6.008 27.133h194C196.869 215.999 194.509 206.026 190.858 199.866z"/><path fill="#fff4f3" opacity="1" d="M121.442 167.843c2.495 10.929 18.165 13.698 26.293 15.325 21.909 4.379 33.772 5.134 42.297 19.539 2.903 4.916 5.459 15.864 5.962 24.153 1.835 0.291 0.531-17.432-5.136-26.994 -9.742-16.472-29.089-15.135-46.077-18.535C137.921 179.958 121.628 175.542 121.442 167.843L121.442 167.843zM78.558 167.843c-0.186 7.699-16.479 12.115-23.339 13.488 -16.988 3.4-36.335 2.063-46.077 18.535 -5.667 9.563-6.971 27.285-5.136 26.994 0.503-8.289 3.059-19.237 5.962-24.153 8.524-14.405 20.388-15.16 42.297-19.539C60.393 181.541 76.063 178.771 78.558 167.843L78.558 167.843z"/><path fill="#e4b3ab" opacity="1" d="M51.206 189.513c0 0 28.641 0.299 33.473 1.885 2.314 0.758 8.372 5.633 8.372 5.633s-6.556-3.17-8.658-3.758C79.51 191.909 51.206 189.513 51.206 189.513zM99.795 199.999c2.053-0.041 7.887-3.799 7.887-3.799s-5.574 2.059-7.342 2.16c-1.491 0.086-6.366-1.238-6.366-1.238S98.112 200.032 99.795 199.999zM117.008 192.757c6.75-1.818 29.786-3.23 29.786-3.23s-23.791-0.516-30.51 1.725c-2.252 0.752-7.562 5.16-7.562 5.16S114.786 193.354 117.008 192.757z"/><path fill="none" opacity="1" d="M190.858 199.866c-9.741-16.471-29.122-15.142-46.077-18.535 -6.86-1.373-23.153-5.789-23.339-13.488 -0.192-8.066 4.291-40.09 4.291-40.09H74.005c0 0 4.487 32.023 4.294 40.09 -0.184 7.699-16.48 12.115-23.341 13.488 -7.104 1.422-20.125 2.584-26.448 4.6 -6.156 1.963-13.624 3.777-19.632 13.936 -3.644 6.16-6.008 16.133-6.008 27.133h194C196.869 215.999 194.509 206.026 190.858 199.866z" stroke="#c5796d" stroke-width="1.5"/><path fill="url(#gradient-11)" opacity="1" d="M74.767 128.517c0.63 4.561 3.424 25.109 4.058 35.365 4.747 3.863 11.162 7.168 21.177 7.121 9.822 0.046 16.18-3.132 20.899-6.899 0.607-10.183 3.436-30.995 4.069-35.587l0.017-0.113H74.751L74.767 128.517z"/><path fill="#09aac5" opacity="1" d="M190.188 199.647c-9.662-17.92-26.803-14.749-44.614-19.556 -1.348 1.637-13.686 17.468-16.485 25.934 -1.572-1.256-3.449-2.938-4.804-4.477 -6.628-7.46-16.453-31.601-19.75-12.749 0.717-8.463 4.614-10.327 10.025-3.234 5.817 7.633 6.033 11.575 14.333 19.875 1.466-5.831 4.273-10.037 7.966-15.201 3.573-5.005 6.435-8.945 10.566-12.492 -2.261-1.226-4.647-2.217-6.801-3.596 -13.515-8.76-5.435-17.647-17.685-19.764 -0.096 1.058-0.217 2.245-0.317 3.137 2.619 1.29 3.128 6.32-0.905 10.002 -6.41 6.742-14.866 7.077-17.552 17.429l-0.006-0.001c-0.854 3.071-1.539 7.776-1.863 10.533l-4.542 0.389c-1.847-16.224-4.261-17.811-12.157-22.824 -5.231-3.321-12.489-8.335-9.698-14.003 0.318-0.656 0.705-1.059 1.186-1.361 -0.138-1.296-0.22-2.048-0.326-3.251 -12.216 2.312-4.037 11.604-17.651 19.873 -2.06 1.247-4.075 2.097-6.543 3.416 4.879 4.251 16.31 18.506 18.561 27.717 8.378-8.476 8.442-12.181 14.294-19.847 5.04-6.597 9.156-5.921 10.021 3.007 -0.476-2.682-1.603-6.787-4.045-6.787 -2.012 0-4.109 2.844-5.147 4.217 -5.809 7.667-6.742 13.154-15.352 20 -0.596-1.716-1.294-3.438-2.128-5.043 -3.412-6.604-13.291-19.595-14.342-20.887 -4.083 1.102-9.667 1.984-13.408 2.58 -24.442 3.897-33.916 8.81-37.519 44.213 89.639-0.87 126.166-0.49 192.932-0.49C195.594 218.524 193.953 206.642 190.188 199.647z"/><path fill="#141111" opacity="1" d="M95.717 224.342c-3.653 0-6.286-0.061-7.83-0.178 0.466-2.48 1.856-7.125 2.656-9.437 -2.555-3.227-3.274-6.568-3.908-9.518 -0.377-1.754-0.705-3.274-1.361-4.468 0.136-0.077 0.49-0.274 0.49-0.274l-0.063-0.091c-1.685-2.413-3.682-5.039-5.754-6.277l0.34-0.566c1.692-2.82 4.515-7.526 6.942-9.985 4.186 3.168 8.991 9.141 10.865 12.259l0.035 0.057 0.066-0.01c1.296-0.193 2.722-0.309 3.815-0.309 2.926-4.474 7.014-9.048 10.768-12 1.966 1.719 5.101 6.956 6.614 9.487 0.293 0.488 0.517 0.863 0.65 1.074 -2.356 1.583-4.58 4.592-5.434 5.822l-0.054 0.077 0.074 0.059c0.338 0.263 0.988 0.809 1.331 1.15 -0.691 5.103-2.874 10.362-5.725 13.645 0.685 2.18 0.951 4.674 1.32 8.126l0.123 1.141c-0.251 0.003-0.797 0.014-1.564 0.029C107.169 224.216 101.044 224.342 95.717 224.342 95.718 224.342 95.718 224.342 95.717 224.342z"/><path fill="#2C2526" opacity="1" d="M113.911 202.273c-0.201 4.322-1.702 7.874-4.265 12.068 2.646-3.301 5.655-8.274 6.313-13.127 -2.801-2.801-12.774-7.511-23.341-3.521C101.263 195.991 111.48 197.412 113.911 202.273z"/><path fill="#545B8E" opacity="1" d="M143.952 181.126c-2.462 2.676-4.609 5.634-7.094 9.113 -3.192 4.465-5.719 8.218-7.293 12.92 1.813-9.701 7.918-18.479 15.435-25.159 -7.906-1.438-11.68-8.559-13.549-15.792 1.174 3.502 2.683 7.736 9.173 11.943 2.153 1.379 4.54 2.37 6.801 3.596C147.273 177.877 143.952 181.126 143.952 181.126zM186 198c5.681 7.102 8.332 16.221 10.11 25.565 -0.919-7.689-2.586-17.72-5.923-23.918 -9.662-17.92-26.803-14.749-44.614-19.556 -0.158 0.191-0.471 0.584-0.897 1.131C159.32 183.163 176.369 185.48 186 198zM52.575 177.747c2.261-1.226 4.647-2.217 6.801-3.596 6.49-4.207 7.999-8.441 9.173-11.943C66.68 169.441 62.906 176.563 55 178c7.517 6.681 13.621 15.458 15.435 25.159 -1.574-4.702-4.101-8.455-7.293-12.92 -2.484-3.479-4.632-6.438-7.094-9.113C56.048 181.126 52.727 177.877 52.575 177.747zM55.324 181.223c-0.427-0.547-0.739-0.939-0.897-1.131 -17.812 4.807-34.952 1.636-44.614 19.556 -3.337 6.198-5.004 16.229-5.923 23.918C5.668 214.221 8.319 205.102 14 198 23.631 185.48 40.68 183.163 55.324 181.223z"/><path fill="#1fbad4" opacity="1" d="M143.952 181.126c-2.462 2.676-4.609 5.634-7.094 9.113 -3.192 4.465-5.719 8.218-7.293 12.92 1.813-9.701 7.918-18.479 15.435-25.159 -7.906-1.438-11.68-8.559-13.549-15.792 1.174 3.502 2.683 7.736 9.173 11.943 2.153 1.379 4.54 2.37 6.801 3.596C147.273 177.877 143.952 181.126 143.952 181.126zM186 198c5.681 7.102 8.332 16.221 10.11 25.565 -0.919-7.689-2.586-17.72-5.923-23.918 -9.662-17.92-26.803-14.749-44.614-19.556 -0.158 0.191-0.471 0.584-0.897 1.131C159.32 183.163 176.369 185.48 186 198zM52.575 177.747c2.261-1.226 4.647-2.217 6.801-3.596 6.49-4.207 7.999-8.441 9.173-11.943C66.68 169.441 62.906 176.563 55 178c7.517 6.681 13.621 15.458 15.435 25.159 -1.574-4.702-4.101-8.455-7.293-12.92 -2.484-3.479-4.632-6.438-7.094-9.113C56.048 181.126 52.727 177.877 52.575 177.747zM55.324 181.223c-0.427-0.547-0.739-0.939-0.897-1.131 -17.812 4.807-34.952 1.636-44.614 19.556 -3.337 6.198-5.004 16.229-5.923 23.918C5.668 214.221 8.319 205.102 14 198 23.631 185.48 40.68 183.163 55.324 181.223z"/><path fill="#009cb6" opacity="1" d="M118.303 173c-4.485 2.492-8.283 4.938-10.802 8.379 0.979 0.283 3.556 0.964 4.767 2.375 -4.003 3.142-6.432 6.012-9.915 11.611 0.397-3.133 0.558-5.563 1.203-7.858 0.188-0.914 0.39-1.785 0.604-2.553l0.006 0.001c2.686-10.352 11.142-10.687 17.552-17.429 4.033-3.682 3.524-8.712 0.905-10.002 0.101-0.892 0.222-2.079 0.317-3.137 0.672 0.116 1.271 0.257 1.828 0.413C133.028 161.766 123.939 170.584 118.303 173zM80.601 173c4.485 2.492 9.97 5.445 12.482 8.587 -0.979 0.283-4.14 0.756-5.351 2.167 4.551 4.245 7.303 7.188 10.266 11.982 -0.397-3.133-0.908-5.935-1.554-8.229 -0.188-0.914-0.39-1.785-0.604-2.553l-0.006 0.001c-2.686-10.352-11.142-10.687-17.552-17.429 -4.033-3.682-3.524-8.712-0.905-10.002 -0.101-0.892-0.222-2.079-0.317-3.137 -0.672 0.116-1.271 0.257-1.828 0.413C68.311 162.904 75.536 170.056 80.601 173z"/><path fill="#008fa6" opacity="1" d="M123.859 159.785c0.569 2.32-0.34 4.21-1.75 5.82 0.01-1.72 0.16-3.45 0.319-5.15 0.08-0.84 0.171-1.689 0.25-2.529C123.219 158.295 123.639 158.896 123.859 159.785zM77.309 160.815c0.11 1.47 0.24 2.939 0.27 4.41 -1.22-1.53-1.95-3.271-1.44-5.42 0.17-0.74 0.48-1.271 0.89-1.65C77.129 159.045 77.219 159.926 77.309 160.815z"/><path fill="#008197" opacity="1" d="M192.56 200.686c-8.84-20.244-29.707-17.8-46.46-21.05 0.696-0.843 1.549-1.73 1.739-1.9 -2.635-1.86-11.126-5.595-14.239-12.38 -2.229-4.835-1.683-10.37-10.851-11.26 -0.503 2.816-1.225 9.009-1.09 12 -9.604 9.907-19.063 5.479-20.226 29.359l0.779-0.018c0 0 0.221-0.146 0.229-0.215 2.844-23.354 10.041-17.837 19.347-27.627 4.168-3.829 3.449-8.9 0.94-10.13 0.109-0.99 0.21-1.971 0.3-2.961 7.887 1.39 7.203 5.838 9.67 11.271 3.279 7.224 11.345 10.264 14.55 11.99 -4.338 3.729-7.473 8.221-10.939 13.069 -5.453 7.563-6.714 11.421-7.471 14.41 -8.276-8.33-8.281-11.981-14.2-19.74 -6.311-8.277-10.367-3.908-10.289 5.37 0.18-2.319 1.569-10.83 5.51-8.6 4.556 2.544 9.029 13.352 14.35 19.34 1.42 1.611 3.248 3.229 4.93 4.58 2.071-6.931 9.616-16.647 14.271-23.13 0.71-0.98 1.44-1.94 2.2-2.86 6.49 1.69 13.26 2.46 19.83 3.66 23.784 4.36 28.162 17.492 30.88 42.44 -37.937 0.194-79.138-0.603-192.71 0.489 1.646-16.292 4.431-29.61 14.5-36.81 4.32-3.1 9.33-4.72 14.49-5.75 7.19-1.43 14.66-2.17 21.79-4.02 0.83 1.01 1.62 2.05 2.39 3.13 8.804 12.243 11.1 14.931 14.07 22.85 10.018-7.514 14.024-21.616 19.54-24.05 3.84-1.69 5.08 6.42 5.26 8.729 0.075-9.841-4.519-15.681-13.81-0.22 -4.578 7.621-5.792 9.687-10.66 14.59 -1.955-7.948-12.36-22.256-18.44-27.5 3.772-2.028 10.592-4.438 14.24-11.3 2.409-4.707 1.339-10.294 9.69-11.89 0.09 1.029 0.2 2.05 0.31 3.08 -2.287 1.441-2.683 6.284 0.97 9.67 3.29 3.609 7.75 5.67 11.67 8.55 4.621 3.419 6.449 6.918 7.92 19.15 0.032 0.267 0.375 0.777 0.375 0.777l0.643-0.083c-0.379-8.482-1.601-15.681-6.567-19.825 -4.29-3.668-10.305-6.005-13.94-10.1 0.11-3.072-0.706-9.294-1.1-11.64 -8.308 0.811-8.378 5.859-10.14 10.279 -2.667 6.687-9.6 10.256-14.65 13.311 0.335 0.333 1.129 1.187 1.74 1.91 -6.99 1.369-14.23 1.76-21.24 2.989 -10.46 1.83-20.33 7.12-24.83 17.19 -3.418 7.642-4.409 18.603-4.66 26.99 -0.01 0.06-0.01 0.13-0.01 0.189 0.14 0.01 0.29 0.01 0.43 0.01 120.323 1.226 192.229-0.51 193.23-0.51C196.819 225.494 196.378 209.429 192.56 200.686zM122.109 165.605c0.015-2.591 0.373-5.593 0.569-7.68C124.151 158.933 125.021 162.281 122.109 165.605zM77.579 165.226c-2.446-3.068-1.66-6.042-0.55-7.07C77.261 160.228 77.537 163.13 77.579 165.226z"/><path fill="#f3d4cf" opacity="1" d="M46.778 83.745c-2.623-1.422-8.575-8.182-11.138-7.219 -1.655 0.62-2.377 5.286-2.638 7.174 -0.333 2.425-0.929 7.405-0.328 9.781 0.725 2.866 3.631 8.169 5.37 10.589 1.468 2.039 5.211 5.568 6.407 7.769 0.759 1.396 1.493 5.159 4.083 4.916 1.674-0.157 5.537-2.95 5.744-4.274C55.406 105.296 51.943 86.543 46.778 83.745z" stroke="#c5796d" stroke-width="1.5"/><path fill="#c5796d" opacity="1" d="M43.313 99.25c-0.125-0.534 0.006-1.432 0.133-2.3 0.115-0.791 0.224-1.538 0.158-2.066 -0.251-1.978-1.66-5.737-2.578-7.775 -1.059-2.343-2.771-5.296-4.919-6.057 -0.888-0.316-1.473 0.061-1.813 0.443 -0.248 0.281-0.305 0.61-0.223 0.649 0.082 0.039 0.266-0.234 0.535-0.491 0.219-0.21 0.542-0.391 0.983-0.354 -0.178 0.985-1.091 6.32-0.696 9.957 0.311 2.86 1.489 4.996 1.673 5.316 0.028 0.337 0.073 0.667 0.139 0.987 0.869 4.175 4.648 8.921 5.963 10.476 0.243 0.285 0.496 0.456 0.56 0.388 0.062-0.07-0.087-0.354-0.33-0.642 -1.298-1.545-5.042-6.274-5.879-10.302 -0.89-4.273 2.167-10.609 2.849-11.949 0.348 0.629 0.643 1.234 0.87 1.737 0.179 0.396 0.378 0.858 0.581 1.358 -0.402 0.699-3.211 5.802-2.187 9.886 0.38 1.505 2.088 3.447 3.223 3.979 0.624 0.293 0.859 0.731 1.13 1.237 0.314 0.589 0.673 1.255 1.708 1.738 0.211 0.097 0.402 0.138 0.571 0.138 0.293 0 0.515-0.122 0.679-0.271 0.017 0.258 0.016 0.588 0.007 0.893 -0.01 0.395 0.041 0.717 0.129 0.725s0.182-0.305 0.192-0.696c0.016-0.483 0.013-1.081-0.067-1.367 -0.232-0.842-0.942-1.792-1.694-2.798C44.27 101.098 43.504 100.074 43.313 99.25zM36.538 95.548c-2.035-6.554 0-12.573 0.458-13.472 0.795 0.754 2.108 2.125 2.679 3.111C39.258 85.976 36.623 91.14 36.538 95.548zM45.318 105.137c-0.938-0.438-1.253-1.024-1.557-1.591 -0.275-0.514-0.56-1.044-1.281-1.383 -0.157-0.074-0.33-0.186-0.505-0.314 -2.324-5.75 0.254-8.264 0.899-8.779 0.199 0.703 0.346 1.348 0.411 1.865 0.061 0.475-0.05 1.229-0.156 1.959 -0.132 0.904-0.268 1.839-0.127 2.445 0.211 0.902 0.999 1.957 1.76 2.977 0.677 0.905 1.373 1.839 1.609 2.601C46.271 105.067 45.949 105.43 45.318 105.137z"/><path fill="#f3d4cf" opacity="1" d="M152.961 83.745c2.623-1.422 8.574-8.182 11.137-7.219 1.656 0.62 2.379 5.286 2.639 7.174 0.334 2.425 0.928 7.405 0.328 9.781 -0.725 2.866-3.631 8.169-5.371 10.589 -1.467 2.039-5.211 5.568-6.406 7.769 -0.76 1.396-1.492 5.159-4.084 4.916 -1.674-0.157-5.535-2.95-5.744-4.274C144.332 105.296 147.795 86.543 152.961 83.745z" stroke="#c5796d" stroke-width="1.5"/><path fill="#c5796d" opacity="1" d="M154.729 102.088c-0.752 1.006-1.463 1.957-1.695 2.798 -0.078 0.286-0.082 0.884-0.066 1.367 0.012 0.392 0.105 0.704 0.193 0.696s0.139-0.33 0.129-0.725c-0.01-0.305-0.01-0.635 0.006-0.893 0.164 0.148 0.387 0.271 0.68 0.271 0.168 0 0.359-0.041 0.57-0.138 1.035-0.483 1.395-1.149 1.709-1.738 0.271-0.506 0.506-0.943 1.131-1.237 1.133-0.532 2.842-2.473 3.223-3.979 1.023-4.084-1.785-9.187-2.188-9.886 0.203-0.5 0.402-0.962 0.582-1.358 0.225-0.503 0.521-1.108 0.869-1.737 0.682 1.34 3.738 7.676 2.848 11.949 -0.838 4.028-4.582 8.757-5.879 10.302 -0.242 0.288-0.393 0.571-0.33 0.642 0.064 0.068 0.318-0.103 0.561-0.388 1.314-1.555 5.094-6.301 5.963-10.476 0.066-0.32 0.111-0.65 0.139-0.987 0.184-0.32 1.363-2.457 1.674-5.316 0.395-3.637-0.518-8.972-0.695-9.957 0.441-0.038 0.764 0.143 0.982 0.354 0.268 0.257 0.453 0.53 0.535 0.491 0.08-0.039 0.023-0.369-0.223-0.649 -0.342-0.382-0.926-0.759-1.813-0.443 -2.148 0.761-3.861 3.713-4.92 6.057 -0.92 2.038-2.326 5.797-2.578 7.775 -0.066 0.528 0.043 1.275 0.158 2.066 0.127 0.868 0.256 1.766 0.133 2.3C156.234 100.074 155.469 101.098 154.729 102.088zM160.064 85.187c0.57-0.986 1.883-2.357 2.678-3.111 0.457 0.899 2.494 6.918 0.459 13.472C163.115 91.14 160.48 85.976 160.064 85.187zM153.367 104.916c0.236-0.762 0.932-1.695 1.609-2.601 0.762-1.02 1.549-2.075 1.76-2.977 0.141-0.606 0.006-1.541-0.127-2.445 -0.105-0.73-0.217-1.485-0.156-1.959 0.066-0.517 0.213-1.162 0.412-1.865 0.645 0.515 3.223 3.029 0.898 8.779 -0.176 0.129-0.348 0.241-0.504 0.314 -0.723 0.339-1.008 0.869-1.281 1.383 -0.305 0.567-0.619 1.154-1.559 1.591C153.789 105.43 153.467 105.067 153.367 104.916z"/><path fill="#f3d4cf" opacity="1" d="M100.002 0.867C66.384 0.919 39.082 28.09 39.134 61.564c0.008 5.316 0.704 10.471 2.002 15.382h0.001C41.15 77 52.68 114.915 55.158 127.369c1.382 6.945 9.063 15.403 16.531 20.513 6.967 4.767 11.263 11.388 28.313 11.388s21.346-6.621 28.313-11.388c7.468-5.109 15.149-13.567 16.531-20.513 2.479-12.454 14.009-50.37 14.02-50.423h0.002c1.298-4.911 1.994-10.066 2.002-15.382C160.923 28.09 133.62 0.919 100.002 0.867z"/><path fill="#ebc3bd" opacity="1" d="M146.772 22.738c7.478 10.183 11.917 22.87 11.898 36.626 -0.009 5.316-0.679 10.471-1.93 15.382h-0.002c-0.011 0.053-11.124 37.969-13.512 50.423 -1.335 6.945-8.737 15.403-15.935 20.513 -6.718 4.767-10.854 11.388-27.291 11.388 -16.434 0-20.575-6.621-27.291-11.388 -7.197-5.109-14.602-13.567-15.931-20.513 -2.391-12.454-13.504-50.37-13.515-50.423h0c-1.252-4.911-1.922-10.066-1.931-15.382 -0.021-13.752 4.416-26.435 11.889-36.617 -8.812 10.525-14.112 24.056-14.089 38.817 0.008 5.316 0.704 10.471 2.002 15.382h0.001C41.15 77 52.68 114.915 55.158 127.369c1.382 6.945 9.063 15.403 16.531 20.513 6.967 4.767 11.263 11.388 28.313 11.388s21.346-6.621 28.313-11.388c7.468-5.109 15.149-13.567 16.531-20.513 2.479-12.454 14.009-50.37 14.02-50.423h0.002c1.298-4.911 1.994-10.066 2.002-15.382C160.894 46.799 155.589 33.264 146.772 22.738z"/><path fill="none" opacity="1" d="M100.002 0.867C66.384 0.919 39.082 28.09 39.134 61.564c0.008 5.316 0.704 10.471 2.002 15.382h0.001C41.15 77 52.68 114.915 55.158 127.369c1.382 6.945 9.063 15.403 16.531 20.513 6.967 4.767 11.263 11.388 28.313 11.388s21.346-6.621 28.313-11.388c7.468-5.109 15.149-13.567 16.531-20.513 2.479-12.454 14.009-50.37 14.02-50.423h0.002c1.298-4.911 1.994-10.066 2.002-15.382C160.923 28.09 133.62 0.919 100.002 0.867z" stroke="#c5796d" stroke-width="1.5"/><path fill="url(#gradient-135)" opacity="1" d="M100.263 141.54c-4.719-0.009-6.612-4.209-6.612-4.209 5.683 2.58 12.793 0.279 12.793 0.279S105.001 141.549 100.263 141.54z"/><path fill="#f771a9" opacity="1" d="M84.579 130.51c2.964-0.119 8.822-0.646 10.971-0.483 1.11 0.083 2.931 1.055 4.128 1.386 0.833 0.232 3.999-0.863 4.85-0.868 2.231-0.017 7.069 1.347 9.668 1.884 0.144 0.029 0 0 0 0s-6.394 6.945-14.582 6.487C90.345 138.398 84.579 130.51 84.579 130.51S84.431 130.515 84.579 130.51z" stroke="#e85391" stroke-width="0.75"/><path fill="#c92066" opacity="1" d="M114.438 132.221c-0.069-0.135-0.53-0.26-0.702-0.234 -0.31 0.047-0.533 0.41-1.182 0.484 -0.752 0.088-4.73 0.86-5.815 0.826 -2.183-0.069-4.689 0.593-6.774 0.477 -2.085-0.117-5.367-1.225-7.536-1.421 -1.078-0.097-5.5-1.407-6.232-1.592 -0.631-0.159-0.681-0.533-0.935-0.642 -0.178-0.076-0.691-0.023-0.83 0.097 -0.119 0.104-0.083 0.588 0.001 0.72 0.206 0.321 0.969 0.462 1.527 0.601 0.773 0.195 5.261 1.52 6.369 1.62 2.147 0.196 5.472 1.376 7.575 1.493 2.103 0.118 4.657-0.62 6.818-0.551 1.112 0.037 5.147-0.737 5.943-0.829 0.575-0.066 1.292-0.189 1.557-0.422C114.349 132.735 114.509 132.359 114.438 132.221z"/><path fill="#ff8ebd" opacity="1" d="M99.704 137.573c-3.663-0.204-9.44-2.02-11.651-4.388 1.353 0.208 4.28 0.509 5.624 0.734 1.657 0.279 3.953 1.059 5.642 1.258 1.824 0.215 4.317-0.25 6.098-0.446 1.485-0.162 3.788-0.698 5.271-0.758C108.192 135.866 103.241 137.77 99.704 137.573zM105.648 132.674c1.33-0.085 3.404-0.664 4.729-0.713 -1.492-0.52-3.736-0.521-5.32-0.737 -1.366-0.184-3.451 0.729-4.804 0.85 -1.527 0.138-3.341-1.272-4.761-1.408 -1.542-0.146-4.761 0.299-6.273 0.641 1.292 0.177 4.103 0.455 5.375 0.718 1.559 0.321 3.797 1.021 5.416 1.111C101.665 133.227 104.008 132.781 105.648 132.674z"/><path fill="#ffa8cc" opacity="1" d="M99.711 136.739c-2.181-0.124-5.804-1.12-7.369-2.499 0.401 0.025 1.565 0.154 1.95 0.201 0.122 0.016 0.243 0.032 0.363 0.053 0.629 0.104 1.237 0.32 1.886 0.543 0.63 0.219 2.061 0.496 2.764 0.588 0.138 0.02 0.277 0.029 0.416 0.037 0.867 0.05 2.478-0.064 3.274-0.223 0.505-0.1 0.98-0.203 1.469-0.262 0.267-0.033 0.555-0.049 0.881-0.051 0.28-0.003 0.572 0.005 0.861 0.018C104.739 136.09 101.957 136.865 99.711 136.739z"/><path fill="#c5796d" opacity="1" d="M82.599 131.485c0 0-0.561-1.254-0.482-1.724 0.11-0.655 1.521-1.956 1.521-1.956s-0.854 1.497-0.986 1.969C82.523 130.231 82.599 131.485 82.599 131.485z"/><path fill="url(#gradient-40)" opacity="1" d="M85.618 82.31c1.058 1.746 1.655 3.774 1.655 5.951 0 4.038-1.566 7.631-4.81 9.737 -5.597 2.813-10.555 2.056-14.896-0.755l0.617 0.784h-0.005c-3.848-2.36-6.381-6.573-6.39-10.875C65.483 75.15 77.953 73.572 85.618 82.31z"/><path fill="url(#gradient-41)" opacity="1" d="M114.382 82.31c-1.058 1.746-1.655 3.774-1.655 5.951 0 4.038 1.566 7.631 4.81 9.737 5.597 2.813 10.555 2.056 14.896-0.755l-0.617 0.784h0.005c3.848-2.36 6.381-6.573 6.39-10.875C134.517 75.15 122.047 73.572 114.382 82.31z"/><path fill="#4e60a3" opacity="1" d="M83.199 89.25c-1.231 4.522-5.896 7.187-10.429 5.944 -4.528-1.241-7.203-5.918-5.97-10.442 1.23-4.526 5.905-7.19 10.434-5.947C81.761 80.045 84.433 84.723 83.199 89.25z" stroke="#152975" stroke-width="0.5"/><path fill="#6777b2" opacity="1" d="M82.994 87.526c-0.625 5.021-4.353 7.638-8.432 7.365 -3.765-0.253-7.131-3.031-7.443-7.828 1.302-0.374 3.031 0.234 4.549 0.002 -0.005 0.055-0.023 0.104-0.025 0.16 -0.12 1.842 1.357 3.446 3.299 3.577 1.946 0.13 3.62-1.263 3.74-3.104 0.013-0.24-0.002-0.476-0.038-0.702C79.997 87.2 81.648 86.999 82.994 87.526z"/><path fill="#000000" opacity="0.9" d="M76.229 84.164c-1.869-0.535-3.777 0.533-4.26 2.396 -0.483 1.853 0.642 3.793 2.51 4.329 1.873 0.537 3.781-0.532 4.266-2.386C79.23 86.639 78.101 84.7 76.229 84.164z"/><path fill="none" opacity="1" d="M76.229 84.164c-1.869-0.535-3.777 0.533-4.26 2.396 -0.483 1.853 0.642 3.793 2.51 4.329 1.873 0.537 3.781-0.532 4.266-2.386C79.23 86.639 78.101 84.7 76.229 84.164z" stroke="#152975" stroke-width="0.75"/><path fill="#ffffff" opacity="0.5" d="M70.977 92.181c-0.177 0.619-1.142 0.356-0.965-0.266 0.171-0.6 0.633-0.967 0.926-1.495 0.313-0.564 1.177-0.06 0.863 0.505C71.56 91.36 71.114 91.696 70.977 92.181L70.977 92.181zM72.516 91.194c-0.266 0.31-0.614 1.458-0.766 1.834 -0.241 0.598 0.727 0.856 0.965 0.266 0.082-0.205 0.362-1.223 0.508-1.393C73.64 91.415 72.936 90.704 72.516 91.194L72.516 91.194zM74.598 94.151c0.522-0.602 0.47-1.292 0.459-2.041 -0.01-0.644-1.01-0.645-1 0 0.006 0.415 0.13 0.992-0.166 1.334C73.47 93.929 74.175 94.639 74.598 94.151L74.598 94.151zM75.619 91.985c0.008 0.621 0.084 1.226 0.268 1.82 0.19 0.614 1.155 0.352 0.965-0.266 -0.159-0.513-0.226-1.019-0.232-1.555C76.611 91.341 75.611 91.34 75.619 91.985L75.619 91.985z"/><path fill="#ffffff" opacity="0.8" d="M80.946 85.543c-0.985 0.59-2.466 0.059-3.305-1.188 -0.838-1.248-0.713-2.739 0.273-3.328 0.984-0.593 2.467-0.061 3.301 1.187C82.053 83.462 81.932 84.952 80.946 85.543z"/><path fill="#4e60a3" opacity="1" d="M133.199 89.25c-1.231 4.522-5.896 7.187-10.429 5.944 -4.528-1.241-7.203-5.918-5.97-10.442 1.23-4.526 5.905-7.19 10.434-5.947C131.761 80.045 134.433 84.723 133.199 89.25z" stroke="#152975" stroke-width="0.5"/><path fill="#6777b2" opacity="1" d="M132.994 87.526c-0.625 5.021-4.353 7.638-8.432 7.365 -3.765-0.253-7.131-3.031-7.443-7.828 1.302-0.374 3.031 0.234 4.549 0.002 -0.005 0.055-0.023 0.104-0.025 0.16 -0.12 1.842 1.357 3.446 3.299 3.577 1.946 0.13 3.62-1.263 3.74-3.104 0.013-0.24-0.002-0.476-0.038-0.702C129.997 87.2 131.648 86.999 132.994 87.526z"/><path fill="#000000" opacity="0.9" d="M126.229 84.164c-1.869-0.535-3.777 0.533-4.26 2.396 -0.483 1.853 0.642 3.793 2.51 4.329 1.873 0.537 3.781-0.532 4.266-2.386C129.23 86.639 128.101 84.7 126.229 84.164z"/><path fill="none" opacity="1" d="M126.229 84.164c-1.869-0.535-3.777 0.533-4.26 2.396 -0.483 1.853 0.642 3.793 2.51 4.329 1.873 0.537 3.781-0.532 4.266-2.386C129.23 86.639 128.101 84.7 126.229 84.164z" stroke="#152975" stroke-width="0.75"/><path fill="#ffffff" opacity="0.5" d="M120.977 92.181c-0.177 0.619-1.142 0.356-0.965-0.266 0.171-0.6 0.633-0.967 0.926-1.495 0.313-0.564 1.177-0.06 0.863 0.505C121.56 91.36 121.114 91.696 120.977 92.181L120.977 92.181zM122.516 91.194c-0.266 0.31-0.614 1.458-0.766 1.834 -0.241 0.598 0.727 0.856 0.965 0.266 0.082-0.205 0.362-1.223 0.508-1.393C123.64 91.415 122.936 90.704 122.516 91.194L122.516 91.194zM124.598 94.151c0.522-0.602 0.47-1.292 0.459-2.041 -0.01-0.644-1.01-0.645-1 0 0.006 0.415 0.13 0.992-0.166 1.334C123.47 93.929 124.175 94.639 124.598 94.151L124.598 94.151zM125.619 91.985c0.008 0.621 0.084 1.226 0.268 1.82 0.19 0.614 1.155 0.352 0.965-0.266 -0.159-0.513-0.226-1.019-0.232-1.555C126.611 91.341 125.611 91.34 125.619 91.985L125.619 91.985z"/><path fill="#ffffff" opacity="0.8" d="M130.946 85.543c-0.985 0.59-2.466 0.059-3.305-1.188 -0.839-1.248-0.714-2.739 0.272-3.328 0.984-0.593 2.467-0.061 3.301 1.187C132.054 83.462 131.932 84.952 130.946 85.543z"/><path fill="#f3d4cf" opacity="1" d="M57 88c0 13.808 8.06 24.999 18 24.999S93 101.808 93 88c0-13.809-8.06-25.001-18-25.001S57 74.191 57 88zM64.915 91.992c-4.223-8.709-1.512-11.9 1.11-11.888 9.208 0.042 15.785 3.133 22.428 9.178 0.138 0.863-0.601 2.567-1.775 2.992 -3.086 0.59-6.199 1.063-9.317 1.41 -7.733 0.859-10.43 0.213-11.361-0.277 -0.518-0.419-0.859-0.95-1.203-1.577C64.835 91.882 64.876 91.939 64.915 91.992z"/><path fill="url(#gradient-86)" opacity="1" d="M59.888 86.375c0.023 7.713 7.896 13.931 17.596 13.89 9.696-0.043 17.541-6.328 17.516-14.041 -0.023-7.714-7.898-13.933-17.598-13.892C67.704 72.376 59.863 78.66 59.888 86.375zM64.915 91.992c-4.223-8.709-1.512-11.9 1.11-11.888 9.208 0.042 15.785 3.133 22.428 9.178 0.138 0.863-0.601 2.567-1.775 2.992 -3.086 0.59-6.199 1.063-9.317 1.41 -7.733 0.859-10.43 0.213-11.361-0.277 -0.518-0.419-0.859-0.95-1.203-1.577C64.835 91.882 64.876 91.939 64.915 91.992z"/><path fill="url(#gradient-87)" opacity="1" d="M88.453 89.282c0.138 0.863-0.601 2.567-1.775 2.992 -3.086 0.59-6.199 1.063-9.317 1.41 -7.733 0.859-10.43 0.213-11.361-0.277 -0.518-0.419-0.859-0.95-1.203-1.577 0.039 0.053 0.08 0.11 0.119 0.163 -3.392-6.996-2.308-10.426-0.392-11.5 0.685-0.148 1.378-0.271 2.079-0.373C75.507 80.287 81.952 83.366 88.453 89.282z"/><path fill="#c5796d" opacity="1" d="M89.364 86.486c-4.879-4.498-11.941-7.793-18.25-9.692 -5.849-1.761-10.449-2.086-18.501-1.266 6.934-0.149 12.094-0.277 18.777 1.841C77.733 79.379 83.972 82.54 89.364 86.486z"/><path fill="#000000" opacity="1" d="M88.584 89.314c-6.688-5.901-13.29-8.915-22.559-8.956 -2.622-0.012-5.333 3.063-1.11 11.455 -2.768-3.59-5.786-8.89-13.915-15.427 4.148 0.993 4.8 0.884 7.131 1.154 -1.786-0.744-3.408-2.237-6.61-4.595 5.178 2.897 7.519 3.967 11.008 5.117 -2.017-1.082-3.605-2.437-5.952-4.387 3.634 2.102 5.978 3.468 8.785 4.61l-2.088-2.608c1.557 1.413 3.101 2.689 4.26 3.205 9.479 0.908 16.21 4.665 21.324 10.109C89.249 89.407 89.012 89.691 88.584 89.314zM65.516 92.776c1.329 2.274 8.103 1.813 10.736 1.609 1.092-0.132 10.735-1.593 10.735-2.268 -0.005-0.027-0.011-0.054-0.017-0.081 -3.182 0.594-6.393 1.063-9.61 1.407C66.093 94.65 65.516 92.776 65.516 92.776z"/><path fill="#f3d4cf" opacity="1" d="M125 62.999c-9.94 0-18 11.193-18 25.001 0 13.808 8.06 24.999 18 24.999S143 101.808 143 88C143 74.191 134.94 62.999 125 62.999zM135.204 91.829c-0.344 0.627-0.686 1.158-1.203 1.577 -0.932 0.491-3.628 1.137-11.361 0.277 -3.118-0.347-6.231-0.82-9.317-1.41 -1.175-0.425-1.913-2.129-1.775-2.992 6.643-6.044 13.22-9.136 22.428-9.178 2.622-0.012 5.333 3.179 1.11 11.888C135.124 91.939 135.165 91.882 135.204 91.829z"/><path fill="url(#gradient-88)" opacity="1" d="M122.599 72.333c-9.699-0.042-17.574 6.177-17.598 13.892 -0.025 7.713 7.819 13.998 17.516 14.041 9.7 0.041 17.572-6.177 17.596-13.89C140.137 78.66 132.296 72.376 122.599 72.333zM135.204 91.829c-0.344 0.627-0.686 1.158-1.203 1.577 -0.932 0.491-3.628 1.137-11.361 0.277 -3.118-0.347-6.231-0.82-9.317-1.41 -1.175-0.425-1.913-2.129-1.775-2.992 6.643-6.044 13.22-9.136 22.428-9.178 2.622-0.012 5.333 3.179 1.11 11.888C135.124 91.939 135.165 91.882 135.204 91.829z"/><path fill="url(#gradient-89)" opacity="1" d="M111.547 89.282c-0.138 0.863 0.601 2.567 1.775 2.992 3.086 0.59 6.199 1.063 9.317 1.41 7.733 0.859 10.43 0.213 11.361-0.277 0.518-0.419 0.859-0.95 1.203-1.577 -0.039 0.053-0.08 0.11-0.119 0.163 3.392-6.996 2.308-10.426 0.392-11.5 -0.685-0.148-1.378-0.271-2.079-0.373C124.493 80.287 118.048 83.366 111.547 89.282z"/><path fill="#c5796d" opacity="1" d="M110.636 86.486c4.879-4.498 11.941-7.793 18.25-9.692 5.849-1.761 10.449-2.086 18.501-1.266 -6.934-0.149-12.094-0.277-18.777 1.841C122.267 79.379 116.028 82.54 110.636 86.486z"/><path fill="#000000" opacity="1" d="M111.143 88.992c5.114-5.444 11.846-9.201 21.324-10.109 1.159-0.516 2.703-1.792 4.26-3.205l-2.088 2.608c2.808-1.142 5.151-2.509 8.785-4.61 -2.347 1.951-3.936 3.306-5.952 4.387 3.489-1.15 5.83-2.219 11.008-5.117 -3.202 2.358-4.824 3.851-6.61 4.595 2.331-0.27 2.982-0.161 7.131-1.154 -8.129 6.537-11.147 11.837-13.915 15.427 4.223-8.392 1.512-11.467-1.11-11.455 -9.269 0.041-15.87 3.055-22.559 8.956C110.988 89.691 110.751 89.407 111.143 88.992zM122.64 93.444c-3.218-0.345-6.429-0.813-9.61-1.407 -0.006 0.027-0.012 0.054-0.017 0.081 0 0.675 9.644 2.136 10.735 2.268 2.634 0.205 9.407 0.666 10.736-1.609C134.484 92.776 133.907 94.65 122.64 93.444z"/><path fill="url(#gradient-18)" opacity="1" d="M140.204 113.007c0.035 22.275-17.995 40.365-40.273 40.396 -22.274 0.036-40.361-17.993-40.396-40.272C59.501 90.857 77.53 72.77 99.808 72.735 122.083 72.701 140.171 90.73 140.204 113.007z"/><path fill="url(#gradient-19)" opacity="1" d="M135,55.999c0,19.329-15.671,35-35,35c-19.329,0-35-15.671-35-35s15.671-35,35-35C119.329,20.999,135,36.67,135,55.999z"/><path fill="#2a232b" opacity="1" d="M54 73.189c9.954-9.974 16.761-4.714 30.589-2.063 0.845 0.162 6.32 0.337 5.31 2.268 -0.483 0.924-2.036 0.814-2.903 0.798C73.308 73.936 66.652 64.197 54 73.189z"/><path fill="#2a232b" opacity="1" d="M144.519 73.494c-12.071-9.095-19.137 0.037-31.727 0.388 -4.076 0.116-3.813-2.101-2.078-2.451 2.014-0.407 2.563 0.033 8.451-1.382C130.507 67.324 136.346 64.828 144.519 73.494z"/><path fill="#e4b3ab" opacity="1" d="M97.363 92.602c0 0 0.055 7.962-0.458 9.512 -1.129 3.405-6.123 11.297-5.49 13.486 0.985 3.403 5.817 3.652 8.259 3.771 2.338 0.115 7.091-0.055 7.857-2.267 0.312-0.9-0.361-3.197-0.361-3.197s-2.165 2.228-7.266 1.98c-1.456-0.07-3.824-1.5-3.851-3.517 -0.036-2.734 1.805-5.87 2.135-8.583C98.438 101.726 97.363 92.602 97.363 92.602z"/><path fill="#c5796d" opacity="1" d="M104.209 117.032c0.881 0 1.119 0.234 1.119 0.522 0 0.29-0.274 0.735-1.119 0.522 -0.928-0.231-2.548-0.124-2.548-0.124S103.328 117.032 104.209 117.032zM95.8 117.032c-0.881 0.001-1.119 0.236-1.119 0.525 0 0.288 0.265 0.704 1.119 0.521 0.941-0.201 2.548-0.125 2.548-0.125S96.682 117.035 95.8 117.032zM107.169 113.906c0 0 1.22 1.384 0.966 2.847 -0.246 1.421-2.709 2.047-2.709 2.047s1.71-1.085 1.917-2.403C107.439 115.781 107.169 113.906 107.169 113.906zM92.12 112.482c0 0-0.89 1.938-0.632 3.117 0.467 2.13 3.032 2.982 3.032 2.982s-1.601-1.462-2.17-2.753C91.729 114.42 92.12 112.482 92.12 112.482z"/><path fill="#fff4f3" opacity="1" d="M104.166 114.937c0.854-0.637 0.939-1 0.763-1.237 -0.176-0.238-0.688-0.389-1.403 0.379 -0.788 0.846-2.502 1.47-2.502 1.47S103.312 115.574 104.166 114.937z"/><path fill="#2a232b" opacity="1" d="M135.453 136.583c4.073-9.43 7.262-21.972 9.477-37.279 0.067-0.451 0.117-0.808 0.156-1.061 0.992-6.489 0.009-15.862-4.491-21.104l-0.209-0.244 1.063-0.289c-0.539 0.124-1.096 0.247-1.669 0.366 -3.895 0.812-7.551 1.224-10.876 1.224 -8.797 0-15.616-2.829-20.263-8.409 -2.884-3.464-4.68-11.368-6.582-19.735 -2.544-11.194-5.175-22.769-10.662-26.053 -1.272-0.758-2.77-1.193-4.105-1.193 -1.154 0-2.151 0.307-2.96 0.912C80.825 26.344 81.281 34 82.011 37.903c-6.661-4.193-11.245-3.647-14.132-1.808 -5.428 3.459-8.168 11.845-9.025 21.554 -0.647 7.344-1.381 15.668-4.235 23.526 -3.619 9.945 0.764 1.836 0.764 1.836l0.112 0.573c2.247 11.564 3.201 20.767 2.542 28.887 -0.72 8.862-0.989 15.863 2.911 22.094l0.237 0.378 -0.427-0.071c-7.892-1.313-24.733-9.192-26.417-25.176l-0.051-0.488 0.363 0.313c0.315 0.271 2.397 1.733 4.077 2.905 -8.249-8.001-12.972-15.939-12.972-30.242l0.361-0.091c0.516 1.047 1.169 2.106 1.751 2.979 -3.586-8.104-3.808-18.838-2.478-23.624l0.124-0.445 0.225 0.399c0.955 1.693 2.194 3.886 3.725 5.646 -6.986-11.897-4.496-23.937 0.998-30.318l0.298-0.345 0.036 0.463c0.138 1.79 0.315 4.052 1.052 5.933 -1.572-6.165-0.748-20.448 12.067-29.989l0.496-0.37 -0.206 0.6c-0.432 1.264-0.861 2.679-0.954 3.958 3.524-8.109 9.525-11.792 17.405-14.465l0.453-0.153 -0.225 0.438c-0.544 1.061-1.988 3.876-1.5 5.569 0.003-0.282 0.051-0.613 0.159-1.001C60.68 3.291 67.8-4.195 76.029-4.195h0.348l-0.186 0.308c-0.233 0.382-0.436 0.783-0.606 1.2 2.336-3.445 6.864-5.813 11.42-5.813 2.583 0 4.913 0.759 6.735 2.196l0.227 0.179 -0.244 0.152c-1.506 0.943-2.912 2.001-4.195 3.053 5.901-3.859 10.306-6.315 16.26-6.315 3.459 0 7.326 0.824 12.176 2.592 14.423 5.252 24.526 7.891 28.151 20.928 -0.557-1.779-1.009-1.875-2.27-4.387l-0.214-0.425 0.44 0.142c16.21 5.222 16.52 13.536 16.745 21.066 0.017 0.563 0.033 1.115 0.056 1.651 0.056-0.743 0.12-1.481 0.187-2.209 0.125-1.394 0.255-2.836 0.29-4.253l0.01-0.353 0.285 0.189c2.37 1.573 10.314 12.614 12.4 25.004 1.406 8.331 0.191 12.962-0.979 17.442 -0.246 0.938-0.496 1.892-0.723 2.884 0.282-0.947 0.574-1.869 0.88-2.777l0.147-0.44 0.203 0.416c8.769 17.928 1.639 25.74-4.09 32.018 -0.592 0.648-1.17 1.282-1.713 1.907 1.346-1.315 2.674-2.543 3.867-3.634l0.306-0.279 0.013 0.424c0.222 7.91-5.008 11.922-9.624 15.462 -2.078 1.594-4.063 3.116-5.325 4.851 1.519-1.341 3.349-2.649 5.654-4.049l0.402-0.242 -0.12 0.466c-1.854 7.306-9.894 11.861-23.215 19.408 -1.289 0.729-4.51 2.563-4.51 2.563L135.453 136.583z"/><path fill="#1b141c" opacity="1" d="M140.595 77.138c-18.193 3.675-29.7 1.541-36.476-13.193 -3.777-30.062-8.219-39.376-16.828-41.14C113.185 25.574 94.168 79.888 140.595 77.138zM140.595 77.138c9.312 14.194-0.924 49.657-5.376 59.989C149.215 110.903 159.604 81.384 140.595 77.138zM76 34c-11-4-17 6-19 15 -2.18 13.077-0.38 31.068-17 52 12.198-10.494 16.776-14.285 20.089-43.505 1.098-9.685 2.362-17.94 7.79-21.399 2.514-1.602 6.315-2.22 11.652 0.414C78.539 34.84 76.646 34 76 34zM58.505 111.733c0.612-7.55 0.017-16.946-3.195-28.105 -0.783 18.777-8.53 30.985 4.649 49.982 0.188 0.073 0.375 0.147 0.563 0.219C57.105 127.782 57.814 120.249 58.505 111.733z"/><path fill="#0c080c" opacity="1" d="M145.324 58.292c-0.047-0.001-0.045 0 0.128 0.007 -22.872-0.234-30.695-9.824-34.782-22.714 -7.638-24.12-29.693-24.206-33.143-8.625 3.043-18.274 28.903-14.735 35.651 7.876C118.056 51.152 130.186 57.602 145.324 58.292zM143.106 16.533C126.913-8.439 75.532 3.522 73.752 23.993 74.334 1.445 126.233-11.253 143.106 16.533zM76.913 31.942c-1.056-1.893-4.586-6.564-11.645-4.432C35.254 36.578 47.72 78.588 31.98 95.961c11.476-14.691 0.321-59.338 32.529-69.053C69.394 25.434 74.831 27.185 76.913 31.942zM76.915 22.284c2.541-10.911 16.292-16.115 26.676-14.975 12.555 1.378 15.997 14.619 21.2 20.917 8.055 9.752 17.439 10.502 27.63 8.976 -1.863 0.279-14.891 5.226-27.305-5.945 -9.141-8.23-8.852-18.521-21.154-22.038C97.229 7.295 80.559 10.274 76.915 22.284zM155.196 90.875c0.313-0.373 0.79-0.663 1.149-0.99 12.229-11.132 8.885-32.389 1.794-37.559C164.268 58.415 166.035 77.955 155.196 90.875zM161.098 100.625c-3.946 4.501-9.933 12.873-9.688 13.873 -0.295-1.215 9.346-10.466 10.222-11.625 4.784-6.33 7-12.439 4.996-18.441C167.539 90.212 167.093 93.787 161.098 100.625zM55.378 16.227c-14.68 3.301-12.107 23.189-12.345 24.189 0.238-1 0.325-20.632 15.298-22.799 -0.077 0.004-0.098 0.004-0.064 0.002 5.048-0.217 11 0.109 14.91 3.705C69.087 16.51 59.341 15.335 55.378 16.227zM74.958 2.319c1.366-1.797 3.992-4.456 7.554-4.432 -3.028-0.017-6.302-0.051-9.26 3.725 -1.752 2.238-3.791 8.079-2.474 10.984C70.391 9.074 73.379 4.396 74.958 2.319zM63.869 45.645c2.527-12.586 9.961-12.044 17.205-8.103C73.12 37.329 66.293 41.478 63.869 45.645zM82.033 37.471c-1.833-16.426 8.435-20.688 14.353-3.372C91.807 33.275 85.371 34.062 82.033 37.471z"/><path fill="#3a353a" opacity="1" d="M43.245 88.393c6.21-11.865 3.609-32.352 9.748-41.739C47.896 60.12 49.558 74.716 43.245 88.393zM54.231 129.125c-7.173-7.228-10.447-16.268-9.544-26.425C41.055 113.881 45.882 121.858 54.231 129.125zM32.207 47.33c-4.514 7.856-1.646 12.65 2.774 20.101C31.552 62.645 28.107 52.807 32.207 47.33zM33.572 85.294c-2.736-3.85-5.306-8.574-5.276-13.561C29.902 76.546 28.766 81.792 33.572 85.294zM40.7 47.569c-3.393-8.802-1.508-19.53 2.261-27.923C36.927 28.282 35.782 38.328 40.7 47.569zM117.56-4.839C99.84-6.906 83.557-4.017 73.519 13.085 83.277-0.626 101.23-6.846 117.56-4.839zM150.921 28.691c-19.725-0.53-23.47-23.613-42.557-23.028C127.391 6.139 129.372 29.359 150.921 28.691zM162.892 88.441c5.6-15.989 10.484-30.128 0.417-46.175C171.733 58.934 168.165 71.989 162.892 88.441zM154.505 115.547c-3.428 7.385-8.313 9.885-13.778 15.539C147.598 128.183 152.767 122.906 154.505 115.547zM155.112 46.88c-14.333 0.554-27.096-3.42-35.116-15.573C126.915 45.62 140.449 48.376 155.112 46.88z"/><path fill="#000000" opacity="1" d="M179.475 82.804c0.005 0.018 0.006-0.012-0.001-0.142 -0.01-0.068-0.017-0.106-0.021-0.127 -0.681-4.582-1.776-8.134-4.785-13.389 -0.303-0.525-1.071-1.37-0.882-1.951 0.822-2.485 4.435-11.733 0.758-23.114 -1.646-5.076-8.407-16.142-12.744-18.91 -1.355-11.878-6.353-13.801-18.127-16.226 0.169 0.294 0.332 0.596 0.49 0.904 19.536 6.37 15.576 18.102 16.786 25.495 -0.024-3.157 0.515-6.309 0.599-9.465 2.242 1.489 10.189 12.306 12.307 24.868 2.062 12.204-1.492 16.26-2.392 24.204 0.567-2.246 1.199-4.433 1.944-6.627 10.874 22.246-2.971 28.891-7.729 36.23 1.949-2.05 3.989-3.97 6.084-5.875 0.35 12.208-12.526 15.039-15.665 21.416 1.974-1.952 4.282-3.552 6.666-4.99 -2.01 7.926-11.433 12.604-27.135 21.559 6.678-15.453 9.153-35.195 9.645-38.389 0.893-5.856 0.302-15.627-4.534-21.273 2.936-0.798 5.926-1.575 8.768-2.664 -2.385 0-27.827 10.785-40.72-4.686 -6.831-8.199-7.54-39.99-17.292-45.823 -2.11-1.262-5.17-1.845-7.277-0.27 -3.157 2.361-3.334 8.466-2.694 12.726 0.001 0.607 0.064 1.201 0.064 1.201s-1-0.656-1.38-0.875c-3.825-2.035-8.559-3.158-12.427-0.689 -9.606 6.133-6.676 26.843-13.343 45.18 -6.091 16.753-12.381 14.397-17.286 23.911 6-9.295 11.27-6.831 18.158-21.384 4.75 24.441-1.98 39.14 5.477 51.048 -6.8-1.127-24.501-8.387-26.255-24.997 0.54 0.46 6.15 4.352 6.284 4.437 -9.746-8.919-14.863-16.825-14.863-31.927 1.233 2.52 3.216 5.03 3.216 5.03 0.018-0.088-0.264-0.461-0.304-0.537 -4.259-8.017-4.749-19.923-3.287-25.177 1.336 2.372 2.909 5.096 4.982 6.932 -8.201-12.494-5.386-25.259 0.048-31.57 0.206 2.59 0.475 6.017 2.29 8.082 -2.109-3.291-3.982-20.742 11.13-31.998 -0.505 1.474-1.096 3.403-0.961 4.984C46.744 8.83 53.23 5.248 60.722 2.7c-0.82 1.595-2.976 5.865-0.408 6.993C56.953 8.215 65.631-3.999 76.033-3.999c-0.544 0.896-0.917 1.88-1.123 2.906 2.922-6.477 12.93-9.608 18.715-5.051 -2.37 1.478-4.53 3.266-6.61 5.114 12.854-8.234 21.979-8.207 34.624-3.891 7.605 2.596 17.111 5.483 24.73 19.78C144.19 3.939 130.166-4.423 122.695-6.942c-20.28-6.846-28.51 0.08-28.51 0.08 -6.209-7.016-14.417-2.535-17.698 2.159C61.433-5.065 62.594 1.579 60.955 1.884c-14.59 2.726-14.66 8.385-17.02 9.676 -10.961 6.003-13.735 13.668-13.402 24.191 -12.438 12.35-5.392 23.111-5.887 24.23 -5.069 11.436 0.464 18.845 0.238 20.38 -3.08 20.905 8.766 27.064 8.769 28.864 0.045 22.594 23.879 26.713 28.836 26.308 -7.255-14.38 1.09-23.773-6.729-52.88 4.149-9.398 6.389-21.289 7.314-30.863 1.03-10.639 14.588-14.209 18.938-13.887 4.391-3.255 8.96-3.179 14.78-2.578 3.275 10.267 4.844 23.685 5.561 26.507 4.188 16.459 20.678 19.766 37.427 15.424 1.043-0.269 5.199 6.586 4.059 17.601 -0.146 1.409-5.579 32.572-9.609 43.643 9.359-4.462 26.288-9.968 29.666-24.11 6.988-4.789 10.256-7.462 8.856-16.221C172.75 98.169 179.908 92.106 179.475 82.804z"/><path fill="#ffffff" opacity="0.2" d="M52.7 78.99c11.69 3.22 28.34-0.15 40.03 7.14 -0.08 0.44-0.16 0.87-0.25 1.31 -0.64 2.91-3.23 4.82-6.36 5.38 -8.44 1.51-22.57 1.32-30.84 0.74 -1.19-0.08-2.16-0.9-2.36-2C52.11 87.2 51.8 83.54 52.7 78.99zM106.69 80.35c0.05 2.48 0.32 4.73 0.83 7.1 0.63 2.91 3.23 4.82 6.36 5.38 8.44 1.51 22.57 1.32 30.84 0.74 1.19-0.08 2.16-0.9 2.36-2 0.31-1.69 0.55-3.28 0.67-4.85 -11.7-8.04-28.85-4.44-40.84-7.71C106.77 79.44 106.68 79.89 106.69 80.35z"/><path fill="#ffffff" opacity="0.4" d="M93.31 80.35c-0.05 2.02-0.24 3.88-0.58 5.78 -11.69-7.3-28.35-3.92-40.03-7.14 0.03-0.12 0.04-0.24 0.07-0.37 0.26-1.24 1.34-2.15 2.68-2.28 12.7-1.18 21.35-1.08 33.89-0.11C91.61 76.42 93.36 78.22 93.31 80.35zM147.24 78.63c-0.26-1.24-1.34-2.15-2.68-2.28 -12.7-1.18-21.35-1.08-33.89-0.11 -1.78 0.14-3.22 1.27-3.75 2.78 11.98 3.27 29.14-0.33 40.84 7.71C147.96 84.13 147.85 81.57 147.24 78.63z"/><path fill="#26120b" opacity="1" d="M153 78.74h-5.22c-0.02-0.07-0.02-0.14-0.04-0.21 -0.3-1.44-1.57-2.52-3.13-2.67 -12.9-1.2-21.6-1.07-33.98-0.11 -0.15 0.01-0.29 0.05-0.43 0.07l0.03-0.03c0 0-0.12 0.03-0.33 0.08 -0.09 0.02-0.19 0.04-0.28 0.06 -1.08 0.24-3.42 0.7-5.37 0.76 -3.91 0.12-4.75 0.11-8.5 0 -1.95-0.06-4.29-0.52-5.37-0.76 -0.09-0.03-0.18-0.04-0.28-0.06 -0.21-0.05-0.33-0.08-0.33-0.08l0.03 0.03c-0.14-0.02-0.28-0.06-0.43-0.07 -12.39-0.96-21.09-1.09-33.98 0.11 -1.56 0.15-2.83 1.23-3.13 2.67 -0.02 0.07-0.02 0.14-0.04 0.21H47v2.92h4.79c-0.17 1.7-0.19 3.33-0.07 4.97h1.06c-0.2-2.54-0.09-5.05 0.51-7.92 0.21-1.02 1.1-1.78 2.21-1.88 6.3-0.59 11.69-0.86 16.98-0.86 4.97 0 9.99 0.22 16.81 0.75 2 0.15 3.53 1.74 3.49 3.61 -0.05 2.2-0.28 4.22-0.69 6.29h1.07c0.39-2.02 0.62-4.02 0.67-6.27 0.01-0.66-0.13-1.28-0.39-1.85 0.33-0.07 0.85-0.16 1.51-0.21 2.51-0.18 8.07-0.14 10.11 0 0.66 0.05 1.19 0.14 1.51 0.21 -0.26 0.57-0.41 1.19-0.39 1.85 0.05 2.25 0.28 4.25 0.67 6.27h1.07c-0.41-2.07-0.64-4.09-0.68-6.29 -0.04-1.87 1.49-3.46 3.49-3.61 6.82-0.53 11.84-0.75 16.81-0.75 5.29 0 10.69 0.27 16.98 0.86 1.11 0.1 2 0.86 2.21 1.88 0.6 2.87 0.71 5.38 0.51 7.92h1.05c0.13-1.64 0.1-3.27-0.07-4.97H153V78.74z"/></svg>