<svg xmlns="http://www.w3.org/2000/svg" viewBox="0 0 200 200" width="200" height="200"><defs><linearGradient id="gradient-17" x1="99.98" x2="99.98" y1="171.27" y2="136.351"><stop offset="0" stop-color="#e4b3ab" stop-opacity="0.8"/><stop offset="0.7" stop-color="#c5796d" stop-opacity="1"/></linearGradient><radialGradient id="gradient-18" cx="100" cy="113" r="40"><stop offset="0" stop-color="#fff4f3" stop-opacity="0.5"/><stop offset="0.9" stop-color="#f3d4cf" stop-opacity="0"/></radialGradient><radialGradient id="gradient-19" cx="100" cy="57" r="36"><stop offset="0" stop-color="#fff4f3" stop-opacity="0.5"/><stop offset="0.9" stop-color="#f3d4cf" stop-opacity="0"/></radialGradient><radialGradient id="gradient-20" cx="129.05" cy="85.956" r="15.117" gradientTransform="matrix(-0.9945 0.1042 0.1042 0.9945 192.8274 -12.4637)"><stop offset="0" stop-color="#FFFFFF" stop-opacity="1"/><stop offset="0.316" stop-color="#FCFDFD" stop-opacity="1"/><stop offset="0.505" stop-color="#F4F7F8" stop-opacity="1"/><stop offset="0.661" stop-color="#E5ECEF" stop-opacity="1"/><stop offset="0.76" stop-color="#D8E2E7" stop-opacity="1"/></radialGradient><radialGradient id="gradient-21" cx="129.049" cy="85.956" r="15.117" gradientTransform="matrix(0.9945 0.1042 -0.1042 0.9945 7.1735 -12.4637)"><stop offset="0" stop-color="#FFFFFF" stop-opacity="1"/><stop offset="0.316" stop-color="#FCFDFD" stop-opacity="1"/><stop offset="0.505" stop-color="#F4F7F8" stop-opacity="1"/><stop offset="0.661" stop-color="#E5ECEF" stop-opacity="1"/><stop offset="0.76" stop-color="#D8E2E7" stop-opacity="1"/></radialGradient><radialGradient id="gradient-98" cx="124.909" cy="84.956" fx="139.085" fy="84.626" r="17.962" gradientTransform="matrix(0.9998 0.0208 0.0193 -0.9282 -51.4325 161.2135)"><stop offset="0" stop-color="#e4b3ab" stop-opacity="1"/><stop offset="0.7" stop-color="#e4b3ab" stop-opacity="0.3"/><stop offset="1" stop-color="#f3d4cf" stop-opacity="0"/></radialGradient><radialGradient id="gradient-99" cx="82.066" cy="77.677" r="19.326" gradientTransform="matrix(0.6928 -0.0978 0.0983 0.7033 9.9183 45.7976)"><stop offset="0.9" stop-color="#000000" stop-opacity="0"/><stop offset="1" stop-color="#000000" stop-opacity="0.3"/></radialGradient><radialGradient id="gradient-100" cx="124.909" cy="84.956" fx="139.085" fy="84.626" r="17.962" gradientTransform="matrix(-0.9998 0.0208 -0.0193 -0.9282 251.4325 161.2135)"><stop offset="0" stop-color="#e4b3ab" stop-opacity="1"/><stop offset="0.7" stop-color="#e4b3ab" stop-opacity="0.3"/><stop offset="1" stop-color="#f3d4cf" stop-opacity="0"/></radialGradient><radialGradient id="gradient-101" cx="82.066" cy="77.677" r="19.326" gradientTransform="matrix(-0.6928 -0.0978 -0.0983 0.7033 190.0817 45.7978)"><stop offset="0.9" stop-color="#000000" stop-opacity="0"/><stop offset="1" stop-color="#000000" stop-opacity="0.3"/></radialGradient><linearGradient id="gradient-133" x1="100" x2="100" y1="141" y2="138"><stop offset="0.1" stop-color="#ebc3bd" stop-opacity="1"/><stop offset="1" stop-color="#e4b3ab" stop-opacity="1"/></linearGradient></defs><path fill="#ecf0f1" opacity="1" d="M225,225H-25V-25h250V225z"/><path fill="#c6dce2" opacity="1" d="M55.036,79.068h-29v-26h29V79.068z M84.203,33H43.536v33.068h40.667V33z M63.869,99.999H100V56.401H63.869V99.999z M76.869,95.734H40.536v31.333h36.333V95.734z M175.536,13.401H126v56.667h49.536V13.401z M119.536,39.068h-12v14h12V39.068z M155.818-4.266h-48.282v28.667h48.282V-4.266z M100,5.734H74v36h26V5.734z M40.536,8.401h-14.5v15.333h14.5V8.401z M21.171,33H-1.246v34.434h22.417V33z M47.536,99.999H8.203v43.735h39.333V99.999z M26.036,173.734h44.167v-26H26.036V173.734z M131.536,163.734H100.5v22.667h31.037V163.734z M206.792,141.067h-28.718v34h28.718V141.067z M159.536,156.491h-24.667v22.667h24.667V156.491z M183.178,111.733h-35.975v40.668h35.975V111.733z M192.202,181.734h-44.999v29.333h44.999V181.734z M43.536,163.734H-5.262v44h48.797V163.734z M202.869,53.068h-33.166v26h33.166V53.068z M183.178,90.401h-14.359v14.835h14.359V90.401z M-5.262,118h27.339V79.299H-5.262V118z M33.493-5.599l-49.291,1.333V33h49.291V-5.599z M211.536-4.266h-32v40.667h32V-4.266z M61-8.266H47.536v29.333H61V-8.266z M208.869,97.818h-32.871v26.667h32.871V97.818z" stroke="#f9f9f9" stroke-width="0.5"/><path fill="#0c080c" opacity="1" d="M151.582 41.064l-99.508-5.662c0 0-25.074 182.88-25.074 188.596 0 0 100.899 0.72 143.907 0C170.103 216.079 151.582 41.064 151.582 41.064z"/><path fill="#f3d4cf" opacity="1" d="M190.858 199.866c-6.008-10.158-13.474-11.973-19.628-13.936 -6.323-2.016-19.346-3.178-26.449-4.6 -6.86-1.373-23.153-5.789-23.339-13.488 -0.192-8.066 4.291-40.09 4.291-40.09H74.005c0 0 4.487 32.023 4.294 40.09 -0.184 7.699-16.48 12.115-23.341 13.488 -7.104 1.422-20.125 2.584-26.448 4.6 -6.156 1.963-13.624 3.777-19.632 13.936 -3.644 6.16-6.008 16.133-6.008 27.133h194C196.869 215.999 194.509 206.026 190.858 199.866z"/><path fill="#fff4f3" opacity="1" d="M121.442 167.843c2.495 10.929 18.165 13.698 26.293 15.325 21.909 4.379 33.772 5.134 42.297 19.539 2.903 4.916 5.459 15.864 5.962 24.153 1.835 0.291 0.531-17.432-5.136-26.994 -9.742-16.472-29.089-15.135-46.077-18.535C137.921 179.958 121.628 175.542 121.442 167.843L121.442 167.843zM78.558 167.843c-0.186 7.699-16.479 12.115-23.339 13.488 -16.988 3.4-36.335 2.063-46.077 18.535 -5.667 9.563-6.971 27.285-5.136 26.994 0.503-8.289 3.059-19.237 5.962-24.153 8.524-14.405 20.388-15.16 42.297-19.539C60.393 181.541 76.063 178.771 78.558 167.843L78.558 167.843z"/><path fill="#e4b3ab" opacity="1" d="M51.206 189.513c0 0 28.641 0.299 33.473 1.885 2.314 0.758 8.372 5.633 8.372 5.633s-6.556-3.17-8.658-3.758C79.51 191.909 51.206 189.513 51.206 189.513zM99.795 199.999c2.053-0.041 7.887-3.799 7.887-3.799s-5.574 2.059-7.342 2.16c-1.491 0.086-6.366-1.238-6.366-1.238S98.112 200.032 99.795 199.999zM117.008 192.757c6.75-1.818 29.786-3.23 29.786-3.23s-23.791-0.516-30.51 1.725c-2.252 0.752-7.562 5.16-7.562 5.16S114.786 193.354 117.008 192.757z"/><path fill="none" opacity="1" d="M190.858 199.866c-9.741-16.471-29.122-15.142-46.077-18.535 -6.86-1.373-23.153-5.789-23.339-13.488 -0.192-8.066 4.291-40.09 4.291-40.09H74.005c0 0 4.487 32.023 4.294 40.09 -0.184 7.699-16.48 12.115-23.341 13.488 -7.104 1.422-20.125 2.584-26.448 4.6 -6.156 1.963-13.624 3.777-19.632 13.936 -3.644 6.16-6.008 16.133-6.008 27.133h194C196.869 215.999 194.509 206.026 190.858 199.866z" stroke="#c5796d" stroke-width="1.5"/><path fill="url(#gradient-17)" opacity="1" d="M74.767 128.517c0.594 4.297 3.11 22.794 3.929 33.496 6.172 3.567 11.423 8.992 21.307 8.992 9.736 0 14.976-5.264 21.031-8.831 0.805-10.679 3.341-29.34 3.938-33.657l0.017-0.113H74.751L74.767 128.517z"/><path fill="#09aac5" opacity="1" d="M176.662 239.205c-4.731-0.031-142.126-1.232-153.208-1.823 1.595-10.032 4.924-15.048 10.136-20.336 0.397-10.141-3-24.685-4.583-31.951 1.592-4.057 4.741 0.357 20.731-4.584 4.066-1.013 8.65-7.315 14.947-2.354 -2.199 0.903-4.148 1.319-5.923 1.756 -2.657 14.611 31.716 40.78 40.839 45.67 11.181-5.065 44.953-33.159 41.373-45.645 -0.346-0.158-4.268-1.11-5.551-1.71 2.176-1.919 5.892-2.672 9.589-0.353 4.431 2.771 12.578 5.406 22.848 5.406 1.323 0 2.337 0.34 2.986 1.999 -1.114 5.095-4.727 22.604-4.667 31.635C174.006 224.707 175.121 229.664 176.662 239.205z"/><path fill="#009cb6" opacity="1" d="M150.077 185.14c-3.109 8.592-5.631 11.417-7.907 14.465 -2.618 3.506-3.455 5.129-2.205 2.785C144.613 193.068 145.855 193.511 150.077 185.14zM147.508 213.521c-0.232 1.071-0.375 1.72-0.344 1.593 2.81-9.574 9.184-26.459 9.184-26.459C154.178 195.795 151.241 196.15 147.508 213.521zM55.885 200c14.044 17.188-2.303-2.73-7.432-12.774C50.601 192.177 52.189 195.138 55.885 200zM54.307 216.992c-0.395-1-6.421-22.676-11.549-26.604C45.151 192.344 54.679 217.992 54.307 216.992z"/><path fill="#1fbad4" opacity="1" d="M170.847 185.281c-0.14 0.637-0.436 1.843-0.642 2.827 -2.355-0.396-5.961-1.215-5.961-0.373 -0.866 9.101-1.283 8.2-2.025 16.167 0.073-10.926 2.019-11.629-0.219-16.902 -6.053-1.017-11.768-2.581-17.019-4.186 -2.151 8.861-12.232 20.261-8.525 15.445 3.343-4.392 6.313-10.895 7.528-15.751 -0.939-0.29-1.867-0.581-2.774-0.869 -0.021-0.591-0.082-1.165-0.235-1.701 -0.346-0.158-4.268-1.11-5.551-1.71 2.176-1.919 5.892-2.672 9.589-0.353 4.431 2.771 12.578 5.406 22.848 5.406C169.184 183.282 170.197 183.622 170.847 185.281zM29.153 185.281c0.14 0.637 0.436 1.843 0.642 2.827 2.355-0.396 5.895-0.783 5.895-0.783 -0.26 5.06 1.35 7.61 2.092 15.577C37.708 191.977 36.014 192.189 37 187c6.053-1.017 12.768-2.581 18.019-4.186 2.151 8.861 13.232 22.001 9.525 17.186 -3.343-4.392-7.313-12.635-8.528-17.491 0.939-0.29 1.867-0.581 2.774-0.869 0.021-0.591 0.082-1.165 0.235-1.701 0.346-0.158 4.268-1.11 5.551-1.71 -2.176-1.919-5.892-2.672-9.589-0.353 -4.431 2.771-12.578 5.406-22.848 5.406C30.816 183.282 29.803 183.622 29.153 185.281z"/><path fill="#008fa6" opacity="1" d="M58.769 179.936c0-0.801 0.47-1.651 1.339-1.651 0.476 0 1.025 0.247 1.633 0.733l0.146 0.117 -0.178 0.057c-0.73 0.23-1.982 0.597-2.722 0.813l-0.128 0.038L58.769 179.936zM140.869 179.995c-0.016 0-0.016 0-1.14-0.35l-1.301-0.402 0.162-0.119c0.529-0.385 0.955-0.572 1.3-0.572 0.533 0 0.885 0.433 1.076 1.323l0.026 0.12H140.869z"/><path fill="#008197" opacity="1" d="M166.279 216.915c-0.055-8.281 2.988-23.902 4.66-31.67 -1.18-3.017-3.58-1.753-6.03-2.02 -15.956-1.477-19.064-5.281-21.12-6.16 -2.655-1.258-6.253-0.91-8.479 1.13 -0.021 0.01-0.04 0.03-0.061 0.06 1.22 0.625 4.63 1.429 5.63 1.711 3.549 12.378-29.553 40.193-41.23 45.529 -9.231-4.947-43.363-30.894-40.8-45.5 0.113-0.027 2.995-0.729 3.1-0.779 0.039 0 2.487-0.819 2.92-1.03 -0.02-0.01-0.04-0.03-0.05-0.05 -6.392-5.112-11.061 1.27-15.11 2.279 -16.079 4.97-19.171 0.454-20.8 4.7 0.213 1 5.017 20.344 4.61 31.86 -5.072 5.146-8.551 10.14-10.16 20.399 -0.01 0.04-0.02 0.07-0.02 0.101 10.231 0.588 152.439 1.83 153.44 1.83C175.204 229.537 174.033 224.594 166.279 216.915zM138.649 179.205c1.198-0.872 1.907-0.766 2.22 0.69C140.868 179.896 138.65 179.205 138.649 179.205zM58.869 179.936c0-1 0.825-2.429 2.81-0.84C60.919 179.336 59.593 179.724 58.869 179.936zM23.899 237.365c3.735-15.164 12.067-23.607 14.47-23.68 -1.422 0-3.53 1.973-4.53 2.96 0.941-11.17-2.007-22.558-4.63-31.54 1.216-2.388 3.067-1.38 5.53-1.38 22.481 0 21.745-12.367 29.94-5.54 -0.409 0.163-2.524 0.757-2.9 0.88 -3.441-3.277-3.946 2.577-2.91 7.54 5.004 16.15 35.575 39.59 40.71 39.59 15.945-6.354 44.861-31.908 41.59-46.16 0.01-0.02 0-0.04-0.01-0.06 -0.188-1.347-1.059-2.112-2.62-0.811 -0.904-0.285-1.897-0.549-3.09-0.92 5.239-4.381 10.854 1.216 12.77 2.19 4.607 2.536 12.876 3.43 16.681 3.43 2.626 0.086 4.562-1.097 5.739 1.351 -2.909 9.728-5.29 21.217-4.67 31.39 -1.057-1.004-2.635-2.41-4.05-2.76 6.852 2.486 13.144 17.17 14.4 25.26C108.784 236.728 100.525 237.005 23.899 237.365z"/><path fill="#f3d4cf" opacity="1" d="M47.69 82.611c-1.588-2.324-8.025-7.659-11.703-6.839 -4.355 0.971-5.708 4.275-5.603 6.332 0.606 11.758 4.426 11.749 6.71 16.271 1.709 3.383 3.126 4.933 4.172 11.692 0.598 3.866 4.427 6.83 7.217 6.684 3.908-0.205 6.994-3.634 8.291-7.014C59.463 102.718 51.823 88.658 47.69 82.611z" stroke="#c5796d" stroke-width="1.5"/><path fill="#c5796d" opacity="1" d="M43.274 99.484c-0.15-0.542-0.062-1.474 0.024-2.376 0.077-0.821 1.438-3.801 1.348-4.341 -0.344-2.022-1.931-5.809-2.949-7.853 -1.169-2.35-3.604-5.289-5.79-5.943 -0.904-0.271-3.479 0.039-3.781 0.625 -1.131 2.191-0.615 4.313 1.1 9.984 0.85 2.809 3.915 6.069 3.998 6.395 1.067 4.247 5.099 11.032 6.488 12.554 0.256 0.281 0.519 0.442 0.579 0.367 0.059-0.075-0.104-0.359-0.361-0.642 -1.372-1.513-5.367-8.282-6.396-12.38 -1.092-4.347 2.313-11.094 2.93-12.516 0.379 0.627 0.703 1.233 0.954 1.738 0.198 0.397 0.417 0.861 0.645 1.364 -0.367 0.744-4.245 6.226-3.026 10.371 0.451 1.528 2.054 4.491 3.432 6.049 0.483 0.546 0.893 0.702 1.19 1.207 0.341 0.586 0.732 1.251 1.792 1.687 0.215 0.089 0.408 0.118 0.577 0.108 0.293-0.019 0.51-0.157 0.667-0.318 0.029 0.265 0.044 0.604 0.051 0.919 0.007 0.404 0.073 0.735 0.162 0.738s0.168-0.325 0.161-0.729c-0.009-0.497-0.04-1.113-0.132-1.403 -0.273-0.854-1.028-1.791-1.829-2.781C44.319 101.332 43.505 100.323 43.274 99.484zM36.96 93.913c-2.347-6.628-1.518-13.365-1.103-14.318 1.345 0 3.778 2.439 4.397 3.42C39.874 83.854 36.837 89.368 36.96 93.913zM45.559 105.428c-0.961-0.395-1.303-0.979-1.635-1.545 -0.299-0.513-1.018-1-1.346-1.348 -0.191-0.204-0.531-0.75-0.715-0.872 -1.762-7.438 1.345-10.152 1.967-10.722 0.231 0.712 0.411 1.368 0.5 1.896 0.082 0.485-1.28 3.474-1.352 4.231 -0.089 0.939-0.182 1.911-0.012 2.526 0.253 0.917 1.093 1.955 1.904 2.96 0.72 0.892 1.459 1.811 1.732 2.581C46.509 105.299 46.204 105.692 45.559 105.428z"/><path fill="#f3d4cf" opacity="1" d="M152.049 82.611c1.588-2.324 8.025-7.659 11.701-6.839 4.357 0.971 5.709 4.275 5.604 6.332 -0.605 11.758-4.426 11.749-6.709 16.271 -1.711 3.383-3.127 4.933-4.174 11.692 -0.598 3.866-4.428 6.83-7.217 6.684 -3.908-0.205-6.994-3.634-8.291-7.014C140.275 102.718 147.916 88.658 152.049 82.611z" stroke="#c5796d" stroke-width="1.5"/><path fill="#c5796d" opacity="1" d="M154.633 102.307c-0.801 0.99-1.557 1.928-1.83 2.781 -0.092 0.29-0.123 0.906-0.131 1.403 -0.008 0.404 0.072 0.732 0.16 0.729 0.09-0.003 0.154-0.334 0.162-0.738 0.008-0.315 0.021-0.654 0.051-0.919 0.156 0.161 0.373 0.3 0.666 0.318 0.17 0.01 0.361-0.02 0.578-0.108 1.061-0.436 1.449-1.101 1.791-1.687 0.297-0.505 0.709-0.66 1.191-1.207 1.377-1.559 2.98-4.521 3.432-6.049 1.219-4.145-2.66-9.627-3.027-10.371 0.229-0.503 0.447-0.967 0.645-1.364 0.252-0.505 0.576-1.111 0.955-1.738 0.617 1.421 4.021 8.168 2.93 12.516 -1.029 4.098-5.025 10.868-6.396 12.38 -0.256 0.282-0.42 0.566-0.361 0.642 0.061 0.075 0.322-0.086 0.578-0.367 1.391-1.521 5.422-8.307 6.49-12.554 0.082-0.326 3.146-3.586 3.996-6.395 1.715-5.671 2.232-7.793 1.102-9.984 -0.303-0.586-2.877-0.896-3.783-0.625 -2.186 0.655-4.619 3.594-5.789 5.943 -1.018 2.044-2.605 5.831-2.949 7.853 -0.09 0.54 1.271 3.52 1.348 4.341 0.086 0.902 0.176 1.834 0.025 2.376C156.232 100.323 155.42 101.332 154.633 102.307zM159.484 83.016c0.619-0.981 3.053-3.42 4.396-3.42 0.416 0.953 1.244 7.689-1.104 14.318C162.902 89.368 159.863 83.854 159.484 83.016zM153.137 105.137c0.273-0.771 1.012-1.689 1.732-2.581 0.811-1.005 1.65-2.044 1.904-2.96 0.168-0.616 0.076-1.587-0.014-2.526 -0.07-0.758-1.434-3.746-1.352-4.231 0.09-0.528 0.27-1.184 0.5-1.896 0.623 0.569 3.729 3.284 1.967 10.722 -0.184 0.122-0.523 0.668-0.715 0.872 -0.328 0.348-1.047 0.834-1.346 1.348 -0.332 0.565-0.674 1.15-1.635 1.545C153.533 105.692 153.23 105.299 153.137 105.137z"/><path fill="#f3d4cf" opacity="1" d="M100.002 0.867C66.384 0.919 39.082 28.09 39.134 61.564c0.008 5.316 0.704 10.471 2.002 15.382h0.001C41.15 77 52.68 114.915 55.158 127.369c1.382 6.945 9.796 13.203 17.265 18.313 6.967 4.767 10.529 13.588 27.58 13.588s20.613-8.821 27.58-13.588c7.468-5.109 15.883-11.367 17.265-18.313 2.479-12.454 14.009-50.37 14.02-50.423h0.002c1.298-4.911 1.994-10.066 2.002-15.382C160.923 28.09 133.62 0.919 100.002 0.867z"/><path fill="#ebc3bd" opacity="1" d="M146.772 22.738c7.478 10.183 11.917 22.87 11.898 36.626 -0.009 5.316-0.679 10.471-1.93 15.382h-0.002c-0.011 0.053-11.124 37.969-13.512 50.423 -1.335 6.945-9.471 13.203-16.668 18.313 -6.718 4.767-10.121 13.588-26.557 13.588 -16.434 0-19.842-8.821-26.557-13.588 -7.197-5.109-15.335-11.367-16.665-18.313 -2.391-12.454-13.504-50.37-13.515-50.423h0c-1.252-4.911-1.922-10.066-1.931-15.382 -0.021-13.752 4.416-26.435 11.889-36.617 -8.812 10.525-14.112 24.056-14.089 38.817 0.008 5.316 0.704 10.471 2.002 15.382h0.001C41.15 77 52.68 114.915 55.158 127.369c1.382 6.945 9.796 13.203 17.265 18.313 6.967 4.767 10.529 13.588 27.58 13.588s20.613-8.821 27.58-13.588c7.468-5.109 15.883-11.367 17.265-18.313 2.479-12.454 14.009-50.37 14.02-50.423h0.002c1.298-4.911 1.994-10.066 2.002-15.382C160.894 46.799 155.589 33.264 146.772 22.738z"/><path fill="none" opacity="1" d="M100.002 0.867C66.384 0.919 39.082 28.09 39.134 61.564c0.008 5.316 0.704 10.471 2.002 15.382h0.001C41.15 77 52.68 114.915 55.158 127.369c1.382 6.945 9.796 13.203 17.265 18.313 6.967 4.767 10.529 13.588 27.58 13.588s20.613-8.821 27.58-13.588c7.468-5.109 15.883-11.367 17.265-18.313 2.479-12.454 14.009-50.37 14.02-50.423h0.002c1.298-4.911 1.994-10.066 2.002-15.382C160.923 28.09 133.62 0.919 100.002 0.867z" stroke="#c5796d" stroke-width="1.5"/><path fill="url(#gradient-133)" opacity="1" d="M100.002 141.248c-4.158 0-5.133-3.404-5.133-3.404 5.5 2.12 10.267-0.146 10.267-0.146S103.659 141.248 100.002 141.248z"/><path fill="#f771a9" opacity="1" d="M86.803 131.94c2.756-0.951 6.973-2.692 9.166-2.789 1.133-0.052 2.351 0.87 3.574 1.165 0.851 0.206 3.264-1.156 4.13-1.165 2.272-0.024 7.06 1.838 9.502 2.789 0.135 0.054 0 0 0 0s-5.789 6.953-13.185 6.953C91.618 138.894 86.803 131.94 86.803 131.94S86.666 131.989 86.803 131.94z" stroke="#e85391" stroke-width="0.75"/><path fill="#c92066" opacity="1" d="M113.541 131.736c-0.048-0.164-0.482-0.367-0.653-0.359 -0.311 0.017-0.672 0.396-1.313 0.41 -0.742 0.018-4.679 0.61-5.736 0.54 -2.129-0.142-3.824 0.666-5.848 0.666 -2.025 0-3.868-0.882-5.996-0.739 -1.057 0.072-4.847-0.448-5.591-0.467 -0.643-0.015-0.892-0.411-1.166-0.464 -0.192-0.036-0.663 0.166-0.757 0.338 -0.083 0.149 0.092 0.67 0.209 0.794 0.285 0.297 1.136 0.242 1.698 0.256 0.777 0.017 4.577 0.538 5.65 0.466 2.081-0.141 3.936 0.822 5.952 0.822s3.725-0.889 5.806-0.748c1.071 0.071 5.015-0.524 5.793-0.54 0.563-0.014 1.366-0.061 1.654-0.292C113.379 132.311 113.59 131.904 113.541 131.736z"/><path fill="#ff8ebd" opacity="1" d="M99.989 137.352c-3.37 0-6.645-1.153-9.241-3.305 1.307-0.072 2.652-0.277 3.961-0.22 1.613 0.07 3.144 0.707 4.756 0.813 1.742 0.116 3.358-0.487 5.064-0.694 1.422-0.17 3.664-0.674 5.091-0.622C107.068 135.28 103.244 137.352 99.989 137.352zM104.562 131.739c1.314-0.037 3.414-0.532 4.724-0.437 -1.405-0.759-3.657-0.941-5.243-1.247 -1.366-0.266-2.738 0.791-4.081 0.968 -1.514 0.199-2.65-1.239-4.119-1.288 -1.593 0.017-3.233 0.991-4.634 1.65 1.284-0.034 2.607-0.176 3.886-0.012 1.566 0.199 3.069 0.817 4.655 0.87C101.373 132.299 102.939 131.782 104.562 131.739z"/><path fill="#ffa8cc" opacity="1" d="M99.941 136.4c-2.029 0-4.007-0.702-5.707-2.002 0.38-0.038 0.764-0.067 1.133-0.067 0.117 0 0.234 0.004 0.351 0.011 0.609 0.032 1.209 0.207 1.846 0.393 0.618 0.178 1.256 0.363 1.923 0.42 0.132 0.01 0.264 0.015 0.395 0.015 0.819 0 1.596-0.204 2.348-0.4 0.477-0.125 0.928-0.243 1.392-0.313 0.253-0.04 0.527-0.059 0.837-0.059 0.268 0 0.544 0.015 0.818 0.036C103.862 135.485 102.03 136.4 99.941 136.4z"/><path fill="url(#gradient-20)" opacity="1" d="M61.952 84.523c-0.506-2.285 5.191-3.973 12.711-3.051 7.518 0.923 12.738 5.524 12.052 7.844 -0.38 1.286-10.639 3.245-14.253 2.847C68.798 91.758 63.174 90.04 61.952 84.523z"/><path fill="url(#gradient-21)" opacity="1" d="M138.048 84.523c0.506-2.285-5.191-3.973-12.711-3.051 -7.518 0.923-12.738 5.524-12.052 7.844 0.38 1.286 10.639 3.245 14.253 2.847C131.202 91.758 136.826 90.04 138.048 84.523z"/><path fill="#4e60a3" opacity="1" d="M83.199 89.25c-1.231 4.522-5.896 7.187-10.429 5.944 -4.528-1.241-7.203-5.918-5.97-10.442 1.23-4.526 5.905-7.19 10.434-5.947C81.761 80.045 84.433 84.723 83.199 89.25z" stroke="#152975" stroke-width="0.5"/><path fill="#6777b2" opacity="1" d="M82.994 87.526c-0.625 5.021-4.353 7.638-8.432 7.365 -3.765-0.253-7.131-3.031-7.443-7.828 1.302-0.374 3.031 0.234 4.549 0.002 -0.005 0.055-0.023 0.104-0.025 0.16 -0.12 1.842 1.357 3.446 3.299 3.577 1.946 0.13 3.62-1.263 3.74-3.104 0.013-0.24-0.002-0.476-0.038-0.702C79.997 87.2 81.648 86.999 82.994 87.526z"/><path fill="#000000" opacity="0.9" d="M76.229 84.164c-1.869-0.535-3.777 0.533-4.26 2.396 -0.483 1.853 0.642 3.793 2.51 4.329 1.873 0.537 3.781-0.532 4.266-2.386C79.23 86.639 78.101 84.7 76.229 84.164z"/><path fill="none" opacity="1" d="M76.229 84.164c-1.869-0.535-3.777 0.533-4.26 2.396 -0.483 1.853 0.642 3.793 2.51 4.329 1.873 0.537 3.781-0.532 4.266-2.386C79.23 86.639 78.101 84.7 76.229 84.164z" stroke="#152975" stroke-width="0.75"/><path fill="#ffffff" opacity="0.5" d="M70.977 92.181c-0.177 0.619-1.142 0.356-0.965-0.266 0.171-0.6 0.633-0.967 0.926-1.495 0.313-0.564 1.177-0.06 0.863 0.505C71.56 91.36 71.114 91.696 70.977 92.181L70.977 92.181zM72.516 91.194c-0.266 0.31-0.614 1.458-0.766 1.834 -0.241 0.598 0.727 0.856 0.965 0.266 0.082-0.205 0.362-1.223 0.508-1.393C73.64 91.415 72.936 90.704 72.516 91.194L72.516 91.194zM74.598 94.151c0.522-0.602 0.47-1.292 0.459-2.041 -0.01-0.644-1.01-0.645-1 0 0.006 0.415 0.13 0.992-0.166 1.334C73.47 93.929 74.175 94.639 74.598 94.151L74.598 94.151zM75.619 91.985c0.008 0.621 0.084 1.226 0.268 1.82 0.19 0.614 1.155 0.352 0.965-0.266 -0.159-0.513-0.226-1.019-0.232-1.555C76.611 91.341 75.611 91.34 75.619 91.985L75.619 91.985z"/><path fill="#ffffff" opacity="0.8" d="M80.946 85.543c-0.985 0.59-2.466 0.059-3.305-1.188 -0.838-1.248-0.713-2.739 0.273-3.328 0.984-0.593 2.467-0.061 3.301 1.187C82.053 83.462 81.932 84.952 80.946 85.543z"/><path fill="#4e60a3" opacity="1" d="M133.199 89.25c-1.231 4.522-5.896 7.187-10.429 5.944 -4.528-1.241-7.203-5.918-5.97-10.442 1.23-4.526 5.905-7.19 10.434-5.947C131.761 80.045 134.433 84.723 133.199 89.25z" stroke="#152975" stroke-width="0.5"/><path fill="#6777b2" opacity="1" d="M132.994 87.526c-0.625 5.021-4.353 7.638-8.432 7.365 -3.765-0.253-7.131-3.031-7.443-7.828 1.302-0.374 3.031 0.234 4.549 0.002 -0.005 0.055-0.023 0.104-0.025 0.16 -0.12 1.842 1.357 3.446 3.299 3.577 1.946 0.13 3.62-1.263 3.74-3.104 0.013-0.24-0.002-0.476-0.038-0.702C129.997 87.2 131.648 86.999 132.994 87.526z"/><path fill="#000000" opacity="0.9" d="M126.229 84.164c-1.869-0.535-3.777 0.533-4.26 2.396 -0.483 1.853 0.642 3.793 2.51 4.329 1.873 0.537 3.781-0.532 4.266-2.386C129.23 86.639 128.101 84.7 126.229 84.164z"/><path fill="none" opacity="1" d="M126.229 84.164c-1.869-0.535-3.777 0.533-4.26 2.396 -0.483 1.853 0.642 3.793 2.51 4.329 1.873 0.537 3.781-0.532 4.266-2.386C129.23 86.639 128.101 84.7 126.229 84.164z" stroke="#152975" stroke-width="0.75"/><path fill="#ffffff" opacity="0.5" d="M120.977 92.181c-0.177 0.619-1.142 0.356-0.965-0.266 0.171-0.6 0.633-0.967 0.926-1.495 0.313-0.564 1.177-0.06 0.863 0.505C121.56 91.36 121.114 91.696 120.977 92.181L120.977 92.181zM122.516 91.194c-0.266 0.31-0.614 1.458-0.766 1.834 -0.241 0.598 0.727 0.856 0.965 0.266 0.082-0.205 0.362-1.223 0.508-1.393C123.64 91.415 122.936 90.704 122.516 91.194L122.516 91.194zM124.598 94.151c0.522-0.602 0.47-1.292 0.459-2.041 -0.01-0.644-1.01-0.645-1 0 0.006 0.415 0.13 0.992-0.166 1.334C123.47 93.929 124.175 94.639 124.598 94.151L124.598 94.151zM125.619 91.985c0.008 0.621 0.084 1.226 0.268 1.82 0.19 0.614 1.155 0.352 0.965-0.266 -0.159-0.513-0.226-1.019-0.232-1.555C126.611 91.341 125.611 91.34 125.619 91.985L125.619 91.985z"/><path fill="#ffffff" opacity="0.8" d="M130.946 85.543c-0.985 0.59-2.466 0.059-3.305-1.188 -0.839-1.248-0.714-2.739 0.272-3.328 0.984-0.593 2.467-0.061 3.301 1.187C132.054 83.462 131.932 84.952 130.946 85.543z"/><path fill="#f3d4cf" opacity="1" d="M55 89c0 13.808 8.507 24.999 19 24.999S93 102.808 93 89c0-13.809-8.507-25.001-19-25.001S55 75.191 55 89zM61.517 94.721c-0.984-1.617-1.528-3.528-1.518-5.667 5.02-12.787 18.86-16.378 26.661-4.822 0.748 1.472 1.181 3.05 1.181 4.654 0 3.108-1.716 5.337-3.133 6.88C77.772 102.061 66.985 101.729 61.517 94.721z"/><path fill="url(#gradient-98)" opacity="1" d="M57.063 86.713c0.814 9.341 9.499 16.142 19.41 15.198 9.908-0.95 17.284-9.286 16.465-18.625 -0.814-9.342-9.5-16.145-19.412-15.199C63.615 69.038 56.243 77.374 57.063 86.713zM59.999 89.054c5.02-12.787 18.86-16.378 26.661-4.822 0.748 1.472 1.181 3.05 1.181 4.654 0 3.108-1.716 5.337-3.133 6.88 -6.936 6.296-17.723 5.964-23.191-1.044C60.532 93.104 59.988 91.193 59.999 89.054z"/><path fill="url(#gradient-99)" opacity="1" d="M81.835 79.36c1.751 1.137 3.391 2.746 4.825 4.871 0.748 1.472 1.181 3.05 1.181 4.654 0 3.108-1.716 5.337-3.133 6.88 -6.936 6.296-17.723 5.964-23.191-1.044 -0.984-1.617-1.528-3.528-1.518-5.667 2.306-5.874 6.475-9.8 11.063-11.216 0.492-0.123 0.994-0.221 1.506-0.293C75.914 77.071 79.118 77.794 81.835 79.36z"/><path fill="#c5796d" opacity="1" d="M85.831 76.642c-5.97-3.487-13.357-4.669-21.869-0.887C70.286 72.031 79.389 71.736 85.831 76.642z"/><path fill="#000000" opacity="1" d="M61.42 94.437c5.438 6.916 16.313 7.27 23.288 1.123C76.492 104.249 62.78 99.934 61.42 94.437zM89.378 80.015c-6.384-8.038-22.106-6.856-30.795-0.861 2.103-0.601 3.804-1.189 6.62-2.33 -5.615 2.601-5.615 4.669-10.263 9.476l2.246-1.852 -1.182 3.369c1.184-1.713 1.863-2.423 2.638-3.015 -0.296 1.064-0.473 1.714-0.709 3.015 1.58-2.138 2.498-3.246 3.724-4.197 -1.403 1.989-1.822 3.855-2.01 6.325 4.965-13.89 20.687-17.496 28.312-3.487 -0.464-2.242-1.42-3.989-2.482-5.556 1.747 0.8 3.175 2.443 4.492 4.965 -1.063-4.314-1.714-5.438-5.379-8.275L89.378 80.015z"/><path fill="#f3d4cf" opacity="1" d="M126 63.999c-10.493 0-19 11.192-19 25.001 0 13.808 8.507 24.999 19 24.999S145 102.808 145 89C145 75.191 136.493 63.999 126 63.999zM115.292 95.765c-1.417-1.542-3.133-3.771-3.133-6.88 0-1.604 0.433-3.182 1.181-4.654 7.801-11.556 21.642-7.964 26.661 4.822 0.011 2.139-0.533 4.05-1.518 5.667C133.015 101.729 122.228 102.061 115.292 95.765z"/><path fill="url(#gradient-100)" opacity="1" d="M126.475 68.087c-9.912-0.946-18.598 5.857-19.412 15.199 -0.819 9.339 6.557 17.676 16.465 18.625 9.911 0.944 18.596-5.857 19.41-15.198C143.757 77.374 136.385 69.038 126.475 68.087zM138.483 94.721c-5.469 7.008-16.256 7.34-23.191 1.044 -1.417-1.542-3.133-3.771-3.133-6.88 0-1.604 0.433-3.182 1.181-4.654 7.801-11.556 21.642-7.964 26.661 4.822C140.012 91.193 139.468 93.104 138.483 94.721z"/><path fill="url(#gradient-101)" opacity="1" d="M118.165 79.36c-1.751 1.137-3.391 2.746-4.825 4.871 -0.748 1.472-1.181 3.05-1.181 4.654 0 3.108 1.716 5.337 3.133 6.88 6.936 6.296 17.723 5.964 23.191-1.044 0.984-1.617 1.528-3.528 1.518-5.667 -2.306-5.874-6.475-9.8-11.063-11.216 -0.492-0.123-0.994-0.221-1.506-0.293C124.086 77.071 120.882 77.794 118.165 79.36z"/><path fill="#c5796d" opacity="1" d="M114.169 76.642c5.97-3.487 13.357-4.669 21.869-0.887C129.714 72.031 120.611 71.736 114.169 76.642z"/><path fill="#000000" opacity="1" d="M115.292 95.56c6.975 6.147 17.85 5.792 23.288-1.123C137.22 99.934 123.508 104.249 115.292 95.56zM115.41 77.592c-3.665 2.837-4.315 3.96-5.379 8.275 1.317-2.522 2.745-4.165 4.492-4.965 -1.063 1.567-2.019 3.314-2.482 5.556 7.625-14.008 23.347-10.403 28.312 3.487 -0.188-2.47-0.606-4.335-2.01-6.325 1.226 0.951 2.144 2.059 3.724 4.197 -0.236-1.3-0.413-1.951-0.709-3.015 0.774 0.591 1.454 1.302 2.638 3.015l-1.182-3.369 2.246 1.852c-4.647-4.807-4.647-6.875-10.263-9.476 2.816 1.141 4.518 1.729 6.62 2.33 -8.688-5.995-24.411-7.177-30.795 0.861L115.41 77.592z"/><path fill="url(#gradient-18)" opacity="1" d="M140.204 113.007c0.035 22.275-17.995 40.365-40.273 40.396 -22.274 0.036-40.361-17.993-40.396-40.272C59.501 90.857 77.53 72.77 99.808 72.735 122.083 72.701 140.171 90.73 140.204 113.007z"/><path fill="url(#gradient-19)" opacity="1" d="M135,55.999c0,19.329-15.671,35-35,35c-19.329,0-35-15.671-35-35s15.671-35,35-35C119.329,20.999,135,36.67,135,55.999z"/><path fill="#2a232b" opacity="1" d="M90.857 72.446c-12.948-4.229-18.875-4.225-33.252-2.519 -0.434 0.051-2.459 0.548-2.637 0.221 11.896-2.694 21.942-3.566 33.164 0.925C88.531 71.233 90.911 72.118 90.857 72.446z"/><path fill="#2a232b" opacity="1" d="M108.978 72.414c9.882-6.264 21.947-6.458 33.14-3.238 0.444 0.128 2.899 0.624 2.915 1.026C120.586 64.812 108.978 72.414 108.978 72.414z"/><path fill="#e4b3ab" opacity="1" d="M99.94,119.956c-1.906-0.058-5.298-2.021-4.893-3.788c0.375-1.641,2.509,0.598,4.961,0.618c2.452,0.02,5.381-1.442,5.725,0.204C106.288,119.647,103.011,120.053,99.94,119.956z"/><path fill="#c5796d" opacity="1" d="M104.203,118.958c0.155,0.202,0.42,0.202,0.586-0.002c0.169-0.204,0.178-0.533,0.02-0.734c-1.15-1.481-3.219,0.505-3.064,0.71C101.804,119.011,103.336,117.853,104.203,118.958z M95.633,115.186c0.242,1.576,0.743,3.678,4.771,4.779c-3.972-0.117-6.554-0.855-6.533-4.551c0.011-1.867,1.964-5.712,1.964-5.712S95.378,113.521,95.633,115.186z"/><path fill="#2a232b" opacity="0.1" d="M38.854 237.82l9.88-202.719 105.496 1.162 1.025 203.314C155.255 239.577 50.052 239.114 38.854 237.82zM137.106 235.279c-4.241-47.633 1.152-84.777 5.499-114.713 2.44-16.806 4.572-31.486 4.458-44.428 -2.542 1.415-21.941 1.903-21.941 1.903 -14.513 2.338-25.333 0.387-25.782 0.438 -1.982-12.335-2.297-14.256-2.726-17.048 -1.333 11.235-0.355 13.67-1.37 15.249 -2.873 0.713-22.804-0.167-23.806-0.237 -5.478 2.035-9.035-2.194-12.427-1.241 -1.982 1.505-5.386 1.669-6.386 1.42 -1.023 20.123 2.42 35.283 6.058 51.303 9 39.633 8.399 50.872 5.508 104.881C64.192 232.806 126.452 234.934 137.106 235.279z"/><path fill="#2a232b" opacity="1" d="M177.393 209.541c-15.107-60.344 3.552-108.071-9.179-151.026 -6.063-20.427-18.396-46.964-42.724-57.386 -6.483-2.787-12.601-3.207-19.46-2.256 -3.871-1.177-8.064-1.773-12.462-1.773 -30.232 0-49.746 25.833-59.244 54.789 -5.943 18.135-7.341 33.902-5.755 64.884 3.633 70.935-3.103 88.369-14.274 117.075 17.224 0.024 36.536 4.694 63.515 4.779 22.28 0.08 102.989 0.006 109.574-0.733C180.977 223.385 179.949 219.769 177.393 209.541zM139.306 237.354c-44.235-1.525-58.379 0.504-77.335-0.458 3.085-57.769 3.929-68.17-5.236-108.528 -3.815-16.8-7.374-32.516-5.986-53.916 1.84-0.071 3.204 0.365 4.861 1.224v0.005c0.079 0.043 0.154 0.086 0.23 0.131 0.05-0.268 0.105-0.577 0.162-0.836l0.118-0.089 -0.098-0.02c0.638-3.158 1.735-6.719 3.175-10.297l0.191 0.054c-0.49 2.876-0.772 5.765-0.838 8.586l-0.03 0.053c3.296-0.917 7.163 1.845 10.161 1.845 0.87-0.06 1.588-0.369 2.394-0.662 1.102-15.937 2.326-22.387 4.625-27.361l0.188 0.063c-1.329 6.207-1.753 14.946-1.297 26.715l-0.012 0.016c2.685-0.26 5.862 0.912 8.171 0.815 0-3.915 0.676-9.192 0.94-12.385l0.199 0.002c0.403 6.263 1.163 10.374 1.782 13.256 5.281-1.185 5.041-0.413 7.762-0.57 0.189-0.009 0.377-0.028 0.556-0.064l0.03-0.046 -0.1 0.008c-0.677-8.054 2.333-25.156 3.102-29.187l0.198 0.019c-0.008 7.96 0.718 11.325 3.793 30.548 1.722-0.197 4.705 0.844 6.717 1.081 0-3.986-0.013-3.709 0.01-5.85l0.199 0c0.033 2.019 0.142 3.989 0.735 5.933 3.159 0.066 5.395-1.403 8.343-1.122 0.369-16.421-1.055-25.078-1.897-32.829l0.196-0.037c4.08 15.22 5.452 31.663 5.565 33.095 0.38-0.028 1.758-0.133 2.461-0.246 0.431-3.141 2.143-21.364 1.309-26.247l0.194-0.046c2.643 8.591 2.331 15.253 2.524 25.565 2.552-0.785 6.706 0.343 9.615 0.015 -0.4-7.699-0.557-14.668-2.451-21.243l0.189-0.063c2.292 5.971 4.105 13.197 4.986 20.951l0.045-0.025c6.444 0.5 5.332-0.919 9.239-2.14C150.379 109.934 131.943 159.713 139.306 237.354z"/><path fill="#1b141c" opacity="1" d="M180.326 238.184c-13.273 0.212-38.624-0.278-41.021-0.829 -2.923-30.82-1.775-57.236 0.579-80.211 3.563-34.778 9.895-61.65 9.112-83.836 0.153-1.482 2.837-0.396 3.497-1.095 -4.5-29.25-14.214-47.686-29.494-59.91 64.384 45.135 14.583 132.535 23.191 167.176 1.473-18.377 13.012-69.387 15.809-79.376 -5 36-17 78 3 112 -2.631-14.907-2.954-30.583-2.994-45.681C162.776 191.536 172.246 214.616 180.326 238.184zM58.674 65.947c0.174-0.459 0.336-0.917 0.522-1.377l0.191 0.054c-0.49 2.876-0.772 5.765-0.838 8.586l-0.03 0.053c0.829-0.23 1.694-0.228 2.572-0.096 0.46-12.512 2.842-25.349 9.909-35.065C62.39 45.146 60.52 55.867 58.674 65.947zM101 31.102c-4.32 7.921-5.012 16.878-5.807 25.753 0.705-4.999 1.486-9.358 1.828-11.146l0.198 0.019c-0.008 7.96 0.718 11.325 3.793 30.548 0.581-0.066 1.31 0.014 2.092 0.15C99.585 61.645 97.306 46.8 101 31.102zM107.107 77.255c0.21 0.036 0.428 0.078 0.622 0.101 0-3.986-0.013-3.709 0.01-5.85l0.199 0c0.033 2.019 0.142 3.989 0.735 5.933 0.322 0.007 0.628-0.012 0.933-0.033C109.008 70.885 109 64.846 109 58.102 107.081 64.817 107.919 70.614 107.107 77.255zM116.672 76.305c0.116 0.006 0.227 0 0.345 0.012 0.369-16.421-1.055-25.078-1.897-32.829l0.196-0.037c4.08 15.22 5.452 31.663 5.565 33.095 0.274-0.02 1.071-0.081 1.757-0.156 -1.144-16.075-3.59-31.982-11.638-46.289C114.768 45.173 114.988 61.131 116.672 76.305zM135.979 75.646c0.347-0.006 0.685-0.021 1.005-0.058 -0.4-7.699-0.557-14.668-2.451-21.243l0.189-0.063c2.292 5.971 4.105 13.197 4.986 20.951l0.045-0.025c0.782 0.061 1.449 0.092 2.031 0.1 -1.098-13.198-6.537-25.602-12.785-37.206C132.851 50.616 135.767 63.131 135.979 75.646zM124.84 56.501c0.076-2.761 0.039-5.108-0.189-6.448l0.194-0.046c2.643 8.591 2.331 15.253 2.524 25.565 0.555-0.17 1.193-0.239 1.87-0.264 0.08-12.715-1.994-25.322-6.239-37.208C123.654 43.994 124.731 50.313 124.84 56.501zM86 50.102c-3.781 7.562-3.098 16.018-4.701 24.521 0.509 0.058 0.997 0.089 1.45 0.07 0-3.915 0.676-9.192 0.94-12.385l0.199 0.002c0.403 6.263 1.163 10.374 1.782 13.256 0.642-0.144 1.2-0.258 1.694-0.35C85.62 67.168 84.213 59.034 86 50.102zM79 40.102c-8.426 9.362-8.087 23.107-8.83 34.67 0.297-0.103 0.594-0.213 0.904-0.326 1.102-15.937 2.326-22.387 4.625-27.361l0.188 0.063c-1.329 6.207-1.753 14.946-1.297 26.715l-0.012 0.016c0.748-0.072 1.534-0.029 2.329 0.063C76.446 62.338 74.534 50.821 79 40.102zM81 17.102c-25.15 16.485-39 47-35 75 5 37 11 73 6 110 3-31-2-62-8-93 5 34 5 68-4 101 3.177-16.681 0.047-32.73-1.376-49.151 0.141 25.13-5.941 50.009-14.846 73.181 16.549 0.846 36.42 3.267 38.192 2.766 3.085-57.769 3.929-68.17-5.236-108.528 -3.815-16.8-7.374-32.516-5.986-53.916C50.748 74.453 52.907 45.195 81 17.102z"/><path fill="#3a353a" opacity="1" d="M64.672 42.118C74.59 24.24 80.38 19.473 94.632 11.415c0.176-0.104-0.702 0.439-2.147 1.33C78.576 21.306 72.058 29.883 64.672 42.118zM135.742 37.113c9.163 18.181 9.775 30.657 9.025 24.705 -0.8-4.99-1.419-10.855-6.312-22.197 -5.369-11.776-14.072-23.532-25.283-30.441C119.437 13.431 126.959 20.108 135.742 37.113zM91.527 43.736c-1.861 13.125-1.499 23.37-1.487 22.57 0.06-9.996 2.285-23.7 4.771-33.506 2.673-9.599 5.599-14.82 6.494-16.746C97.408 23.369 93.199 32.769 91.527 43.736zM111.445 59.291c0.067 1.53 0.117 2.458 0.109 2.274 -0.562-6.037 1.766-16.643-5.494-38.71C109.065 33.412 110.842 42.398 111.445 59.291zM130.265 63.92c0.329 2.116 0.547 3.4 0.509 3.145 -1.188-7.196-0.94-20.108-7.805-34.964 -4.252-9.161-8.862-13.611-10.668-15.707C119.052 24.654 125.487 33.128 130.265 63.92zM79.303 60.814c0.534-8.417 1.123-9.623 1.675-12.166 3.557-14.121 5.869-18.655 10.179-25.844C78.031 42.895 79.303 60.814 79.303 60.814zM37.505 63.373c-0.024 0.471-0.016 2.812-0.008 2.419C38.081 45.747 61.782 11.076 77.827 5.21 62.315 10.191 39.336 38.968 37.505 63.373zM38.188 103.349c0.687 5.613 1.616 9.97 1.536 9.472 -3.8-17.919 1.102-58.568 12.54-73.07C43.945 49.745 35.375 75.813 38.188 103.349zM34.257 158.321c-0.697 3.996-0.614 3.458-0.165 1.388 3.824-18.365 0.212-50.656-1.332-66.366C32.761 92.337 35.675 142.412 34.257 158.321zM145.164 23.022c2.272 3.198 7.384 9.497 12.905 23.33 4.216 10.549-1.739-5.479-3.84-10.089 -7.777-18.021-18.42-26.645-36.157-33.313C133.49 9.586 138.051 14.323 145.164 23.022zM160.349 100.734c-1.174 11.388 1.192-7.638 1.439-10.115 2.257-19.967-1.41-33.458-8.753-46.237C159.271 56.404 163.33 68.177 160.349 100.734zM166.605 172.471c0.702 3.44 1.178 5.512 1.091 5.1 -4.749-24.438-0.502-87.206-0.472-89.487C166.943 94.275 160.133 142.839 166.605 172.471z"/><path fill="#000000" opacity="1" d="M177.489 209.517c-15.15-60.52 3.6-107.91-9.18-151.03 -7.061-23.79-20.16-47.76-42.78-57.45 -6.84-2.94-13.17-3.16-19.47-2.26 -7.271-2.21-16.46-2.55-25.811 0.07 -24.32 6.79-38.6 30.39-46.02 53.01 -5.61 17.12-7.43 32.3-5.76 64.92 3.57 69.692-2.795 87.556-14.32 117.17 17.259 0 36.599 4.694 63.66 4.779 22.157 0.084 104.198 0.003 109.72-0.75C181.142 223.517 180.077 219.868 177.489 209.517zM127.009 236.896c-28.229-0.85-46.33 0.71-64.63-0.079 -0.101-0.005-0.202-0.013-0.303-0.017 0.586-10.989 1.823-25.713 2.103-51.044 0.452-48.899-16.046-69.102-13.336-111.208 0.227-0.008 0.457-0.022 0.677-0.012 0.25 0.01 0.49 0.04 0.72 0.08 1.22 0.17 2.3 0.61 3.27 1.12 0 0.03 0 0.06-0.01 0.08 0.02-0.02 0.03-0.04 0.04-0.06 0.13 0.07 0.25 0.14 0.38 0.22 0-0.05 0.01-0.1 0.02-0.15 0.05-0.27 0.1-0.55 0.16-0.83 0-0.04 0.01-0.07 0.02-0.11 0.66-3.27 1.79-6.85 3.17-10.28 -0.54 3.17-0.78 6.05-0.84 8.6 0 0.06-0.01 0.12 0 0.18 0.24-0.07 0.48-0.13 0.72-0.16 3.13-0.44 6.75 2.02 9.58 1.98 0.67-0.05 1.31-0.28 1.95-0.51 0.16-0.07 0.31-0.12 0.47-0.18 0.31-4.51 0.82-9.25 1.05-11.59 0.53-5.39 1.31-10.91 3.57-15.8 -1.09 5.09-1.83 13.05-1.3 26.74 0 0.04 0.01 0.08 0.01 0.12 0.2-0.02 0.41-0.04 0.62-0.04 0.82-0.03 1.67 0.06 2.52 0.19 0.1 0.01 0.2 0.03 0.29 0.04 1.53 0.25 3.07 0.6 4.57 0.62 0.12 0 0.23 0 0.35-0.01 0-0.04 0-0.07 0-0.11 0.01-2.05 0.18-4.74 0.59-8.73 0.14-1.21 0.25-2.42 0.35-3.63 0.39 6.06 1.1 10.09 1.79 13.3 0 0.02 0.01 0.05 0.01 0.07 0.14-0.03 0.27-0.06 0.39-0.09 1.93-0.49 2.02-0.59 4.55-0.58 1.16 0 2.06 0.13 2.91 0.08 0.2-0.01 0.4-0.03 0.59-0.07 0-0.05-0.01-0.1-0.01-0.14 -0.17-2.02-0.24-3.89-0.18-5.14 0.14-3.1 1.56-15 3.28-24.02 -0.01 9.93 1.6 15.67 2.9 24.94 0.26 1.86 0.52 3.71 0.88 5.53 0.01 0.06 0.02 0.12 0.029 0.19 0.131-0.02 0.271-0.03 0.41-0.03 1.84-0.03 4 0.75 6.11 1.06 0.13 0.02 0.26 0.04 0.38 0.05 0-0.15 0-0.29 0-0.43 0-1.05 0-1.88 0-2.24 -0.01-1.27 0-2.36 0.01-3.29 0.04 2.49 0.19 3.89 0.63 5.58 0.04 0.14 0.08 0.29 0.131 0.45 0.159 0 0.319 0.01 0.47 0.01 0.149-0.01 0.29-0.01 0.43-0.02 1.79-0.11 3.5-0.72 5.26-1.02 0.62-0.11 1.2-0.15 1.75-0.12 0.2 0 0.4 0.02 0.601 0.04 0.01-0.08 0.01-0.17 0-0.25 0.029-1.56 0.029-3.4 0.01-5.6 -0.13-14.33-0.6-15.11-1.9-27.1 4.295 16.023 5.57 33.176 5.57 33.176s1.846-0.128 2.642-0.266c0.438-3.102 2.152-21.467 1.318-26.35 2.63 8.55 2.33 15.2 2.521 25.58 0.01 0.03 0.01 0.06 0.01 0.09 0.18-0.06 0.359-0.11 0.54-0.14 2.67-0.55 5.96 0.38 9 0.14 0.09-0.01 0.18-0.02 0.27-0.03 0-0.03-0.01-0.06-0.01-0.1 -0.4-8.32-0.64-14.98-2.45-21.26 2.181 5.68 4.08 13 4.95 20.66 0 0.02 0.01 0.04 0.01 0.07 0 0.05 0.011 0.1 0.011 0.15 0.01 0.03 0.01 0.06 0.02 0.1 0.08 0.01 0.16 0.01 0.25 0.02 1.23 0.11 2.47 0.19 3.65 0.05 1.994-0.247 3.513-1.582 5.379-2.165 0.667 15.533-3.643 42.797-5.319 54.003 -0.839 5.757-1.671 11.249-2.304 16.2 -4.776 36.774-4.247 71.054-2.08 93.846C135.446 237.146 131.398 237.029 127.009 236.896zM161.339 237.787c-1.8-7.09-3.66-14.75-4.26-17.54 -4.78-22.08-6.68-57.7-2.35-79.69 -4.511 19.601-5.551 53.73 1.359 80.94 0.95 3.74 2.66 9.79 4.641 16.28 -5.631-0.109-12.501-0.275-20.942-0.51 -0.994-13.384-1.845-33.824-0.302-56.421 2.255-36.467 10.913-86.177 9.76-107.737 0.274-0.075 0.549-0.15 0.834-0.203 0.24-0.05 0.48-0.09 0.72-0.13 0.96-0.15 1.94-0.25 2.9-0.38 0.12-0.02 0.25-0.04 0.37-0.06 -0.021-0.09-0.03-0.18-0.03-0.28 -0.74-6.93-2.86-22.16-9.47-35.44 -1.13-2.28-2.32-4.61-3.88-6.63 -3.04-3.91-13.34-16.09-17.87-17.71 5.41 2.95 13.46 13.25 17.09 18.32 3.9 5.53 11.52 24.85 13.56 40.08 0.061 0.47 0.131 0.95 0.19 1.42 -0.97 0.08-1.96 0.1-2.93 0.23 -0.24 0.03-0.471 0.06-0.7 0.11 -0.42 0.08-0.83 0.18-1.23 0.32 -1.93 0.68-3.449 2.17-5.54 2.4 -1.109 0.13-2.26 0.1-3.399 0.05 0-0.09-0.01-0.18-0.021-0.27 0.011-0.01 0.03-0.01 0.04-0.02 -0.01 0-0.029 0-0.04 0.01 -0.279-4.54-0.79-8.8-1.95-13.38 -0.579-2.27-2.67-7.84-5.1-12.25 -0.4-0.72-0.8-1.4-1.21-2.04 0.3 0.67 0.59 1.35 0.85 2.05 2.421 6.29 3.271 14.06 4.381 26.28 -2.79 0.02-6.21-0.83-8.98-0.13 0.23-8.92 0.4-16.72-3.11-26.27 -0.09-0.27-0.189-0.53-0.29-0.8 0 0.22 0 0.43 0 0.65 0.018 10.723-0.445 18.599-1.341 27.3 -0.002 0-1.868 0.208-1.868 0.208 -0.281-6.221-0.846-14.428-1.7-19.028 -1.32-7.09-2.931-12.55-4.62-17.04 -0.29-0.8-0.58-1.55-0.88-2.28 0.02 0.47 0.05 0.94 0.08 1.41 0.02 0.3 0.039 0.59 0.06 0.89 1.37 19.23 2.05 29.71 2.33 35.64 -0.43-0.02-0.91-0.01-1.45 0.05 -1.93 0.2-3.81 0.71-5.75 0.89 -0.1 0.01-0.2 0.02-0.31 0.01 -0.641-3.39-0.811-6.35-0.92-9.67 -0.011-0.01-0.011-0.03 0-0.04 -0.011-0.19-0.021-0.37-0.021-0.56 -0.08 0.39-0.15 0.79-0.21 1.18 -0.36 2.21-0.51 4.46-0.47 6.73 0.01 0.39 0.04 1.22 0.08 2.26 -1.971-0.27-4.221-1-6.13-0.84 -0.41-2.81-0.541-5.15-0.601-5.79 -0.5-5.21-2.49-17.76-2.67-28.99 -0.01-0.83-0.01-1.65 0-2.46 -0.03 0.08-0.06 0.17-0.09 0.26 -0.24 0.73-0.49 1.52-0.73 2.38 -2.43 8.47-4.82 22.83-3.8 33.37 -1.58 0.02-2.19-0.74-7.46 0.6 -0.66-4.44-1.37-9.72-1.83-16.91 -0.05-0.68-0.09-1.39-0.12-2.11 -0.13 0.69-0.27 1.39-0.4 2.12 -0.85 4.72-1.57 10.17-1.12 16.04 -1.97-0.09-3.37-0.38-4.54-0.6 -0.09-0.02-0.19-0.04-0.28-0.06 -0.91-0.17-1.7-0.29-2.55-0.22 0.04-9.19 0.5-23.44 1.29-27.48 0.05-0.24 0.1-0.48 0.15-0.72 0.04-0.19 0.08-0.38 0.13-0.57 -0.24 0.37-0.46 0.73-0.67 1.11 0 0 0 0 0 0.01 -2.87 5.07-4 11.09-4.68 16.86 -0.26 2.15-0.57 6.99-0.64 11.66 -0.66 0.18-1.32 0.34-1.98 0.36 -2.37 0.18-5.19-2.63-9.53-1.96 0.26-2.61 0.69-5.89 1.39-10.11 0.13-0.77 0.27-1.54 0.43-2.3 0.12-0.56 0.24-1.12 0.37-1.68 1.53-6.51 4.05-12.69 7.29-18.56 -4.84 7.94-7.48 15.26-8.86 21.6 -2.1 4.37-3.69 9.15-4.28 13.58 -0.96-0.58-2.05-1.07-3.28-1.24 -0.23-0.05-0.46-0.07-0.7-0.07 -0.67-0.05-1.38 0.01-2.14 0.2 1.06-5.01 2.81-10.72 4.72-16.16 0.05-0.14 0.1-0.27 0.14-0.41 2.31-6.51 4.81-12.58 6.62-16.49 4.05-8.76 9.38-13.92 17.64-22.9 -7.84 7.83-14.29 13.62-18.31 21.5 -2.34 4.59-4.76 9.25-6.34 14.17 -1.32 4.14-3.99 12.8-5.18 20.49 -0.02 0.08-0.03 0.16-0.04 0.23 0.24-0.08 0.47-0.13 0.7-0.18 0.484-0.101 0.939-0.145 1.384-0.166 -1.706 21.073 1.026 39.395 7.971 68.821 0 0 1.324 6.811 2.002 12.007 2.208 19.151 1.688 29.073 1.495 63.551 0.009 5.47-0.461 11.988-0.714 17.839 -5.923-0.293-11.821-0.83-17.718-1.401 0.91-2.79 1.93-5.59 2.73-8.08 4.77-14.79 7.95-48.95 1.23-86.431 4.23 28.811 3.22 58.641-0.75 81.271 -0.67 3.82-2.34 8.6-3.64 13.2 -6.5-0.63-12.99-1.271-19.51-1.61 -3.19-0.17-6.16-0.24-9.08-0.29 16.37-39.41 18.46-57.8 16.27-124.56 -0.68-20.86-1.4-40.54 8.37-65.61 16.17-41.49 46.03-49.89 65.84-44.35 0.189 0.04 0.38 0.1 0.57 0.15 0.27-0.03 0.54-0.07 0.81-0.1 9.23-1.1 16.92 0.36 26.6 7.13 23.62 16.52 35.21 48.19 36.87 76.97 1.65 28.58-4.13 64.52 0.98 100.85 1.78 12.64 5.04 24.949 8.85 37.12 0.44 1.51 3.83 9.34 6.96 16.529C183.339 237.917 177.659 238.097 161.339 237.787z"/><path fill="#ffffff" opacity="0.2" d="M144.81 91.54C142.14 98.8 135.17 104 127 104c-10.48 0-19-8.52-19-19 0-3.42 0.92-6.62 2.51-9.4C128.02 74.06 138.37 78.97 144.81 91.54zM56.51 75.6C54.92 78.38 54 81.58 54 85c0 10.48 8.52 19 19 19 8.17 0 15.14-5.2 17.81-12.46C84.37 78.97 74.02 74.06 56.51 75.6z"/><path fill="#ffffff" opacity="0.4" d="M110.51 75.6c3.28-5.73 9.43-9.6 16.49-9.6 10.48 0 19 8.52 19 19 0 2.3-0.43 4.5-1.19 6.54C138.37 78.97 128.02 74.06 110.51 75.6zM90.81 91.54C91.57 89.5 92 87.3 92 85c0-10.48-8.52-19-19-19 -7.06 0-13.22 3.88-16.49 9.6C74.02 74.06 84.37 78.97 90.81 91.54z"/><path fill="#26120b" opacity="1" d="M156.69 79.96l-9.77 3.44C146.1 73.1 137.51 65 127 65c-9.41 0-17.28 6.51-19.41 15.26 -0.01 0-0.01-0.01-0.02-0.02 -1.69-1.69-4.97-2.51-7.57-2.51s-5.88 0.83-7.57 2.51c-0.01 0-0.01 0.01-0.02 0.02C90.28 71.5 82.41 65 73 65c-10.51 0-19.1 8.11-19.92 18.4l-9.77-3.44v2.88l9.76 3.43C53.73 96.72 62.39 105 73 105c11.05 0 20-8.95 20-20 0-0.31-0.03-0.62-0.05-0.93 0.01 0 0.02 0 0.03 0 0-2.39 3.6-4.68 7.02-4.68s7.02 2.3 7.02 4.68c0.01 0 0.02 0 0.03 0C107.03 84.38 107 84.69 107 85c0 11.05 8.95 20 20 20 10.61 0 19.27-8.27 19.94-18.72l9.76-3.43V79.96zM73 103.5c-10.22 0-18.5-8.28-18.5-18.5 0-10.22 8.28-18.5 18.5-18.5S91.5 74.78 91.5 85C91.5 95.22 83.22 103.5 73 103.5zM127 103.5c-10.22 0-18.5-8.28-18.5-18.5 0-10.22 8.28-18.5 18.5-18.5s18.5 8.28 18.5 18.5C145.5 95.22 137.22 103.5 127 103.5z"/></svg>