<svg xmlns="http://www.w3.org/2000/svg" viewBox="0 0 200 200" width="200" height="200"><defs><linearGradient id="gradient-4" x1="100" x2="100" y1="172" y2="128.5"><stop offset="0" stop-color="#e1ac8f" stop-opacity="0.8"/><stop offset="0.7" stop-color="#c27b55" stop-opacity="1"/></linearGradient><radialGradient id="gradient-18" cx="100" cy="114" r="41"><stop offset="0" stop-color="#ffe4d6" stop-opacity="0.5"/><stop offset="0.9" stop-color="#f0c7b1" stop-opacity="0"/></radialGradient><radialGradient id="gradient-19" cx="100" cy="54" r="37"><stop offset="0" stop-color="#ffe4d6" stop-opacity="0.5"/><stop offset="0.9" stop-color="#f0c7b1" stop-opacity="0"/></radialGradient><radialGradient id="gradient-28" cx="125.903" cy="85.096" r="13.25" gradientTransform="matrix(-1.0996 0.0423 0.0635 0.9207 206.5488 0.5932)"><stop offset="0" stop-color="#FFFFFF" stop-opacity="1"/><stop offset="0.544" stop-color="#FDFEFE" stop-opacity="1"/><stop offset="0.74" stop-color="#F6F8F9" stop-opacity="1"/><stop offset="0.879" stop-color="#EAEFF2" stop-opacity="1"/><stop offset="0.992" stop-color="#D9E3E8" stop-opacity="1"/><stop offset="1" stop-color="#D8E2E7" stop-opacity="1"/></radialGradient><radialGradient id="gradient-29" cx="125.541" cy="85.113" r="13.249" gradientTransform="matrix(1.0996 0.0423 -0.0635 0.9207 -6.5488 0.5932)"><stop offset="0" stop-color="#FFFFFF" stop-opacity="1"/><stop offset="0.544" stop-color="#FDFEFE" stop-opacity="1"/><stop offset="0.74" stop-color="#F6F8F9" stop-opacity="1"/><stop offset="0.879" stop-color="#EAEFF2" stop-opacity="1"/><stop offset="0.992" stop-color="#D9E3E8" stop-opacity="1"/><stop offset="1" stop-color="#D8E2E7" stop-opacity="1"/></radialGradient><radialGradient id="gradient-66" cx="123.371" cy="81.442" fx="136.805" fy="80.36" r="17.038" gradientTransform="matrix(0.9884 0.1367 0.1336 -0.7354 -56.0677 125.3)"><stop offset="0" stop-color="#e1ac8f" stop-opacity="1"/><stop offset="0.7" stop-color="#e1ac8f" stop-opacity="0.3"/><stop offset="1" stop-color="#f0c7b1" stop-opacity="0"/></radialGradient><radialGradient id="gradient-67" cx="78.965" cy="81.143" r="26.237" gradientTransform="matrix(0.7183 -0.06 0.0803 0.6143 8.7915 49.2595)"><stop offset="0.95" stop-color="#000000" stop-opacity="0"/><stop offset="1" stop-color="#000000" stop-opacity="0.2"/></radialGradient><radialGradient id="gradient-68" cx="122.972" cy="81.425" fx="136.406" fy="80.344" r="17.037" gradientTransform="matrix(-0.9884 0.1367 -0.1336 -0.7354 255.271 125.3424)"><stop offset="0" stop-color="#e1ac8f" stop-opacity="1"/><stop offset="0.7" stop-color="#e1ac8f" stop-opacity="0.3"/><stop offset="1" stop-color="#f0c7b1" stop-opacity="0"/></radialGradient><radialGradient id="gradient-69" cx="79.515" cy="81.186" r="26.237" gradientTransform="matrix(-0.7183 -0.06 -0.0803 0.6143 191.2076 49.2665)"><stop offset="0.95" stop-color="#000000" stop-opacity="0"/><stop offset="1" stop-color="#000000" stop-opacity="0.2"/></radialGradient><linearGradient id="gradient-118" x1="132" x2="126" y1="78" y2="84" gradientTransform="matrix(1 0 0 1 -50 0)"><stop offset="0" stop-color="#FFFFFF" stop-opacity="1"/><stop offset="1" stop-color="#FFFFFF" stop-opacity="0"/></linearGradient><linearGradient id="gradient-119" x1="132" x2="126" y1="78" y2="84"><stop offset="0" stop-color="#FFFFFF" stop-opacity="1"/><stop offset="1" stop-color="#FFFFFF" stop-opacity="0"/></linearGradient><linearGradient id="gradient-132" x1="100" x2="100" y1="144" y2="141"><stop offset="0.1" stop-color="#e8b9a0" stop-opacity="1"/><stop offset="1" stop-color="#e1ac8f" stop-opacity="1"/></linearGradient></defs><path fill="#ecf0f1" opacity="1" d="M225,225H-25V-25h250V225z"/><path fill="#c6dce2" opacity="1" d="M137.635-25h14.142L225,48.224v14.142L137.635-25z M225,90.649V76.507L123.492-25h-14.142L225,90.649z M225,118.934v-14.142L95.208-25H81.065L225,118.934z M225,147.219v-14.143L66.925-25H52.782L225,147.219z M225,225v-7.071L-17.929-25H-25v7.071L217.929,225H225z M225,5.796V-8.345L208.345-25h-14.142L225,5.796z M225,34.081V19.939L180.061-25h-14.142L225,34.081z M225,175.503V161.36L38.64-25H24.497L225,175.503z M222.487-25L225-22.487V-25H222.487z M48.224,225h14.143L-25,137.635v14.142L48.224,225z M19.938,225h14.143L-25,165.919v14.143L19.938,225z M-8.345,225H5.798L-25,194.203v14.143L-8.345,225z M76.507,225h14.143L-25,109.351v14.142L76.507,225z M-22.487,225L-25,222.487V225H-22.487z M161.36,225h14.143L-25,24.497V38.64L161.36,225z M104.792,225h14.142L-25,81.066v14.142L104.792,225z M189.645,225h14.142L-25-3.787v14.142L189.645,225z M225,203.787v-14.143L10.354-25H-3.786L225,203.787z M133.076,225h14.142L-25,52.782v14.142L133.076,225z"/><path fill="#2a232b" opacity="1" d="M100.5,100.5h-1v-1h1V100.5z"/><path fill="#f0c7b1" opacity="1" d="M195.417 199.778c-2.196-4.746-8.195-11.779-14.86-13.722 -8.239-2.403-26.837-5.308-33.733-6.923 -5.528-1.296-16.662-11.294-20.564-14.65 -0.7-0.6-1.273-1.839-1.287-2.76 -0.139-10.864 4.195-39.724 4.195-39.724H100 70.833c0 0 4.334 28.859 4.193 39.724 -0.011 0.921-0.587 2.16-1.285 2.76 -3.902 3.356-15.036 13.354-20.564 14.65 -6.897 1.615-25.495 4.619-33.733 7.022 -6.667 1.942-12.664 8.876-14.86 13.622 -3.708 8.008-4.584 22.5-4.584 35h100 100C200 222.278 199.123 207.786 195.417 199.778z"/><path fill="#ffe4d6" opacity="1" d="M159.156 184.058c24.342 3.542 34.586 8.708 37.794 50.721H200c0-12.5-0.877-26.992-4.583-35 -2.196-4.746-8.195-11.779-14.86-13.722 -8.239-2.403-26.837-5.308-33.733-6.923 -5.528-1.296-18.242-12.069-21.643-16.35 3.36 4.704 12.791 15.605 21.054 18.46C150.188 182.61 153.48 183.232 159.156 184.058zM53.766 181.244c8.263-2.854 17.693-13.756 21.054-18.46 -3.4 4.28-16.114 15.054-21.643 16.35 -6.896 1.615-25.494 4.619-33.733 7.022 -6.665 1.942-12.664 8.876-14.86 13.622 -3.706 8.008-4.583 22.5-4.583 35h3.05c3.188-41.744 13.475-47.183 37.794-50.721C46.52 183.232 49.813 182.61 53.766 181.244z"/><path fill="#e1ac8f" opacity="1" d="M95.646 197.62c0 0-5.074-1.609-7.083-2.379 -10.449-4.009-44.395-6.607-44.395-6.607s35.754 1.419 43.644 2.779c-0.458-4.767-3.017-20.004-3.017-20.004s5.149 16.815 6.409 21.057C91.878 194.734 95.646 197.62 95.646 197.62zM106.445 196.278c-0.089 0.073-0.191 0.168-0.302 0.268C106.256 196.461 106.358 196.372 106.445 196.278zM95.646 197.62c0 0 2.893 2.992 4.347 3.03 1.91 0.051 4.828-2.899 6.151-4.104 -1.265 0.957-4.159 1.391-5.31 1.436C99.504 198.033 95.646 197.62 95.646 197.62zM116.664 190.101c-1.545 0.248-4.386 0.789-4.386 0.789l2.287-14.89c-0.646 3.071-4.474 16.211-8.12 20.278 1.91-1.616 6.158-2.391 8.324-2.704 10.236-1.484 10.232-1.483 41.062-4.94C155.831 188.634 126.76 188.479 116.664 190.101z"/><path fill="none" opacity="1" d="M195.417 199.778c-2.196-4.746-8.195-11.779-14.86-13.722 -8.239-2.403-26.837-5.308-33.733-6.923 -5.528-1.296-16.662-11.294-20.564-14.65 -0.7-0.6-1.273-1.839-1.287-2.76 -0.139-10.864 4.195-39.724 4.195-39.724H100 70.833c0 0 4.334 28.859 4.193 39.724 -0.011 0.921-0.587 2.16-1.285 2.76 -3.902 3.356-15.036 13.354-20.564 14.65 -6.897 1.615-25.495 4.619-33.733 7.022 -6.667 1.942-12.664 8.876-14.86 13.622 -3.708 8.008-4.584 22.5-4.584 35h100 100C200 222.278 199.123 207.786 195.417 199.778z" stroke="#c27b55" stroke-width="1.5"/><path fill="url(#gradient-4)" opacity="1" d="M117.136 169.742c2.515-1.069 5.217-3.028 7.927-5.519 -0.494-0.746-0.828-1.684-0.841-2.49 -0.093-7.296 1.775-22.369 3.054-31.753 -15.779-1.925-38.771-1.917-54.549 0.014 1.278 9.384 3.145 24.446 3.05 31.738 -0.01 0.789-0.348 1.735-0.84 2.485 2.712 2.493 5.416 4.454 7.932 5.524C90.312 172.907 109.693 172.907 117.136 169.742z"/><path fill="#386e77" opacity="1" d="M-5.95 234.616c-0.097-1.305 0.096-7.32 0.182-9.162 1.676-34.52 9.815-34.842 45.602-46.602 17.162-5.637 21.952-7.468 28.06-21.871 1.732-4.086 3.229-7.618 6.451-8.872 16.41 10.047 30.559 9.724 50.891 1.363 3.773 0.586 4.934 5.929 5.811 9.79 5.64 23.845 40.362 18.461 55.969 28.298 16.196 8.864 16.935 38.516 16.775 47.393 0.004 0.026 0.006 0.046 0.007 0.065C182.728 236.014 20.313 236.492-5.95 234.616z"/><path fill="#265e68" opacity="1" d="M182.492 222.599c0.909-12.229 1.182-21.815 4.462-33.152 -4.75 17.574 1.584 31.396-7.798 41.009C180.333 227.314 182.202 226.501 182.492 222.599zM18.51 206.248c-1.726-4.69-3.941-10.92-4.77-18.307 -0.301 0.161-0.422-0.745-0.714-0.586 1.192 13.22 5.083 20.817 6.268 40.019C19.107 220.494 20.157 210.726 18.51 206.248zM123.111 150.582c-0.624 0.172-1.25 0.928-1.879 1.073 8.78 8.904 3.019 12.265 15.854 27.903 0.357-0.199 1.519-0.911 2.917-1.814C131.547 172.431 129.646 159.234 123.111 150.582zM127.984 178.849c0.48 1.599 1.182 2.956 1.996 4.292 -0.49 0.207-0.975 0.433-1.471 0.623 -2.536-3.662-4.971-7.31-6.589-14.88 -1.671-7.814-0.948-6.651-6.375-15.19 0.343-0.058 1.023-0.493 1.554-0.587C122.234 161.005 124.345 169.755 127.984 178.849zM136.27 180.046c-0.518 0.298-1.04 0.58-1.564 0.862 -7.207-8.34-10.05-18.66-14.846-28.339 0.329-0.071 0.974-0.979 1.275-1.044 4.255 5.021 4.237 7.511 5.529 11.985C128.348 169.113 132.925 176.335 136.27 180.046zM112.113 155.051c3.854 11.032 6.377 19.741 7.078 31.438 -0.504 0.103-1.006 0.203-1.511 0.289 -0.698-6.112-1.601-12.464-1.867-13.927 -1.064-5.854-2.984-13.68-4.724-17.654C111.433 155.154 111.771 155.1 112.113 155.051zM127.576 184.12c-0.596 0.221-1.197 0.421-1.799 0.618 -6.32-8.721-6.205-20.123-11.174-31.226 0.194-0.03 0.499-0.051 0.693-0.08 5.517 10.376 3.757 7.383 6.258 17.906C122.863 176.839 125.571 181.785 127.576 184.12zM116.725 186.932c-0.396 0.063-0.801 0.106-1.202 0.158 -1.437-11.685-2.015-20.899-5.835-31.754 0.268-0.024 0.536-0.04 0.802-0.066C113.948 164.7 115.354 178.074 116.725 186.932zM90.506 155.457C87 166.149 86.255 174.5 85.584 185.779c-0.396-0.076-0.796-0.149-1.187-0.229 0.301-9.598 1.511-21.52 5.259-30.177C89.94 155.404 90.223 155.426 90.506 155.457zM73.665 182.298c-0.45-0.18-0.903-0.353-1.352-0.55 5.427-7.417 7.915-19.667 8.576-29.212 0.356 0.099 0.712 0.182 1.067 0.271C82.212 164.065 78.521 172.691 73.665 182.298zM89.11 155.313c-4.297 8.516-5.687 20.342-5.506 30.059 -0.343-0.077-0.664-0.163-0.999-0.241 -0.362-11.391 0.919-20.313 5.481-30.088C88.43 155.086 88.762 155.276 89.11 155.313zM63.765 177.669c-0.565-0.305-1.131-0.608-1.691-0.924 3.012-2.229 6.067-5.612 8.114-9.492 1.842-3.49 6.022-13.854 6.88-17.206 0.288 0.127 0.583 0.226 0.875 0.336C75.729 161.135 71.003 170.933 63.765 177.669zM71.647 181.475c-0.6-0.258-1.188-0.543-1.782-0.813 5.091-9.12 7.394-19.314 8.429-30.16 0.66 0.242 1.321 1.667 1.983 1.856C78.754 162.773 77.147 172.728 71.647 181.475zM76.713 149.903c-0.697 2.172-1.653 4.229-2.629 6.328 -2.326 5.216-4.664 13.816-12.697 20.111 -0.582-0.331-1.159-0.674-1.736-1.018 7.396-6.788 11.247-16.835 15.192-26.102C75.445 149.477 76.07 149.619 76.713 149.903z"/><path fill="#4d7e86" opacity="1" d="M57.333 175.454l-2.069-1.538c-22.055 9.523-41.926 2.852-56.539 29.547 -3.991 7.288-4.545 18.273-4.545 31.377C1.369 178.39 18.115 196.628 57.333 175.454zM196.71 207.091c5.439 11.127 4.946 21.213 7.122 27.749 0-13.104-2.448-23.057-5.272-30.988 -8.032-22.559-35.624-20.007-53.664-27.794l-2.069 1.536C164.723 190.902 184.014 181.115 196.71 207.091z"/><path fill="#0c4049" opacity="1" d="M187.067 187.455c-13.433-10.616-50.315-4.529-55.917-28.223 -0.701-3.026-1.827-9.248-5.936-9.876 -0.202 0.047-0.816-0.155-0.815-0.155 -16.182 7.008-33.106 9.09-50.09-1.202 -7.632 2.969-5.548 18.164-19.974 25.281 -6.29 3.161-14.488 3.445-26.402 7.406 -29.668 9.339-33.597 21.576-33.808 44.76 -0.078 1.682-0.293 8.174-0.172 9.284 29.106 2.102 194.721 1.151 209.945 0.402 0.011-0.057 0.011-0.119 0-0.178C204.205 217.771 202.179 196.583 187.067 187.455zM125.622 150.046c7.731 2.875-0.892 16.031 17.001 25.962 -2.362 1.614-4.969 3.234-5.537 3.551 -12.835-15.639-6.916-17.92-15.212-27.548C123.412 151.239 124.185 150.545 125.622 150.046zM121.456 152.115c4.254 5.024 3.916 6.921 5.208 11.396 1.684 5.603 6.261 12.824 9.605 16.535 -2.501 1.44-5.099 2.693-7.76 3.718 -2.536-3.662-4.731-7.344-6.481-14.88 -1.543-6.639-1.004-7.17-6.162-15.076C116.939 153.64 119.765 152.504 121.456 152.115zM115.404 153.906c5.516 10.378 3.649 6.909 6.15 17.433 1.309 5.5 4.017 10.446 6.021 12.781 -3.23 1.19-6.547 2.086-9.896 2.657 -0.698-6.112-1.518-12.459-1.76-13.927 -1.073-6.498-3.092-13.68-4.831-17.654C112.464 155.04 114.042 154.132 115.404 153.906zM110.489 155.27c3.459 9.431 4.864 22.805 6.235 31.662 -3.158 0.499-6.508 0.68-9.638 0.68 -0.001-0.03-2.036-18.832-2.834-31.169C106.43 156.083 108.718 155.811 110.489 155.27zM103.717 156.468c0.053 13.91 1.025 17.525 2.586 31.154 -3.744 0.013-7.48-0.178-11.226-0.536 2.538-23.363 3.81-30.534 3.81-30.534C100.866 156.552 102.659 156.505 103.717 156.468zM98.222 156.552c-2.98 18.285-3.49 22.712-3.842 30.464 -3.423-0.319-6.789-0.796-9.981-1.466 0.301-9.598 1.511-21.52 5.259-30.177C92.501 155.697 95.367 156.54 98.222 156.552zM89.11 155.313c-4.297 8.516-5.687 20.342-5.506 30.059 -4.157-0.918-7.729-2.095-11.291-3.623 5.427-7.417 7.915-19.667 8.576-29.212C83.596 153.271 86.459 154.663 89.11 155.313zM80.277 152.358c-1.523 10.415-3.13 20.369-8.629 29.116 -3.263-1.392-6.461-2.979-9.574-4.729 3.012-2.229 6.067-5.612 8.114-9.492 1.842-3.49 5.915-13.619 6.772-16.967C78.012 150.739 79.204 152.049 80.277 152.358zM74.094 148.831c0.827 0.561 1.599 0.903 2.511 1.312 -0.697 2.168-1.545 3.99-2.521 6.089 -2.326 5.216-4.664 13.816-12.697 20.111 -1.492-0.848-2.973-1.743-4.422-2.682C69.393 166.228 67.293 152.256 74.094 148.831zM-5.575 234.432c0.146-4.763 1.287-20.803 3.861-28.177 3.32-9.512 8.278-13.597 14.589-17.326 -0.432 11.225 4.791 15.313 5.13 28.729 0.096 4.063 0.601 8.052 1.213 12.056 -0.28-4.207-0.397-8.378-0.376-12.595 0.062-12.207-4.884-17.006-4.884-28.632 13.355-7.608 35.654-10.696 41.794-14.135 14.15 10.354 27.314 15.818 50.819 15.665 17.036 0 26.96-4.89 37.458-13.234 14.42 6.477 31.095 4.024 42.352 12.997 -1.776 5.867-2.995 8.928-3.326 12.126 -0.768 7.53 0.372 12.885-0.602 19.802 -0.569 4.015-3.35 6.969-4.101 10.913 2.186-7.389 6.127-4.682 5.646-22.101 -0.276-9.824 0.51-10.079 2.982-20.337 12.328 8.578 15.5 28.732 16.197 44.771C167.506 234.695 8.491 234.762-5.575 234.432z"/><path fill="#f0c7b1" opacity="1" d="M47.69 83.08c-1.588-2.376-8.025-7.833-11.703-6.994 -4.355 0.993-5.708 4.372-5.603 6.475 0.606 12.025 4.426 12.016 6.71 16.64 1.709 3.459 3.126 5.044 4.172 11.958 0.598 3.953 4.427 6.984 7.217 6.835 3.908-0.21 6.994-3.716 8.291-7.173C59.463 103.643 51.823 89.265 47.69 83.08z" stroke="#c27b55" stroke-width="1.5"/><path fill="#c27b55" opacity="1" d="M43.274 100.336c-0.15-0.554-0.062-1.507 0.024-2.43 0.077-0.84 1.438-3.888 1.348-4.44 -0.344-2.068-1.931-5.94-2.949-8.031 -1.169-2.403-3.604-5.409-5.79-6.078 -0.904-0.278-3.479 0.04-3.781 0.639 -1.131 2.241-0.615 4.411 1.1 10.21 0.85 2.873 3.915 6.207 3.998 6.54 1.067 4.343 5.099 11.284 6.488 12.839 0.256 0.288 0.519 0.452 0.579 0.376 0.059-0.077-0.104-0.368-0.361-0.656 -1.372-1.547-5.367-8.471-6.396-12.662 -1.092-4.446 2.313-11.346 2.93-12.8 0.379 0.642 0.703 1.261 0.954 1.777 0.198 0.406 0.417 0.881 0.645 1.396 -0.367 0.76-4.245 6.367-3.026 10.606 0.451 1.563 2.054 4.592 3.432 6.187 0.483 0.559 0.893 0.717 1.19 1.234 0.341 0.599 0.732 1.279 1.792 1.726 0.215 0.091 0.408 0.121 0.577 0.111 0.293-0.02 0.51-0.161 0.667-0.326 0.029 0.271 0.044 0.617 0.051 0.94 0.007 0.413 0.073 0.752 0.162 0.755s0.168-0.333 0.161-0.746c-0.009-0.509-0.04-1.14-0.132-1.437 -0.273-0.873-1.028-1.832-1.829-2.844C44.319 102.226 43.505 101.193 43.274 100.336zM36.96 94.639c-2.347-6.779-1.518-13.668-1.103-14.643 1.345 0 3.778 2.495 4.397 3.498C39.874 84.351 36.837 89.99 36.96 94.639zM45.559 106.414c-0.961-0.403-1.303-1.001-1.635-1.58 -0.299-0.524-1.018-1.022-1.346-1.378 -0.191-0.209-0.531-0.767-0.715-0.892 -1.762-7.606 1.345-10.382 1.967-10.964 0.231 0.729 0.411 1.399 0.5 1.939 0.082 0.496-1.28 3.552-1.352 4.327 -0.089 0.961-0.182 1.954-0.012 2.583 0.253 0.938 1.093 2 1.904 3.028 0.72 0.912 1.459 1.852 1.732 2.639C46.509 106.282 46.204 106.686 45.559 106.414z"/><path fill="#f0c7b1" opacity="1" d="M152.049 83.08c1.588-2.376 8.025-7.833 11.701-6.994 4.357 0.993 5.709 4.372 5.604 6.475 -0.605 12.025-4.426 12.016-6.709 16.64 -1.711 3.459-3.127 5.044-4.174 11.958 -0.598 3.953-4.428 6.984-7.217 6.835 -3.908-0.21-6.994-3.716-8.291-7.173C140.275 103.643 147.916 89.265 152.049 83.08z" stroke="#c27b55" stroke-width="1.5"/><path fill="#c27b55" opacity="1" d="M154.633 103.222c-0.801 1.013-1.557 1.972-1.83 2.844 -0.092 0.297-0.123 0.928-0.131 1.437 -0.008 0.413 0.072 0.749 0.16 0.746 0.09-0.003 0.154-0.342 0.162-0.755 0.008-0.323 0.021-0.67 0.051-0.94 0.156 0.165 0.373 0.307 0.666 0.326 0.17 0.01 0.361-0.021 0.578-0.111 1.061-0.446 1.449-1.126 1.791-1.726 0.297-0.517 0.709-0.675 1.191-1.234 1.377-1.594 2.98-4.624 3.432-6.187 1.219-4.239-2.66-9.846-3.027-10.606 0.229-0.515 0.447-0.989 0.645-1.396 0.252-0.516 0.576-1.136 0.955-1.777 0.617 1.454 4.021 8.354 2.93 12.8 -1.029 4.191-5.025 11.115-6.396 12.662 -0.256 0.288-0.42 0.579-0.361 0.656 0.061 0.076 0.322-0.088 0.578-0.376 1.391-1.556 5.422-8.496 6.49-12.839 0.082-0.333 3.146-3.667 3.996-6.54 1.715-5.799 2.232-7.969 1.102-10.21 -0.303-0.599-2.877-0.917-3.783-0.639 -2.186 0.669-4.619 3.675-5.789 6.078 -1.018 2.09-2.605 5.963-2.949 8.031 -0.09 0.552 1.271 3.6 1.348 4.44 0.086 0.922 0.176 1.875 0.025 2.43C156.232 101.193 155.42 102.226 154.633 103.222zM159.484 83.494c0.619-1.003 3.053-3.498 4.396-3.498 0.416 0.975 1.244 7.864-1.104 14.643C162.902 89.99 159.863 84.351 159.484 83.494zM153.137 106.116c0.273-0.788 1.012-1.728 1.732-2.639 0.811-1.028 1.65-2.09 1.904-3.028 0.168-0.629 0.076-1.623-0.014-2.583 -0.07-0.775-1.434-3.831-1.352-4.327 0.09-0.54 0.27-1.21 0.5-1.939 0.623 0.582 3.729 3.358 1.967 10.964 -0.184 0.125-0.523 0.683-0.715 0.892 -0.328 0.356-1.047 0.854-1.346 1.378 -0.332 0.579-0.674 1.177-1.635 1.58C153.533 106.686 153.23 106.282 153.137 106.116z"/><path fill="#f0c7b1" opacity="1" d="M100.002 0.867C66.381 0.813 39.186 28.343 39.134 62.366c-0.008 5.403 0.669 10.645 1.953 15.641l0.004 0c0.011 0.054 8.713 39.241 14.519 51.175 6.073 12.487 23.814 32.685 44.392 32.685 20.582 0 38.32-20.197 44.392-32.685 5.805-11.935 14.507-51.122 14.519-51.175l0.005 0c1.283-4.997 1.961-10.238 1.952-15.641C160.819 28.343 133.623 0.813 100.002 0.867z"/><path fill="#e8b9a0" opacity="1" d="M120.754 4.512c21.441 9.489 36.411 31.135 36.45 56.363 0.008 5.403-0.669 10.645-1.953 15.641l-0.005 0c-0.011 0.054-8.713 39.24-14.519 51.177 -5.709 11.738-21.608 32.469-40.725 32.469s-35.016-20.73-40.725-32.469c-5.806-11.937-14.507-51.123-14.519-51.177l-0.004 0c-1.284-4.997-1.962-10.238-1.953-15.641 0.038-25.229 15.008-46.874 36.45-56.363 -23.386 8.55-40.076 31.208-40.117 57.854 -0.008 5.403 0.669 10.645 1.953 15.641l0.004 0c0.011 0.054 8.713 39.241 14.519 51.175 6.073 12.487 23.814 32.685 44.392 32.685 20.579 0 38.319-20.197 44.392-32.685 5.805-11.935 14.507-51.122 14.519-51.175l0.005 0c1.283-4.997 1.961-10.238 1.952-15.641C160.83 35.72 144.14 13.062 120.754 4.512z"/><path fill="none" opacity="1" d="M100.002 0.867C66.381 0.813 39.186 28.343 39.134 62.366c-0.008 5.403 0.669 10.645 1.953 15.641l0.004 0c0.011 0.054 8.713 39.241 14.519 51.175 6.073 12.487 23.814 32.685 44.392 32.685 20.582 0 38.32-20.197 44.392-32.685 5.805-11.935 14.507-51.122 14.519-51.175l0.005 0c1.283-4.997 1.961-10.238 1.952-15.641C160.819 28.343 133.623 0.813 100.002 0.867z" stroke="#c27b55" stroke-width="1.5"/><path fill="url(#gradient-132)" opacity="1" d="M99.983 144.169c-3.24 0-4.753-2.8-4.753-2.8s4.797 0.78 9.279-0.067C104.509 141.302 102.832 144.169 99.983 144.169z"/><path fill="#ffffff" opacity="1" d="M99.869 138.7c-8.472 0-12.247-2.608-15.517-6h31.035C112.672 136.172 108.709 138.7 99.869 138.7z"/><path fill="none" opacity="1" d="M99.869 138.7c-8.472 0-12.247-2.608-15.517-6h31.035C112.672 136.172 108.709 138.7 99.869 138.7z" stroke="#c27b55" stroke-width="0.75"/><path fill="url(#gradient-28)" opacity="1" d="M76.732 78.383c4.587 0.679 7.931 3.488 10.773 7.94 0.004 0.005 0.013 0.004 0.018 0.008 0.007 0.027 0.021 0.053 0.026 0.08 0.255 1.007-0.816 1.819-2.155 2.438 -4.771 0.609-9.359 1.489-14.194 0.87 -9.681-1.241-9.855-5.509-10.326-6.629 -0.252-1.101-0.325-1.417-0.311-2.473 2.332-1.366 4.043-1.647 5.854-2.005C68.541 78.194 73.268 77.868 76.732 78.383z"/><path fill="url(#gradient-29)" opacity="1" d="M122.867 78.383c-4.586 0.679-7.931 3.488-10.773 7.94 -0.004 0.005-0.012 0.004-0.018 0.008 -0.006 0.027-0.02 0.053-0.025 0.08 -0.256 1.007 0.815 1.819 2.154 2.438 4.771 0.609 9.359 1.489 14.194 0.87 9.681-1.241 9.855-5.509 10.325-6.629 0.253-1.101 0.325-1.417 0.312-2.473 -2.331-1.366-4.043-1.647-5.854-2.005C131.059 78.194 126.332 77.868 122.867 78.383z"/><path fill="#4e60a3" opacity="1" d="M79.788 85.588c-0.869 3.192-4.16 5.073-7.358 4.196 -3.195-0.876-5.083-4.178-4.212-7.371 0.868-3.195 4.167-5.076 7.362-4.198C78.773 79.09 80.658 82.392 79.788 85.588z" stroke="#152975" stroke-width="0.5"/><path fill="#6777b2" opacity="1" d="M73.265 80.413l-0.156-0.279c-0.548 0.218-1.076 0.445-1.575 0.687l0.37 0.894 -0.047 0.517 -1.426-0.839c-0.466 0.259-0.898 0.529-1.318 0.804l0.004 0.009 -0.489 0.55 0.781 0.799 -1.052 0.574 0.398 0.657 1.857 0.185 -1.741 1.181 1.863-0.103 -0.982 1.693 2.297-1.39 -0.618 2.364 1.329-2.184 0.256 2.343 0.384-2.072 0.353-0.043 0.5 2.35 0.152-0.705c0.201-0.052 0.718 0.704 0.915 0.651L74.736 86.5l1.282 2.556 -0.52-2.651 1.578 2.05c0.057-0.018 0.196-0.85 0.252-0.867l-0.982-1.469 1.785 0.539 -1.071-1.16 -0.86-0.712 3.586 0.803 -1.997-1.217 1.411-0.577 -3.055-0.309 3.021-1.602 -2.734 0.698 -0.736-0.399 -0.181-0.354 0.052-0.846 0.061-1.389 -1.248 2.198 -0.11-1.609 -0.157-0.421c-0.25 0.087-0.495 0.172-0.736 0.265L73.265 80.413z"/><path fill="#384b94" opacity="0.9" d="M79.856 82.755c-5.242 0.239-7.907 1.36-11.707 2.631 -0.732-3.229 1.298-6.438 4.53-7.164S79.125 79.525 79.856 82.755z"/><path fill="#000000" opacity="0.8" d="M74.869 81.998c-1.319-0.378-2.666 0.375-3.005 1.69 -0.342 1.308 0.452 2.678 1.771 3.056 1.32 0.379 2.667-0.375 3.009-1.684C76.987 83.745 76.19 82.376 74.869 81.998z"/><path fill="none" opacity="1" d="M74.869 81.998c-1.319-0.378-2.666 0.375-3.005 1.69 -0.342 1.308 0.452 2.678 1.771 3.056 1.32 0.379 2.667-0.375 3.009-1.684C76.987 83.745 76.19 82.376 74.869 81.998z" stroke="#152975" stroke-width="0.75"/><path fill="#ffffff" opacity="0.4" d="M69.631 87.56c0.613 0.973 1.426 1.706 2.578 1.95 1.326 0.281 1.477-1.483 0.528-1.685 -0.72-0.152-1.176-0.505-1.552-1.102C70.497 85.63 69.079 86.684 69.631 87.56L69.631 87.56z"/><path fill="url(#gradient-118)" opacity="1" d="M75.033 81.493c0.929 0.187 1.469 0.768 1.938 1.64 0.862 1.604 3.299 0.178 2.437-1.425 -0.757-1.408-2.019-2.613-3.625-2.938C73.726 78.355 73.438 81.171 75.033 81.493L75.033 81.493z"/><path fill="#4e60a3" opacity="1" d="M131.788 85.587c-0.869 3.193-4.16 5.074-7.358 4.196 -3.195-0.876-5.082-4.178-4.212-7.371 0.867-3.195 4.167-5.076 7.361-4.198C130.774 79.091 132.658 82.393 131.788 85.587z" stroke="#152975" stroke-width="0.5"/><path fill="#6777b2" opacity="1" d="M125.266 80.413l-0.155-0.278c-0.548 0.217-1.076 0.445-1.576 0.686l0.37 0.894 -0.047 0.517 -1.426-0.839c-0.467 0.259-0.898 0.529-1.317 0.804l0.004 0.009 -0.49 0.551 0.782 0.799 -1.052 0.573 0.397 0.657 1.857 0.185 -1.741 1.181 1.863-0.103 -0.982 1.692 2.296-1.39 -0.616 2.364 1.328-2.184 0.257 2.343 0.384-2.073 0.353-0.043 0.501 2.35 0.151-0.704c0.201-0.052 0.719 0.703 0.915 0.651l-0.585-2.556 1.283 2.556 -0.521-2.651 1.577 2.05c0.057-0.018 0.197-0.85 0.253-0.867l-0.982-1.469 1.786 0.538 -1.071-1.16 -0.859-0.712 3.586 0.802 -1.997-1.216 1.411-0.577 -3.054-0.308 3.021-1.603 -2.734 0.698 -0.736-0.399 -0.18-0.354 0.052-0.847 0.061-1.388 -1.247 2.198 -0.11-1.609 -0.156-0.422c-0.25 0.087-0.495 0.173-0.735 0.265L125.266 80.413z"/><path fill="#384b94" opacity="0.9" d="M131.855 82.755c-5.24 0.239-7.906 1.36-11.706 2.631 -0.731-3.229 1.298-6.438 4.53-7.164C127.911 77.495 131.126 79.525 131.855 82.755z"/><path fill="#000000" opacity="0.8" d="M126.87 81.998c-1.319-0.378-2.666 0.376-3.005 1.69 -0.343 1.308 0.451 2.678 1.77 3.056 1.322 0.379 2.668-0.375 3.009-1.684C128.987 83.745 128.189 82.376 126.87 81.998z"/><path fill="none" opacity="1" d="M126.87 81.998c-1.319-0.378-2.666 0.376-3.005 1.69 -0.343 1.308 0.451 2.678 1.77 3.056 1.322 0.379 2.668-0.375 3.009-1.684C128.987 83.745 128.189 82.376 126.87 81.998z" stroke="#152975" stroke-width="0.75"/><path fill="#ffffff" opacity="0.4" d="M121.632 87.56c0.612 0.973 1.426 1.706 2.577 1.95 1.326 0.281 1.478-1.482 0.528-1.685 -0.72-0.152-1.177-0.504-1.552-1.102C122.498 85.63 121.079 86.684 121.632 87.56L121.632 87.56z"/><path fill="url(#gradient-119)" opacity="1" d="M127.034 81.493c0.929 0.187 1.469 0.767 1.938 1.639 0.862 1.604 3.3 0.178 2.437-1.425 -0.757-1.408-2.018-2.613-3.625-2.938C125.727 78.355 125.438 81.171 127.034 81.493L127.034 81.493z"/><path fill="#f0c7b1" opacity="1" d="M55.112 83.583c3.224 11.315 7.475 23.313 17.685 23.669s22.135-7.239 22.29-22.238c0.173-16.767-10.474-23.381-20.684-23.737S50.307 66.714 55.112 83.583zM60.875 83.09c-0.252-1.101-0.325-1.417-0.311-2.473 2.027-1.21 4.04-1.547 5.851-1.905 2.123-0.418 6.853-0.845 10.317-0.329 4.587 0.679 7.931 3.488 10.773 7.94 0.004 0.005 0.013 0.004 0.018 0.008 0.007 0.027 0.021 0.053 0.026 0.08 0.255 1.007-0.816 1.819-2.155 2.438 -4.771 0.609-9.359 1.489-14.194 0.87C61.519 88.478 61.345 84.21 60.875 83.09z"/><path fill="url(#gradient-66)" opacity="1" d="M74.225 95.171c9.256 1.401 17.847-3.01 19.186-9.859 1.34-6.849-5.072-13.537-14.329-14.94 -9.258-1.399-17.845 3.012-19.185 9.862C58.557 87.082 64.967 93.766 74.225 95.171zM60.563 80.617c2.125-1.141 4.04-1.547 5.851-1.905 2.123-0.418 6.853-0.845 10.317-0.329 4.587 0.679 7.931 3.488 10.773 7.94 0.004 0.005 0.013 0.004 0.018 0.008 0.007 0.027 0.021 0.053 0.026 0.08 0.255 1.007-0.816 1.819-2.155 2.438 -4.771 0.609-9.359 1.489-14.194 0.87 -9.681-1.241-9.855-5.509-10.326-6.629C60.622 81.989 60.55 81.672 60.563 80.617z"/><path fill="url(#gradient-67)" opacity="1" d="M60.875 83.09c-0.252-1.101-0.325-1.417-0.311-2.473 2.092-1.175 4.04-1.547 5.851-1.905 2.123-0.418 6.853-0.845 10.317-0.329 4.587 0.679 7.931 3.488 10.773 7.94 0.004 0.005 0.013 0.004 0.018 0.008 0.007 0.027 0.021 0.053 0.026 0.08 0.255 1.007-0.816 1.819-2.155 2.438 -4.771 0.609-9.359 1.489-14.194 0.87C61.519 88.478 61.345 84.21 60.875 83.09z"/><path fill="#c27b55" opacity="1" d="M76.327 75.748c3.294 0.539 6.505 2.054 9.48 3.945 0.637 0.404 1.366 0.865 2.521 1.451 -0.828-0.188-1.594-0.617-2.309-1.011 0.736 0.698 1.422 1.529 1.982 2.334 -2.521-3.159-7.297-5.538-11.36-6.349 -3.902-0.779-10.989-0.264-16.251 2.042C65.208 75.449 72.237 75.08 76.327 75.748z"/><path fill="#000000" opacity="1" d="M87.508 86.277c-2.847-4.34-6.193-7.082-10.781-7.747 -4.833-0.705-11.271-0.221-15.034 1.843 -0.308 0.169-1.607 1.249-1.401 0.117 0.874-1.167 4.322-2.523 5.993-2.928C85.03 73.019 88.582 87.854 87.508 86.277zM60.646 82.841c-0.716 2.063 0.861 6.654 10.145 7.503 6.595 0.602 15.767-1.75 14.634-1.613 -4.779 0.589-9.375 1.449-14.219 0.839C60.224 88.19 61.468 83.023 60.646 82.841z"/><path fill="#f0c7b1" opacity="1" d="M125.197 61.277c-10.211 0.356-20.857 6.97-20.685 23.737 0.154 15 12.079 22.595 22.29 22.238 10.21-0.356 16.187-17.323 17.685-23.669C148.517 66.512 135.407 60.921 125.197 61.277zM128.399 89.719c-4.835 0.619-9.423-0.261-14.194-0.87 -1.339-0.618-2.41-1.43-2.154-2.438 0.006-0.027 0.02-0.053 0.025-0.08 0.006-0.004 0.014-0.003 0.018-0.008 2.843-4.452 6.188-7.261 10.773-7.94 3.465-0.516 8.195-0.089 10.318 0.329 1.811 0.357 3.824 0.694 5.851 1.905 0.014 1.055-0.059 1.372-0.312 2.473C138.255 84.21 138.08 88.478 128.399 89.719z"/><path fill="url(#gradient-68)" opacity="1" d="M139.703 80.234c-1.34-6.85-9.928-11.261-19.186-9.862 -9.257 1.403-15.669 8.091-14.328 14.94 1.339 6.849 9.93 11.26 19.186 9.859C134.633 93.766 141.043 87.082 139.703 80.234zM138.725 83.09c-0.47 1.121-0.645 5.388-10.325 6.629 -4.835 0.619-9.423-0.261-14.194-0.87 -1.339-0.618-2.41-1.43-2.154-2.438 0.006-0.027 0.02-0.053 0.025-0.08 0.006-0.004 0.014-0.003 0.018-0.008 2.843-4.452 6.188-7.261 10.773-7.94 3.465-0.516 8.195-0.089 10.318 0.329 1.811 0.357 3.727 0.764 5.851 1.905C139.05 81.672 138.978 81.989 138.725 83.09z"/><path fill="url(#gradient-69)" opacity="1" d="M138.725 83.09c0.253-1.101 0.325-1.417 0.312-2.473 -2.092-1.175-4.04-1.547-5.851-1.905 -2.123-0.418-6.854-0.845-10.318-0.329 -4.586 0.679-7.931 3.488-10.773 7.94 -0.004 0.005-0.012 0.004-0.018 0.008 -0.006 0.027-0.02 0.053-0.025 0.08 -0.256 1.007 0.815 1.819 2.154 2.438 4.771 0.609 9.359 1.489 14.194 0.87C138.08 88.478 138.255 84.21 138.725 83.09z"/><path fill="#c27b55" opacity="1" d="M123.273 75.748c-3.295 0.539-6.506 2.054-9.48 3.945 -0.637 0.404-1.367 0.865-2.521 1.451 0.828-0.188 1.594-0.617 2.309-1.011 -0.736 0.698-1.422 1.529-1.982 2.334 2.521-3.159 7.297-5.538 11.359-6.349 3.902-0.779 10.989-0.264 16.252 2.042C134.391 75.449 127.362 75.08 123.273 75.748z"/><path fill="#000000" opacity="1" d="M133.314 77.563c1.672 0.405 5.119 1.761 5.994 2.928 0.205 1.132-1.094 0.052-1.402-0.117 -3.764-2.064-10.201-2.548-15.033-1.843 -4.588 0.665-7.936 3.407-10.781 7.747C111.018 87.854 114.57 73.019 133.314 77.563zM128.395 89.57c-4.844 0.61-9.439-0.25-14.219-0.839 -1.134-0.137 8.038 2.215 14.633 1.613 9.284-0.849 10.861-5.44 10.145-7.503C138.131 83.023 139.376 88.19 128.395 89.57z"/><path fill="url(#gradient-18)" opacity="1" d="M141 113.974c0.035 22.622-18.292 40.994-40.938 41.025 -22.642 0.037-41.028-18.273-41.063-40.9 -0.035-22.62 18.292-41.064 40.937-41.1C122.579 72.964 140.967 91.349 141 113.974z"/><path fill="url(#gradient-19)" opacity="1" d="M137.5 53.999c0 20.711-16.789 37.5-37.499 37.5 -20.711 0-37.501-16.789-37.501-37.5s16.79-37.5 37.501-37.5C120.711 16.499 137.5 33.288 137.5 53.999z"/><path fill="#2a232b" opacity="1" d="M90.857 74.446c-12.948-4.229-18.875-4.225-33.252-2.519 -0.434 0.051-2.459 0.548-2.637 0.221 11.896-2.694 21.942-3.566 33.164 0.925C88.531 73.233 90.911 74.118 90.857 74.446z"/><path fill="#2a232b" opacity="1" d="M108.978 74.414c9.882-6.264 21.947-6.458 33.14-3.238 0.444 0.128 2.899 0.624 2.915 1.026C120.586 66.812 108.978 74.414 108.978 74.414z"/><path fill="#e1ac8f" opacity="1" d="M100.729 120.838c-0.354 0.161-1.185 0.161-1.448-0.103 0 0-6.296-2.153-5.498-4.215 1.264-3.262 12.727-0.761 12.717 0C106.475 118.462 100.729 120.838 100.729 120.838z"/><path fill="#c27b55" opacity="1" d="M92.215 113.609c0 0 5.448-18.624 6.008-22.61 1.063 6.47-1.503 20.873-1.774 23.812 -0.329 3.569 3.455 5.688 3.455 5.688 0.293 0.371-0.061 0.602-0.516 0.456l-6.631-2.559C91.186 117.061 91.186 115.79 92.215 113.609zM103.176 116.911c0.915 0.207 1.106 0.576 1.035 0.957 -0.069 0.385-0.462 0.911-1.288 0.43 -0.907-0.526-2.619-0.767-2.619-0.767S102.261 116.701 103.176 116.911z"/><path fill="#2a232b" opacity="1" d="M100 151.01c-1.99-0.86-3.71-1.78-4.61-4.15 -4.7-12.39 13.98-12.07 9.21 0C103.66 149.25 102.03 150.12 100 151.01z"/><path fill="#1b141c" opacity="1" d="M99.12 148.32c-0.98-1.33-1.19-1.59-1.69-3 -0.03 0.01-0.1-0.55-0.2-1.1 -0.01-1.48-0.1-1.92 1.31-4.31 -0.6 1.8-0.58 1.8-0.78 3.24 -0.09 0 0.1 2.05 0.18 2.04C98.47 146.91 98.54 147.01 99.12 148.32zM101.04 139.9c1.58 2.3 1.6 4.8 0.92 7.67C103.33 144.82 103.31 142.05 101.04 139.9zM101.04 142.24c-0.13 2.04-1.12 3.83-0.33 6.08C100.44 146.23 101.27 144.23 101.04 142.24zM98.95 141.49c0.49 4.6 0.06 2.86 0.42 6.25C99.67 145.09 99.73 143.99 98.95 141.49z"/><path fill="#0c080c" opacity="1" d="M95.3 146.9c0.89 2.33 2.53 3.28 4.7 4.22 2.26-0.98 3.77-1.88 4.7-4.22C109.54 134.65 90.54 134.33 95.3 146.9zM104.1 146.25c-1.05 2.31-2.24 3.52-4.1 4.66 -3.47-2.23-4.69-5.09-4.49-7.15C96.15 133.85 106.63 137.8 104.1 146.25z"/><path fill="#2a232b" opacity="1" d="M119.74 133.21c-13.47 0-17.96-3.72-19.72-4.18 -1.62 0.36-6.35 4.73-21.51 4.11 -0.45-0.02-1.06-0.04-1.43-0.12 -3.19-2.37-3-6.36 3.14-7.91 5.72-1.15 11.97-5.01 19.95-5.01 6.74 0 10.37 2.45 19.62 5.03 2.47 0.68 4.8 1.33 5.19 4.67 -0.14 1.27-0.84 2.35-2.14 3.26C122.26 133.15 121.11 133.21 119.74 133.21L119.74 133.21z"/><path fill="#1b141c" opacity="1" d="M95.87 127.4c1.2-1.24 2.17-3.14 3-4C98.01 124.7 97.55 126.24 95.87 127.4zM96.04 123.24c-2.23 3.02-2.41 3.13-5.17 6.17C93.77 127.2 94.58 125.92 96.04 123.24zM92.04 124.9c-3.69 2.96-3.23 2.22-6.33 4.83C89.83 127.39 90.67 126.39 92.04 124.9zM87.7 125.9c-4.01 2.49-1.09 0.78-7.33 5.17C83.02 129.87 82.89 130.04 87.7 125.9zM83.04 127.4c-1.97 0.88-3.9 1.9-5.67 3.17C79.36 129.73 81.24 128.63 83.04 127.4zM101.13 123.4c0.89 1.35 1.36 2.87 3 4C102.88 126.12 102.08 124.38 101.13 123.4zM103.96 123.24c1.75 3.24 2.61 4.23 5.17 6.17C106.36 126.36 106.19 126.25 103.96 123.24zM107.96 124.9c1.03 1.13 1.74 2.24 6.33 4.83C112.22 127.99 110.79 127.17 107.96 124.9zM112.3 125.9c4.51 3.88 4.58 3.92 7.33 5.17C115.76 128.35 115.09 127.64 112.3 125.9zM116.96 127.4c1.73 1.19 3.65 2.32 5.67 3.17C120.84 129.29 118.9 128.26 116.96 127.4z"/><path fill="#0c080c" opacity="1" d="M119.41 124.92c-9.65-2.3-15.75-7.96-30.02-2.83 -1.96 0.66-7.64 2.62-9.19 2.93 -0.75 0.19-1.58 0.37-2.43 0.77 -2.68 1.31-4.41 4.61-0.71 7.33 0.42 0.09 1.15 0.11 1.61 0.13 14.96 0.57 19.76-3.71 21.32-4.12 0.67 0.17 0.86 0.31 1.5 0.65 6.34 3.58 18.76 3.81 21.42 3.36 1.22-0.85 2.03-1.92 2.18-3.35C124.67 126.2 122.08 125.67 119.41 124.92zM101.41 128.78c-2.68-1.07-2.49 0.84-10.97 2.27 -6.92 1.03-12.4 1.13-13.4 1.06 -0.69-0.79-1.29-1.77-0.89-2.74 1.39-2.77 0.41-1.39 13.75-5.91 14.77-5.36 10.59-2.05 29.55 3 3.89 1 3.69 1.54 4.41 2.94 0.38 0.96-0.23 1.94-0.91 2.71C120.3 132.27 108.64 131.64 101.41 128.78z"/><path fill="#2a232b" opacity="1" d="M150.81 99.442c-0.208 0-0.427-0.01-0.651-0.029 -1.972-6.396 0.331-15.486 4.25-20.951 -2.674-7.41 2.494-3.557 1.635-12.393 -0.155-1.27 0.052-2.412 0.479-3.584 -1.269-3.313-1.619-7.189-1.198-9.319 -3.629-9.571-4.898-3.055-6.83-14.894 -2.96-1.071-8.371-5.169-10.667-6.959 -5.957-4.648-14.879 9.828-22.333 4.959 -4.442 4.032-12.805 3.311-15.521 2.409 -3.829 1.928-11.513 0.935-15.506-2.411 -6.414 4.608-9.373-6.881-20.2-6.579 -6.807 4.91-4.954 5.704-12.766 8.582 -0.698 4.549-0.054 5.279-3.703 9.208 -2.154 2.286-2.162 3.08-3.032 5.394l-0.156 0 0.053 0.271 -0.038 0.099 0.071 0.074c0.474 2.586-0.39 6.584-1.227 9.184 1.617 4.484-1.381 5.75 1.942 10.274 1.073 1.461 1.47 2.024 0.169 5.686 4.717 6.58 6.05 16.876 4.265 20.953 -7.124 0.687-6.721-9.202-7.304-12.656 -1.365-9.695-11.698-2.623-9.94-11.778 -2.641-2.091-1.968-4.754-1.073-8.9 -2.452-5.161-7.248-23.656 0.681-28.05 -0.558-6.983 2.841-13.939 8.591-16.91 0.856-6.626 9.141-16.875 15.649-15.523 1.494-7.913 15.707-17.864 21.96-13.427 4.878-4.65 15.003-6.226 21.571-4.299 7.221-1.883 16.184-0.474 21.605 4.291 6.435-4.408 20.349 5.649 21.952 13.405 7.113-0.673 14.411 8.336 15.669 15.567 5.934 3.057 9.076 10.023 8.574 16.897 7.476 4.135 3.791 20.938 0.694 28.041 0.689 3.6 1.757 6.655-1.079 8.909 1.897 9.601-8.953 0.934-10.171 13.722C156.838 92.721 156.198 99.442 150.81 99.442L150.81 99.442z"/><path fill="#1b141c" opacity="1" d="M160.293 77.838c-0.832 0.07-1.664-1.301-2.496-1.301 0-5.101 3.042-8.163 6.084-11.223 -1.014 0-2.027-2.041-3.042-1.021 -3.042-5.102 2.028-10.203 4.057-14.285 -6.085 1.021-11.154-6.121-7.099-11.223 0.704 0 1.408-0.982 2.112-1.242 -3.592-0.822-6.327-1.118-8.196-4.88 -1.014-3.061 0-6.122 2.028-9.182 -6.084 4.082-14.196 2.041-18.251-4.081 0-1.021 0-3.062 0-4.082 -2.029 5.102-7.099 9.182-13.183 7.142 -1.646 0-4.63-1.345-5.694-4.037 0.181 2.555-0.609 5.058-1.404 5.058 -6.084 3.06-14.195-1.021-15.209-8.163 0 4.082-2.028 9.182-4.056 10.203 -5.07 3.061-11.154-3.062-9.126-10.203 -2.028 7.142-8.112 10.203-14.196 8.163 -3.042-1.021-7.098-3.061-7.098-8.163 -3.042 7.142-11.154 14.284-16.224 5.102 3.042 8.162-2.577 17.345-8.244 17.345 4.015 5.491 1.147 17.345-5.951 17.345 8.111 2.041 4.056 11.223 5.069 17.345 -0.905 0-1.811 1.623-2.717 1.243 8.477 5.359 10.408 15.83 12.063 25.733 0.107-0.005 0.211-0.006 0.323-0.016 1.785-4.077 0.452-14.374-4.265-20.953 1.301-3.662 0.904-4.225-0.169-5.686 -3.323-4.524-0.325-5.79-1.942-10.274 0.837-2.599 1.701-6.598 1.227-9.184l-0.071-0.074 0.038-0.099 -0.053-0.271 0.156 0c0.87-2.314 0.878-3.108 3.032-5.394 3.649-3.93 3.005-4.66 3.703-9.208 7.813-2.878 5.959-3.672 12.766-8.582 10.827-0.302 13.786 11.187 20.2 6.579 3.993 3.346 11.677 4.338 15.506 2.411 2.717 0.902 11.079 1.623 15.521-2.409 7.454 4.869 16.376-9.607 22.333-4.959 2.296 1.79 7.707 5.888 10.667 6.959 1.932 11.839 3.201 5.323 6.83 14.894 -0.421 2.13-0.07 6.007 1.198 9.319 -0.427 1.172-0.634 2.314-0.479 3.584 0.859 8.836-4.309 4.983-1.635 12.393 -3.695 5.154-5.95 13.526-4.543 19.829C148.86 90.198 152.749 81.539 160.293 77.838z"/><path fill="#3a353a" opacity="1" d="M132.061 10.84c1.719-1.024 8.918-0.546 10.395-5.612C142.833 11.226 136.312 11.595 132.061 10.84zM148.412 10.075c2.97 0.951 4.813 6.225 5.07 7.524C154.263 14.153 152.04 9.675 148.412 10.075zM149.553 16.707c1.437 1.297 0.971 5.101 0.507 6.122C151.689 21.296 151.909 17.608 149.553 16.707zM147.398 17.982c0.111 2.74-0.195 4.648-1.648 6.632C148.398 23.297 148.441 20.748 147.398 17.982zM155.383 23.339c0.788-0.513 5.585-0.415 6.084 0.766C161.489 21.83 156.615 21.84 155.383 23.339zM153.482 28.058c4.019-0.083 3.455-1.2 7.604-0.893C158.206 25.239 155.729 27.129 153.482 28.058zM158.806 29.716c-0.858 1.02-2.829 1.62-2.915 4.208C157.111 31.625 157.822 31.719 158.806 29.716zM162.861 36.093c3.256 1.638 4.257 3.755 5.07 7.27C168.833 39.356 167.064 36.289 162.861 36.093zM164.129 40.684c1.822 1.815 1.932 5.626 0.887 8.035C167.424 46.734 167.503 42.097 164.129 40.684zM162.607 43.618c-0.374 1.859-1.179 2.688-2.154 4.846C162.014 47.274 162.925 45.685 162.607 43.618zM163.621 55.606 163.621 55.606c1.053 3.215 1.918 4.353 0.635 6.505C166.854 60.487 165.595 57.942 163.621 55.606zM162.101 56.755c-0.05 1.904-0.276 3.379-1.394 5.739C162.271 61.371 163.026 59.411 162.101 56.755zM127.752 13.263c0.51 2.492 4.538 3.179 4.538 3.179 1.04 0.244 2.542 0.184 3.447-0.5C134.647 16.127 128.78 14.629 127.752 13.263zM122.809 8.8c1.536-2.926 4.926-4.827 8.111-5.357C126.71 2.296 123.261 4.881 122.809 8.8zM120.4-3.827c1.942 1.783 1.96 4.773 2.027 8.672C123.975 1.994 123.902-2.445 120.4-3.827zM121.414-5.485c1.539 0.299 3.979 4.701 4.184 5.74C126.17-2.325 123.604-5.916 121.414-5.485zM118.879-1.786c0.318 3.139 0.03 5.48-1.646 8.162C120.269 4.559 120.521 1.362 118.879-1.786zM115.711 7.652c-5.082 0.921-7.161 7.895-5.45 12.499C110.482 18.128 112.168 10.188 115.711 7.652zM110.641 3.825c-9.45 3.409-8.715 14.028-5.07 16.453C104.695 18.888 103.081 10.255 110.641 3.825zM99.614 4.081c-5.041 7.576 0.793 12.744 2.918 16.666C101.128 15.722 97.8 10.264 99.614 4.081zM107.473-2.806c-1.478 0.201-5.937-0.941-6.338 2.55C102.744-2.686 105.359-1.298 107.473-2.806zM110.768-4.464c-4.262-4.366-5.752-2.456-6.465-1.914C106.896-7.17 108.012-5.867 110.768-4.464zM108.613-9.821c3.063 0.032 5.401 2.261 6.211 5.229C115.605-8.087 112.316-11.478 108.613-9.821zM78.193-0.639c3.703-3.293 7.981-6.629 12.421-5.102C86.39-9.9 80.756-5.989 78.193-0.639zM83.137-0.128c-7.265 6.348-1.188 12.163 1.141 11.861C83.263 11.249 79.169 7.446 83.137-0.128zM85.291 4.335c1.063 0.854 1.756 1.699 2.028 4.846C88.166 7.073 87.671 5.06 85.291 4.335zM92.896-0.639c0.103 0.381 1.558 5.335 1.167 5.335 -0.128 1.343-0.398 1.915-1.04 3.083C97.603 5.28 93.521 0.39 92.896-0.639zM92.263-3.699c4.813-0.473 4.962 5.761 4.689 7.524C99.773-0.397 96.927-6.515 92.263-3.699zM80.221 13.901c2.226 0.595 0.982 3.246 1.268 7.015C82.734 18.018 83.297 13.608 80.221 13.901zM75.166 9.612c-2.058-8.338-8.633-6.934-8.633-6.934 1.32-0.367 6.271 3.712 7.03 9.422 0.219 1.134 0.444 3.079 0.701 4.607C74.584 15.687 75.839 11.99 75.166 9.612zM68.307 8.162c2.32 1.8 0.981 7.046 0 9.821C71.302 15.007 72.167 9.307 68.307 8.162zM64.505 9.437c1.449 1.902-1.703 5.647-3.676 8.163C64.029 16.283 67.604 11.589 64.505 9.437zM69.194-6.25c-2.841-0.465-5.571 3.311-4.816 6.122C64.731-1.832 67.176-5.672 69.194-6.25zM67.8-2.551c-2.279 0.454-2.191 3.93-1.141 5.356C66.538 1.785 66.504-2.082 67.8-2.551zM53.351 11.478c-4.011-1.786-7.875-0.083-8.492 3.955C46.927 12.637 49.917 11.543 53.351 11.478zM51.069 15.049c-2.755-1.719-6.26 1.727-5.577 4.847C45.919 17.705 48.8 14.798 51.069 15.049zM49.422 18.365c-3.4 0.307-3.967 5.263-1.901 6.887C46.738 23.542 47.416 19.313 49.422 18.365zM40.93 23.722c2.196 1.012 4.552 2.976 4.277 2.976 0.792 1.14 0.959 1.559 1.299 2.891C47.386 25.745 44.818 24.23 40.93 23.722zM42.704 28.186c1.926 1.488 3.417 4.226 2.155 7.015C47.482 33.076 46.363 29.374 42.704 28.186zM40.485 29.368c-0.172-0.171-0.323-0.155-0.317-0.162 0.555 0.076 0.272 3.473-1.024 4.476 -0.413 0.455-1.79 1.805-2.271 2.284C42.358 34.09 41.5 30.358 40.485 29.368zM38.268 38.771c1.558 1.928 1.78 4.979 1.446 5.314 -0.309 2.233-0.127 1.246-0.558 3.614C41.32 45.208 42.168 41.147 38.268 38.771zM36.367 42.47c1.185 0.987 0.939 5.241-0.761 6.122C38.497 48.388 38.726 43.236 36.367 42.47zM32.691 42.98c1.353 1.627 0.405 2.484-3.802 7.27C33.319 48.206 35.744 44.46 32.691 42.98zM32.691 55.097c2.448 1.836 0.636 6.208-0.381 7.269C35.531 60.846 36.123 55.928 32.691 55.097zM36.747 59.178c1.534 0.44-0.776 4.06-1.648 5.101C37.811 62.885 39.197 59.095 36.747 59.178zM79.428 17.256c0.258 2.781-2.367 5.437-2.882 5.956C80.154 22.118 80.116 18.763 79.428 17.256zM120.893 18.134c0 0-1.006-1.314-1.76-2.405 0.485 2.857 2.174 5.255 5.07 5.782C123.805 21.214 120.893 18.54 120.893 18.134zM121.837 15.049c0.377 2.068 1.907 3.618 4.057 3.742C124.583 18.038 123.274 16.978 121.837 15.049zM166.453 68.786c-0.839 1.81-2.587 2.872-3.719 4.761C166.084 71.548 166.283 70.411 166.453 68.786zM165.438 73.887c-1.014 0.524-2.677 1.033-4.395 3.062C163.563 76.018 164.425 74.814 165.438 73.887zM32.944 68.105c0.782 1.301 1.849 2.354 3.042 3.062C35.235 69.891 34.186 68.863 32.944 68.105zM33.283 71.846c1.256 4.162 3.379 3.742 3.379 3.742C35.529 74.953 33.666 72.606 33.283 71.846z"/><path fill="#000000" opacity="1" d="M168.08 37.856c0.439-6.042-2.227-13.634-8.619-16.927 -1.242-7.001-8.668-16.365-15.699-15.692 -1.551-7.575-15.768-17.858-22.165-13.458 -4.675-4.112-13.479-6.324-21.624-4.224 -6.935-2.012-17.092-0.073-21.603 4.224 -6.164-4.382-20.718 5.766-22.167 13.458 -6.271-1.292-14.833 9.064-15.688 15.683 -5.429 2.796-9.194 9.783-8.627 16.937 -8.059 4.451-2.987 23.388-0.684 28.263 -0.237 1.117-0.891 3.905-0.762 5.112 0.011 0.459 0.029 0.765 0.039 0.765 0.294 1.02 0.365 1.988 1.783 3.111 -1.767 9.213 8.648 2.297 9.976 11.704 0.668 3.964 0.144 8.049 2.901 11.152 1.391 1.519 3.904 1.903 4.894 1.734 1.933-4.083 0.56-14.696-4.132-21.285 1.653-4.674 0.4-4.524-1.217-7.224 -1.506-2.513 0.361-5.153-0.911-8.692 1.407-4.349 1.496-7.771 1.189-9.316 0.01 0 0.01 0 0-0.01 0.94-2.462 0.88-3.187 3.04-5.479 3.719-4.005 3.097-4.882 3.755-9.192 7.218-1.782 5.407-3.808 12.522-7.778 5.82-3.248 13.681 10.589 20.163 5.931 1.431 1.197 2.509 1.708 4.121 2.347 0.724 0.221 0.59 0.26 1.822 0.469 0.268 0.031 6.23 0.379 6.23 0.102 0.588-0.06 2.819-0.285 3.368-0.561 0.933 0.311 2.433 0.465 3.369 0.561 0 0.01 1.622 0.112 3.229 0.112 3.639 0.142 6.949-1.239 8.932-3.03 7.635 4.975 16.719-9.591 23.073-4.03 5.963 5.219 7.936 5.26 9.635 5.877 0.054 0.33 0.259 2.477 0.386 3.296 1.094 5.448 3.712 4.289 6.398 11.396 -0.203 1.022-0.461 4.964 1.189 9.296 -0.367 1.02-0.627 2.225-0.458 3.611 0.842 8.636-4.333 4.96-1.673 12.314 -3.565 4.975-6.371 14.319-4.149 21.243 0.01 0.011 0.01 0.031 0.018 0.042 7.612 0.869 7.239-9.595 7.795-12.887 1.317-9.33 11.76-2.561 9.985-11.704 1.439-1.147 1.508-2.091 1.772-3.111 0.011 0 0.032-0.306 0.042-0.755 0.135-1.285-0.561-4.111-0.755-5.132C169.89 63.544 176.97 42.763 168.08 37.856zM168.662 64.64c-0.066 0.372-0.266 1.149-0.483 1.745 0.075 0.439 1.065 5.52 0.634 5.52 -0.313 1.021-0.106 1.572-1.517 2.918 1.396 8.56-9.47 1.01-11.043 11.715 -0.932 5.7 0.069 11.547-5.895 12.517 -1.192-5.739 1.433-15.507 4.29-20.477 -2.27-6.842 2.923-3.58 2.049-12.57 -0.159-1.346-0.021-2.284 0.269-3.306 -0.739-2.165-1.521-6.084-1.238-8.764 -2.384-8.027-0.61-3.267-4.884-9.112 -0.018-0.031-0.449-0.785-0.465-0.816l-0.01-0.011c-1.057-2.263-0.765-3.4-1.357-5.897 -0.002 0-5.551-2.566-10.486-6.758 -6.139-5.211-15.494 8.794-23.229 4.809 -3.995 3.086-11.915 2.875-15.313 2 -1.901 0.436-7.221 0.795-10.4 0.143 -0.081-0.017-1.438-0.418-1.506-0.439 -1.102-0.336-2.462-1.079-3.427-1.704 -6.963 4.059-14.429-11.927-21.948-5.806 -4.398 3.581-6.598 6.223-11.739 7.755 -0.396 1.02-0.226 3.548-1.367 5.897v0.011c0 0-0.219 0.767-2.307 2.969 -2.607 2.836-2.287 4.612-3.051 6.968 0.282 2.692-0.469 6.161-1.229 8.765 1.031 3.708-1.207 6.535 1.436 9.886 2.151 2.793 1.439 3.041 0.883 5.989 2.547 4.477 5.584 14.194 4.279 20.478 -10.286-1.63-0.016-17.209-12.887-19.346 -1.931-0.3-3.292-0.333-3.823-1.836 -0.31-0.895-0.318-2.528-0.229-3.062 -1.387-1.429-1.216-1.897-1.504-2.918 -0.504 0 0.623-5.02 0.623-5.509 -0.374-1.021-7.082-23.671 0.742-28.518 0-7.009 3.865-13.862 8.411-16.672 0.049-0.204 0.107-0.408 0.168-0.623 0-0.01 0.009-0.02 0.009-0.03 1.941-6.005 9.653-15.581 15.699-14.774 1.413-6.243 15.997-17.535 21.86-13.54 6.708-4.132 14.734-5.069 21.296-3.713 8.431-1.547 16.608 0.454 21.314 3.713 5.643-3.844 19.766 6.539 21.861 13.54 6.383-0.851 14.061 9.505 15.708 14.794v0.01c0.06 0.215 0.121 0.419 0.179 0.623 5.865 4.039 7.521 9 8.379 16.295 0 0.117 0.021 0.191 0.021 0.367C174.08 42.33 170.504 55.007 168.662 64.64z"/><path fill="#5B1D0D" opacity="0.6" d="M149.6 87.26c0 9.03-7.39 16.52-16.42 16.52h-3.7c-3.38 0-9.1-2.02-14.66-7.3 -3.04-2.88-7.19-10.12-8.29-14.36 -0.51-1.96 0.43-4.67 0.7-5.17l2.69-5.08c0.48-0.91 2.3-1.92 3.33-2.08 2.79-0.43 10.45-1.09 10.45-1.09 5.18 0.27 11.62 0.61 17.11 3.1 5.88 2.67 8.79 7.34 8.79 14.1V87.26zM50.4 85.9c0-6.77 2.91-11.43 8.79-14.1 5.48-2.49 11.93-2.83 17.11-3.1 0 0 7.67 0.66 10.45 1.09 1.02 0.16 2.84 1.16 3.33 2.08l2.69 5.08c0.27 0.5 1.21 3.21 0.7 5.17 -1.11 4.24-5.26 11.48-8.29 14.36 -5.56 5.28-11.28 7.3-14.66 7.3h-3.7c-9.03 0-16.42-7.5-16.42-16.52V85.9z"/><path fill="#fff" opacity="0.1" d="M149.6 87.26c0 0.65-0.05 1.29-0.12 1.92 -12.99-3.95-27.98-6.71-43.09-8.52 0.04-1.65 0.63-3.34 0.84-3.72l2.69-5.08c0.48-0.91 2.3-1.92 3.33-2.08 2.79-0.43 10.45-1.09 10.45-1.09 5.18 0.27 11.62 0.61 17.11 3.1 5.88 2.67 8.79 7.34 8.79 14.1V87.26zM90.09 71.86c-0.48-0.91-2.3-1.92-3.33-2.08 -2.79-0.43-10.45-1.09-10.45-1.09 -5.18 0.27-11.62 0.61-17.11 3.1 -3.18 1.45-5.49 3.48-6.94 6.11 12.16-0.23 26.49 0.18 41.23 1.44 -0.2-1.14-0.55-2.12-0.7-2.4L90.09 71.86z"/><path fill="#170904" opacity="1" d="M104.15 81.18l4.15 9.35L107.37 91c-2.02-0.56-2.97-6.13-4.37-8.05 -0.96-1.32-5.05-1.32-6.01 0 -1.4 1.92-2.36 7.49-4.37 8.05l-0.93-0.47 4.15-9.35C96.77 79.1 103.22 79.09 104.15 81.18zM93.75 71.62c0.14-0.63 0.7-1.07 1.35-1.07 3.54 0 6.26 0 9.8 0 0.65 0 1.2 0.45 1.35 1.07l0.12 0.54 2.52-4.34c-2.58 0-15.21 0-17.79 0l2.52 4.34L93.75 71.62zM95.55 75.4v1.36c2.17-1.11 6.73-1.11 8.89 0V75.4C102.12 74.22 97.91 74.2 95.55 75.4z"/><path fill="#26120b" opacity="1" d="M121.06 67.31l-10.59-0.21c-1.53-0.03-2.95 0.8-3.67 2.16l-2.69 5.08c-0.37 0.69-0.56 1.46-0.56 2.24 0.5 19.18 18.71 28.31 25.93 28.31 0 0 2.46 0 3.7 0 9.74 0 17.64-7.9 17.64-17.64V85.9C150.82 69.7 135.43 67.79 121.06 67.31zM149.6 87.26c0 9.03-7.39 16.52-16.42 16.52h-3.7c-3.38 0-9.1-2.02-14.66-7.3 -3.04-2.88-7.19-10.12-8.29-14.36 -0.51-1.96 0.43-4.67 0.7-5.17l2.69-5.08c0.48-0.91 2.3-1.92 3.33-2.08 2.79-0.43 9.01-1.09 13.26-0.87 2.74 0.14 8.82 0.39 14.3 2.88 5.88 2.67 8.79 7.34 8.79 14.1V87.26zM49.18 85.9v1.36c0 9.74 7.9 17.64 17.64 17.64 1.24 0 3.7 0 3.7 0 7.23 0 25.43-9.13 25.93-28.31 0-0.78-0.19-1.55-0.56-2.24l-2.69-5.08c-0.72-1.35-2.14-2.19-3.67-2.16l-10.59 0.21C64.57 67.79 49.18 69.7 49.18 85.9zM50.4 85.9c0-6.77 2.91-11.43 8.79-14.1 5.48-2.49 11.56-2.73 14.3-2.88 4.25-0.22 10.48 0.44 13.26 0.87 1.02 0.16 2.84 1.16 3.33 2.08l2.69 5.08c0.27 0.5 1.21 3.21 0.7 5.17 -1.11 4.24-5.26 11.48-8.29 14.36 -5.56 5.28-11.28 7.3-14.66 7.3h-3.7c-9.03 0-16.42-7.5-16.42-16.52V85.9z"/><path fill="#351d15" opacity="1" d="M106.33 75.78c-0.4 0.4-1.04 0.4-1.44 0s-0.4-1.04 0-1.44 1.04-0.4 1.44 0S106.73 75.38 106.33 75.78zM109.44 69.94c0-0.56-0.46-1.02-1.02-1.02s-1.02 0.46-1.02 1.02 0.46 1.02 1.02 1.02S109.44 70.5 109.44 69.94zM94.39 74.04c0.56 0 1.02 0.46 1.02 1.02s-0.46 1.02-1.02 1.02 -1.02-0.46-1.02-1.02C93.37 74.49 93.82 74.03 94.39 74.04zM90.85 70.64c0.39 0.41 1.04 0.42 1.44 0.03s0.42-1.04 0.03-1.44c-0.39-0.41-1.04-0.42-1.44-0.03S90.46 70.23 90.85 70.64z"/><path fill="#170904" opacity="1" d="M156 83.47l-6 1.58 -0.4-3.78 6.4-1V83.47zM108.68 70.81v-1.79h-0.51v1.79H108.68zM106.43 75.5l-1.27-1.27 -0.36 0.36 1.27 1.27L106.43 75.5zM44 80.28l6.4 1L50 85.06l-6-1.58V80.28zM90.79 69.49l1.26 1.26 0.36-0.36 -1.26-1.26L90.79 69.49zM93.5 75.31h1.8v-0.51h-1.8V75.31z"/></svg>